<svg width="372" height="328" viewBox="0 0 372 328" fill="none" xmlns="http://www.w3.org/2000/svg">
<path opacity="0.2" d="M178.061 0C219.835 0 258.396 18.1463 293.744 54.439L183.732 164.451C182.22 164.451 181.463 163.317 181.463 161.049H179.195V163.317L180.329 168.988L157.646 190.537H154.244L153.11 186H150.841C150.841 188.268 150.085 189.402 148.573 189.402C144.415 185.622 141.012 183.732 138.366 183.732V184.866L139.5 188.268H138.366L134.963 186V187.134C141.579 194.695 146.116 198.476 148.573 198.476L131.561 217.756C134.585 218.134 136.098 219.268 136.098 221.159V223.427L132.695 226.829H130.427C128.537 226.829 127.402 225.317 127.024 222.293L115.683 232.5C115.683 234.201 120.22 237.982 129.293 243.841V246.11L123.622 244.976V246.11L121.354 248.378L122.488 249.512V251.78H119.085V252.915C122.866 253.104 124.756 254.238 124.756 256.317L116.817 265.39V266.524C120.598 262.744 125.512 260.854 131.561 260.854L129.293 256.317L130.427 255.183H131.561C132.884 255.372 135.152 258.774 138.366 265.39L139.5 266.524C142.146 271.061 144.793 273.329 147.439 273.329V275.598H150.841C152.354 275.598 153.488 272.573 154.244 266.524L153.11 263.122H154.244C156.512 263.122 157.646 262.366 157.646 260.854V255.183H158.78L159.915 256.317H161.049V254.049H158.78L157.646 255.183C153.866 253.671 151.976 251.402 151.976 248.378C153.488 244.976 155 243.085 156.512 242.707H159.915C162.183 242.707 163.317 244.976 163.317 249.512C165.585 249.512 166.72 248 166.72 244.976H168.988C168.988 246.866 171.256 248.756 175.793 250.646H179.195C180.707 250.646 181.463 249.512 181.463 247.244C185.244 247.244 187.134 248 187.134 249.512L188.268 248.378H189.402C193.939 249.323 196.207 251.213 196.207 254.049H198.476L197.341 252.915V251.78L201.878 246.11C204.146 246.11 207.171 243.841 210.951 239.305L209.817 238.171V235.902L214.354 234.768C213.03 230.232 210.006 226.451 205.28 223.427V220.024H206.415C207.927 220.402 211.329 224.561 216.622 232.5L221.159 229.098L223.427 231.366H224.561V226.829H226.829V227.963L225.695 229.098V230.232L226.829 231.366H227.963L232.5 230.232C232.5 231.744 234.39 232.5 238.171 232.5C238.171 236.281 240.061 238.171 243.841 238.171C243.841 241.195 244.598 242.707 246.11 242.707L250.646 241.573V243.841C246.866 244.03 244.976 245.165 244.976 247.244L246.11 248.378L244.976 249.512V251.78C247.244 251.78 248.378 252.537 248.378 254.049L247.244 255.183V256.317L246.11 255.183H242.707C238.927 258.018 237.037 260.665 237.037 263.122H235.902L232.5 260.854L230.232 264.256V266.524L232.5 269.927V272.195C230.988 275.22 229.098 276.732 226.829 276.732L221.159 272.195L217.756 273.329L215.488 271.061L212.085 273.329L209.817 271.061H208.683C208.683 273.329 207.171 275.598 204.146 277.866V280.134L197.341 277.866C194.128 278.055 189.213 281.835 182.598 289.207C182.598 291.476 184.11 292.61 187.134 292.61L188.268 293.744V296.012H180.329L181.463 290.341C179.195 290.341 178.061 291.476 178.061 293.744L176.927 294.878H171.256L168.988 292.61L167.854 293.744H165.585V291.476L162.183 293.744C162.183 292.232 161.049 291.476 158.78 291.476L159.915 290.341V288.073C157.646 288.073 156.512 289.585 156.512 292.61C155 292.61 154.244 291.098 154.244 288.073H153.11C153.11 290.341 152.354 291.476 150.841 291.476L145.171 290.341V291.476L147.439 294.878V298.28L144.037 301.683L139.5 297.146L144.037 290.341C103.018 275.976 72.7744 251.78 53.3049 217.756C40.4512 194.695 34.0244 170.878 34.0244 146.305C34.0244 94.8902 59.7317 52.1707 111.146 18.1463C131.183 6.04877 153.488 0 178.061 0ZM69.1829 144.037C69.1829 165.963 77.5 187.89 94.1341 209.817L114.549 188.268C114.549 186.945 111.524 185.055 105.476 182.598V180.329L108.878 176.927L115.683 179.195L121.354 176.927L122.488 178.061L121.354 179.195V181.463C123.055 179.951 125.701 179.195 129.293 179.195L128.159 178.061V175.793L242.707 60.1097C217.567 44.9878 194.884 37.4268 174.659 37.4268H172.39C135.909 37.4268 104.53 58.5976 78.2561 100.939C72.2073 116.817 69.1829 131.183 69.1829 144.037ZM315.293 89.5976C325.122 109.445 330.037 131.372 330.037 155.378C330.037 196.396 314.159 230.421 282.402 257.451C278.622 257.451 276.732 259.72 276.732 264.256L263.122 274.463H260.854V271.061L255.183 272.195V271.061C255.183 268.604 256.695 265.201 259.72 260.854V257.451L258.585 256.317V255.183L259.72 254.049L268.793 256.317H269.927L273.329 252.915V251.78C273.329 248.378 268.793 241.951 259.72 232.5L261.988 229.098L259.72 226.829V223.427C259.72 217.378 263.122 214.354 269.927 214.354L274.463 215.488C287.317 196.207 293.744 178.061 293.744 161.049V158.78L290.341 157.646V155.378L293.744 149.707L286.939 116.817L315.293 89.5976ZM367.463 148.573H368.598L372 151.976V153.11L369.732 155.378H367.463L364.061 151.976L367.463 148.573ZM285.805 156.512H288.073L290.341 158.78V164.451L284.671 165.585L282.402 158.78L285.805 156.512ZM154.244 165.585V166.72L156.512 168.988V167.854L154.244 165.585ZM146.305 179.195V183.732H149.707V179.195H146.305ZM129.293 180.329V181.463L131.561 183.732H132.695L129.293 180.329ZM129.293 197.341V198.476L131.561 200.744H132.695V199.61L130.427 197.341H129.293ZM167.854 199.61L170.122 201.878L167.854 204.146L165.585 201.878L167.854 199.61ZM362.927 199.61H365.195L367.463 201.878V203.012L365.195 205.281H362.927L360.659 203.012V201.878L362.927 199.61ZM244.976 207.549H252.915L254.049 208.683L255.183 207.549H257.451L258.585 213.219L257.451 214.354L258.585 215.488L251.78 220.024H247.244C246.11 220.024 244.598 217.378 242.707 212.085C244.22 212.085 244.976 210.573 244.976 207.549ZM187.134 218.89L188.268 220.024V221.159L186 223.427H184.866V221.159L187.134 218.89ZM3.40244 220.024L5.67073 222.293V223.427L3.40244 225.695L1.13415 223.427V222.293L3.40244 220.024ZM105.476 222.293L104.341 223.427V224.561L107.744 225.695L108.878 224.561V223.427L105.476 222.293ZM68.0488 224.561V225.695L73.7195 226.829L77.1219 225.695V224.561H68.0488ZM361.793 227.963C362.927 227.963 364.061 229.476 365.195 232.5C365.195 234.579 362.549 236.848 357.256 239.305H353.854L351.585 237.037L353.854 234.768C355.366 234.768 356.122 232.878 356.122 229.098L357.256 227.963H361.793ZM80.5244 230.232V232.5L82.7927 230.232H80.5244ZM141.768 229.098L142.902 230.232L144.037 229.098H145.171C147.439 229.098 149.707 231.366 151.976 235.902C151.03 238.927 149.14 241.195 146.305 242.707H144.037L139.5 238.171V231.366L141.768 229.098ZM124.756 233.634H125.89V235.902H124.756V233.634ZM252.915 240.439H255.183V242.707H252.915V240.439ZM36.2927 243.841H37.4268L39.6951 246.11L36.2927 249.512L34.0244 247.244V246.11L36.2927 243.841ZM27.2195 246.11H28.3537L32.8902 251.78V252.915L30.622 255.183H29.4878L24.9512 250.646V248.378L27.2195 246.11ZM247.244 248.378H248.378V250.646H247.244V248.378ZM108.878 258.585H112.28V256.317H111.146L108.878 258.585ZM302.817 255.183H305.085V257.451H302.817V255.183ZM353.854 255.183L357.256 258.585L353.854 261.988H352.72C351.018 261.988 349.884 260.098 349.317 256.317L350.451 255.183H353.854ZM311.89 256.317L313.024 257.451V260.854L309.622 264.256H307.354L305.085 261.988V260.854C306.598 257.829 308.866 256.317 311.89 256.317ZM12.4756 263.122L14.7439 265.39L11.3415 268.793H10.2073L9.07317 264.256L10.2073 263.122H12.4756ZM146.305 264.256H148.573V266.524H146.305V264.256ZM5.67073 266.524C10.2073 268.415 12.4756 271.061 12.4756 274.463L7.93902 277.866H3.40244L0 274.463V269.927C0 268.604 1.89024 267.47 5.67073 266.524ZM350.451 267.659L352.72 269.927V276.732C352.72 278.055 350.829 279.189 347.049 280.134L343.646 272.195C345.915 272.195 347.049 271.061 347.049 268.793L348.183 267.659H350.451ZM150.841 276.732V277.866L155.378 283.537L154.244 286.939H156.512V284.671H157.646L154.244 277.866L155.378 276.732H150.841ZM139.5 279V281.268H140.634V279H139.5ZM238.171 288.073H240.439C241.951 288.073 242.707 289.207 242.707 291.476C246.488 292.421 248.378 293.555 248.378 294.878V297.146L246.11 299.415H243.841L242.707 298.28L234.768 292.61V291.476L238.171 288.073ZM199.61 292.61H201.878V293.744H199.61V292.61ZM341.378 294.878C344.402 296.012 345.915 297.146 345.915 298.28L341.378 302.817C338.354 301.683 336.841 300.549 336.841 299.415V298.28C336.841 296.39 338.354 295.256 341.378 294.878ZM100.939 315.293H104.341L106.61 317.561L105.476 323.232H100.939L98.6707 320.963V317.561L100.939 315.293ZM141.768 335.707L145.171 343.646L141.768 345.915H139.5C137.988 345.915 137.232 344.78 137.232 342.512C138.933 337.976 140.445 335.707 141.768 335.707ZM153.11 354.988L158.78 364.061C156.134 369.354 153.11 372 149.707 372C144.415 372 141.768 368.22 141.768 360.659L153.11 354.988Z" fill="white"/>
</svg>
