<svg width="261" height="283" viewBox="0 0 261 283" fill="none" xmlns="http://www.w3.org/2000/svg">
<rect x="0.0742188" y="0.0737305" width="260.935" height="303.392" rx="14.1524" fill="#09A8BC"/>
<path d="M107.345 128.766H114.891C116.438 128.766 117.768 128.997 118.879 129.46C120 129.924 120.862 130.609 121.464 131.517C122.067 132.425 122.368 133.542 122.368 134.867C122.368 135.95 122.182 136.882 121.812 137.66C121.45 138.429 120.936 139.073 120.269 139.592C119.611 140.101 118.838 140.509 117.948 140.815L116.628 141.509H110.069L110.041 138.257H114.919C115.651 138.257 116.257 138.128 116.739 137.868C117.221 137.609 117.582 137.248 117.823 136.784C118.073 136.321 118.198 135.784 118.198 135.172C118.198 134.524 118.078 133.963 117.837 133.491C117.596 133.018 117.23 132.657 116.739 132.407C116.248 132.157 115.632 132.031 114.891 132.031H111.514V149H107.345V128.766ZM118.657 149L114.043 139.981L118.449 139.953L123.118 148.805V149H118.657ZM133.805 132.226L128.302 149H123.869L131.387 128.766H134.208L133.805 132.226ZM138.377 149L132.86 132.226L132.415 128.766H135.264L142.824 149H138.377ZM138.127 141.468V144.734H127.44V141.468H138.127ZM159.334 145.748V149H144.992V145.748H159.334ZM159.126 131.086L146.841 149H143.908V146.61L156.291 128.766H159.126V131.086ZM157.694 128.766V132.031H143.922V128.766H157.694ZM176.622 145.748V149H162.28V145.748H176.622ZM176.414 131.086L164.129 149H161.197V146.61L173.579 128.766H176.414V131.086ZM174.983 128.766V132.031H161.21V128.766H174.983ZM183.71 128.766V149H179.555V128.766H183.71ZM200.623 145.748V149H190.436V145.748H200.623ZM191.784 128.766V149H187.615V128.766H191.784Z" fill="white"/>
<path d="M87.0388 124.21H67.1157C65.5503 124.21 64.2838 125.437 64.2838 126.938L64.2695 144.571C64.2695 145.512 64.7676 146.344 65.5218 146.835L77.0772 154.213L88.6184 146.835C89.3726 146.344 89.8707 145.512 89.8707 144.571L89.8849 126.938C89.8849 125.437 88.6041 124.21 87.0388 124.21ZM74.2311 144.667L67.1157 137.848L69.1222 135.925L74.2311 140.807L85.0322 130.456L87.0388 132.393L74.2311 144.667Z" fill="white"/>
</svg>
