<svg width="31" height="31" viewBox="0 0 31 31" fill="none" xmlns="http://www.w3.org/2000/svg">
<g clip-path="url(#clip0_924_466)">
<path d="M18.3649 24.235C17.9654 24.235 17.6158 24.109 17.3162 23.8568C17.0665 23.5542 16.9417 23.2012 16.9417 22.7978C16.9417 22.4952 17.0166 22.1926 17.1664 21.89L22.3349 8.34955C22.5846 7.84525 22.8842 7.39138 23.2338 6.98794C23.6333 6.53406 24.2075 6.30713 24.9566 6.30713H29.451C29.9004 6.30713 30.25 6.48363 30.4996 6.83665C30.7993 7.13923 30.8991 7.54267 30.7993 8.04697L28.7019 21.7387C28.602 22.3943 28.3523 22.9743 27.9528 23.4786C27.5533 23.9829 26.9541 24.235 26.1551 24.235H18.3649ZM3.00915 24.235C2.60965 24.235 2.26009 24.109 1.96047 23.8568C1.71078 23.5542 1.58594 23.2012 1.58594 22.7978C1.58594 22.4952 1.66084 22.1926 1.81066 21.89L7.05407 8.34955C7.25382 7.84525 7.52848 7.39138 7.87804 6.98794C8.27754 6.53406 8.85182 6.30713 9.60088 6.30713H14.0952C14.5447 6.30713 14.8942 6.48363 15.1439 6.83665C15.4435 7.13923 15.5434 7.54267 15.4435 8.04697L13.3462 21.7387C13.2962 22.3943 13.0466 22.9743 12.5971 23.4786C12.1976 23.9829 11.5984 24.235 10.7994 24.235H3.00915Z" fill="#10A466"/>
</g>
<defs>
<clipPath id="clip0_924_466">
<rect width="30.1944" height="30.1944" fill="white" transform="translate(0.642578 0.645996)"/>
</clipPath>
</defs>
</svg>
