<svg width="170" height="65" viewBox="0 0 170 65" fill="none" xmlns="http://www.w3.org/2000/svg">
<path d="M13.5103 55.2568C5.41843 55.2568 1.37248 52.7692 1.37248 47.794V45.5208C1.37248 40.5456 5.41843 38.058 13.5103 38.058H31.8672V38.0151C31.8672 37.1859 31.3239 36.5425 30.2374 36.085C29.1794 35.599 27.4352 35.3559 25.0048 35.3559H20.9732C20.3155 35.3559 19.8866 35.1844 19.6865 34.8412C19.4863 34.4695 19.3862 33.9263 19.3862 33.2114C19.3862 32.468 19.4863 31.9247 19.6865 31.5816C19.8866 31.2099 20.3155 31.024 20.9732 31.024H25.1764C33.2683 31.024 37.3142 33.5117 37.3142 38.4869V47.794C37.3142 52.7692 33.2683 55.2568 25.1764 55.2568H13.5103ZM25.0048 50.925C27.4067 50.925 29.1508 50.6247 30.2374 50.0243C31.3239 49.3952 31.8672 48.6518 31.8672 47.794V42.2183H13.6819C11.28 42.2183 9.53586 42.5185 8.44931 43.119C7.36277 43.7194 6.8195 44.4629 6.8195 45.3493V47.794C6.8195 48.6518 7.36277 49.3952 8.44931 50.0243C9.53586 50.6247 11.28 50.925 13.6819 50.925H25.0048ZM72.6213 30.8525C73.5363 30.8525 74.2083 30.9811 74.6372 31.2385C75.0946 31.4958 75.3234 32.0391 75.3234 32.8683V47.794C75.3234 52.7692 71.2774 55.2568 63.1855 55.2568H52.9349C44.843 55.2568 40.797 52.7692 40.797 47.794V32.8683C40.797 32.0391 41.0258 31.4958 41.4833 31.2385C41.9407 30.9811 42.627 30.8525 43.542 30.8525C44.457 30.8525 45.1289 30.9811 45.5578 31.2385C46.0153 31.4958 46.244 32.0391 46.244 32.8683V47.794C46.244 48.6804 46.7873 49.4238 47.8738 50.0243C48.9604 50.6247 50.7046 50.925 53.1064 50.925H63.014C65.4158 50.925 67.16 50.6247 68.2466 50.0243C69.3331 49.4238 69.8764 48.6804 69.8764 47.794V32.8683C69.8764 32.0391 70.1051 31.4958 70.5626 31.2385C71.0201 30.9811 71.7063 30.8525 72.6213 30.8525ZM93.4497 31.024C94.1074 31.024 94.522 31.2099 94.6935 31.5816C94.8937 31.9533 94.9938 32.4966 94.9938 33.2114C94.9938 33.9263 94.8937 34.4695 94.6935 34.8412C94.522 35.1844 94.1074 35.3559 93.4497 35.3559H90.1043C87.9884 35.3559 86.5159 35.6276 85.6867 36.1708C84.8575 36.7141 84.4429 37.4718 84.4429 38.444V53.4126C84.4429 54.2418 84.2141 54.785 83.7566 55.0424C83.2991 55.2997 82.6129 55.4284 81.6979 55.4284C80.7829 55.4284 80.0967 55.2997 79.6392 55.0424C79.2103 54.785 78.9958 54.2418 78.9958 53.4126V38.444C78.9958 35.9564 79.9394 34.0978 81.8266 32.8683C83.7423 31.6388 86.5016 31.024 90.1043 31.024H93.4497ZM102.323 45.6066V47.794C102.323 48.6518 102.866 49.3952 103.952 50.0243C105.039 50.6247 106.783 50.925 109.185 50.925H114.117C114.775 50.925 115.19 51.1108 115.361 51.4825C115.561 51.8256 115.661 52.3546 115.661 53.0695C115.661 53.7843 115.561 54.3276 115.361 54.6993C115.19 55.071 114.775 55.2568 114.117 55.2568H109.013C100.922 55.2568 96.8756 52.7692 96.8756 47.794V38.4869C96.8756 33.5117 100.922 31.024 109.013 31.024H118.921C123.21 31.024 126.298 31.6388 128.185 32.8683C130.101 34.0978 131.059 35.9707 131.059 38.4869V43.4192C131.059 44.2484 130.902 44.8203 130.587 45.1348C130.273 45.4493 129.572 45.6066 128.485 45.6066H102.323ZM102.323 41.3605H125.612V38.4869C125.612 37.4861 125.069 36.7141 123.982 36.1708C122.924 35.6276 121.18 35.3559 118.749 35.3559H109.185C106.783 35.3559 105.039 35.6561 103.952 36.2566C102.866 36.8571 102.323 37.6005 102.323 38.4869V41.3605ZM136.902 55.4284C135.987 55.4284 135.301 55.2997 134.843 55.0424C134.414 54.785 134.2 54.2418 134.2 53.4126V38.4869C134.2 33.5117 138.246 31.024 146.338 31.024H155.688C163.78 31.024 167.826 33.5117 167.826 38.4869V53.4126C167.826 54.2418 167.597 54.785 167.139 55.0424C166.682 55.2997 165.996 55.4284 165.081 55.4284C164.166 55.4284 163.479 55.2997 163.022 55.0424C162.593 54.785 162.379 54.2418 162.379 53.4126V38.4869C162.379 37.6005 161.835 36.8571 160.749 36.2566C159.662 35.6561 157.918 35.3559 155.516 35.3559H146.509C144.107 35.3559 142.363 35.6561 141.277 36.2566C140.19 36.8571 139.647 37.6005 139.647 38.4869V53.4126C139.647 54.2418 139.418 54.785 138.961 55.0424C138.503 55.2997 137.817 55.4284 136.902 55.4284Z" fill="#969798"/>
<path d="M114.457 12.2513L112.953 17.8296C112.337 20.1079 111.871 21.4342 111.554 21.8087C111.236 22.1894 110.392 22.4242 109.022 22.5131C109.72 21.5738 110.459 20.0888 111.239 18.0581C109.881 19.3527 108.482 20 107.042 20C105.582 20 104.373 19.5113 103.415 18.534C102.463 17.5504 101.987 16.3065 101.987 14.8025C101.987 12.391 103.012 10.2491 105.062 8.377C107.118 6.49854 109.466 5.55931 112.106 5.55931C113.864 5.55931 114.743 5.91152 114.743 6.61594C114.743 6.91421 114.438 7.41239 113.829 8.11046C113.765 8.18027 113.676 8.28498 113.562 8.4246C113.118 7.37114 112.207 6.8444 110.83 6.8444C108.983 6.8444 107.381 7.58056 106.023 9.05287C104.665 10.5252 103.986 12.264 103.986 14.2694C103.986 15.6148 104.329 16.6905 105.014 17.4964C105.706 18.3024 106.619 18.7054 107.755 18.7054C108.777 18.7054 109.669 18.3214 110.43 17.5536C111.192 16.7857 111.7 15.7544 111.953 14.4598L112.03 14.0505C110.069 14.0505 108.498 14.3202 107.318 14.8596C107.559 14.0473 107.847 13.5364 108.184 13.327C108.52 13.1112 109.294 12.9462 110.507 12.832L111.696 12.7368C112.636 12.6607 113.556 12.4988 114.457 12.2513ZM118.645 19.9334C118.214 20.1364 117.868 20.238 117.608 20.238C116.961 20.238 116.637 19.9524 116.637 19.3812C116.637 19.0893 116.751 18.3627 116.98 17.2013L117.456 14.8311C117.747 13.4222 117.893 12.3783 117.893 11.6992C117.893 11.3311 117.789 11.0234 117.579 10.7759C118.246 10.5474 118.788 10.4332 119.207 10.4332C119.651 10.4332 119.873 10.7156 119.873 11.2804C119.873 11.6294 119.715 12.5464 119.397 14.0314L118.855 16.8015C120.054 14.4725 121.26 12.6638 122.472 11.3756C123.691 10.0809 124.795 9.43364 125.785 9.43364C126.134 9.43364 126.435 9.53518 126.689 9.73825C126.943 9.93499 127.07 10.1761 127.07 10.4617C127.07 10.9059 126.588 11.4961 125.623 12.2323C125.382 11.7309 125.039 11.4803 124.595 11.4803C123.789 11.4803 122.761 12.337 121.511 14.0505C120.737 15.1166 120.064 16.2177 119.493 17.3537C118.922 18.4833 118.636 19.2892 118.636 19.7715L118.645 19.9334ZM135.504 14.1361C134.628 15.9448 133.651 17.4139 132.572 18.5436C131.493 19.6732 130.525 20.238 129.669 20.238C128.977 20.238 128.415 19.9937 127.984 19.505C127.552 19.0163 127.337 18.3817 127.337 17.6012C127.337 16.5985 127.673 14.7581 128.346 12.08C128.53 11.3565 128.622 10.8996 128.622 10.7092C128.622 10.5188 128.561 10.3126 128.441 10.0905L129.754 10.0809C130.319 10.0809 130.602 10.2999 130.602 10.7378C130.602 11.0107 130.418 11.7944 130.05 13.089C129.935 13.4761 129.862 13.7427 129.831 13.8886L129.688 14.4693C129.409 15.6307 129.269 16.516 129.269 17.1252C129.269 18.0644 129.593 18.534 130.24 18.534C131.3 18.534 132.645 17.2204 134.276 14.5931C135.609 12.4544 136.275 10.9313 136.275 10.0238C136.275 9.89691 136.237 9.76999 136.161 9.64306C136.681 9.4971 137.122 9.42412 137.484 9.42412C138.043 9.42412 138.322 9.59547 138.322 9.93816C138.322 10.0207 138.296 10.1412 138.246 10.2999C138.22 10.3951 138.16 10.6267 138.065 10.9948C138.052 11.0646 137.989 11.3216 137.874 11.7659C137.792 12.0768 137.732 12.3243 137.693 12.5084L137.598 12.9653C137.389 14.0124 137.284 14.9929 137.284 15.9067C137.284 17.3029 137.621 18.001 138.293 18.001C139.778 18.001 141.663 15.9067 143.948 11.7183L144.747 12.1942C142.145 17.2013 139.766 19.7049 137.608 19.7049C136.155 19.7049 135.428 18.4452 135.428 15.9258C135.428 15.4498 135.453 14.8533 135.504 14.1361ZM143.929 19.4098L143.234 22.9319C143.075 23.7252 142.996 24.4169 142.996 25.0071C142.996 25.3815 143.078 25.7211 143.243 26.0257C142.602 26.2351 142.114 26.3398 141.777 26.3398C141.251 26.3398 140.987 26.0415 140.987 25.445C140.987 24.9817 141.092 24.2234 141.301 23.1699L144.081 9.19566C143.529 9.30989 143.066 9.367 142.691 9.367C142.139 9.367 141.73 9.23691 141.463 8.97671C141.203 8.71018 140.993 8.21835 140.835 7.50123C141.298 7.81219 142.003 7.96767 142.948 7.96767C144.122 7.96767 145.252 7.75191 146.337 7.32037L145.604 10.9948C146.683 9.95402 147.8 9.43364 148.955 9.43364C149.964 9.43364 150.805 9.81758 151.477 10.5855C152.15 11.347 152.486 12.2989 152.486 13.4412C152.486 15.2245 151.868 16.7635 150.63 18.0581C149.393 19.3527 147.923 20 146.223 20C145.303 20 144.538 19.8033 143.929 19.4098ZM144.224 17.9343C144.865 18.6832 145.652 19.0576 146.584 19.0576C147.701 19.0576 148.65 18.588 149.431 17.6487C150.218 16.7095 150.611 15.5672 150.611 14.2218C150.611 13.2509 150.389 12.4639 149.945 11.861C149.501 11.2582 148.923 10.9567 148.212 10.9567C147.324 10.9567 146.359 11.4581 145.318 12.4608L144.224 17.9343ZM164.233 12.9843C164.252 13.1366 164.262 13.2731 164.262 13.3936C164.262 15.2277 163.64 16.8269 162.396 18.1913C161.152 19.5558 159.696 20.238 158.027 20.238C156.751 20.238 155.71 19.8318 154.904 19.0195C154.105 18.2009 153.705 17.1411 153.705 15.8401C153.705 14.3614 154.222 13.0795 155.256 11.9943C156.297 10.9091 157.522 10.3665 158.931 10.3665C159.147 10.3665 159.375 10.3951 159.616 10.4522C159.458 10.1666 159.378 9.92547 159.378 9.72874C159.378 9.42412 159.483 9.1322 159.692 8.85296C161.241 8.97989 162.529 9.77316 163.557 11.2328C164.611 11.9499 165.709 12.3085 166.851 12.3085C167.593 12.3085 168.396 12.0578 169.259 11.5564L169.735 12.3656C168.726 13.07 167.692 13.4222 166.632 13.4222C165.928 13.4222 165.128 13.2762 164.233 12.9843ZM162.072 12.1752C161.546 12.0165 161.06 11.7627 160.616 11.4136C160.292 11.3438 160.022 11.3089 159.807 11.3089C158.728 11.3089 157.77 11.7944 156.932 12.7654C156.101 13.7363 155.685 14.8437 155.685 16.0876C155.685 16.9887 155.936 17.7312 156.437 18.3151C156.945 18.8926 157.595 19.1813 158.388 19.1813C159.461 19.1813 160.384 18.6419 161.158 17.5631C161.933 16.4779 162.32 15.1864 162.32 13.6887C162.32 13.1684 162.237 12.6638 162.072 12.1752Z" fill="#969798"/>
</svg>
