<svg width="170" height="90" viewBox="0 0 170 90" fill="none" xmlns="http://www.w3.org/2000/svg">
<path d="M10.353 49.8903C10.2859 50.293 10.1181 50.5615 9.88311 50.7294C9.64816 50.8636 9.11114 50.9307 8.33918 50.9307H8.03711V51.5013L10.2523 51.5684H10.6886L12.199 51.602L13.1052 51.6356L13.6422 51.6691C14.5484 51.6691 15.354 51.602 16.0924 51.5013C16.6965 51.4006 17.2335 51.2664 17.6699 51.065C19.3145 50.4273 20.12 49.3197 20.12 47.6415C20.12 46.5339 19.7172 45.6277 18.9788 44.9564C18.5089 44.5201 17.8377 44.218 17.0657 43.9831C16.9315 43.9495 16.8308 43.8824 16.6629 43.8488C16.3944 43.7817 16.0924 43.7146 15.7903 43.681C16.0924 43.6139 16.3944 43.5803 16.6629 43.5132C16.7972 43.4796 16.8979 43.4125 17.0657 43.3789C17.8377 43.144 18.5089 42.8083 18.9788 42.4056C19.7172 41.7343 20.12 40.8617 20.12 39.7205C20.12 38.0759 19.2809 36.9347 17.6699 36.297C17.2 36.1292 16.6965 35.9949 16.0924 35.8607C15.354 35.76 14.5484 35.6929 13.6422 35.6929L13.1052 35.7264L12.199 35.76L10.6886 35.7936H10.2523L8.03711 35.8607V36.4313H8.33918C9.14471 36.4313 9.68172 36.4984 9.88311 36.6327C10.1181 36.7669 10.2859 37.069 10.353 37.4717C10.4201 37.8745 10.4537 38.7807 10.4537 40.1568V47.2052C10.4872 48.6148 10.4201 49.4875 10.353 49.8903ZM12.8031 43.2782V39.4856V36.3641C12.8367 36.3641 12.8703 36.3641 12.9038 36.3641C13.1723 36.3306 13.4744 36.3306 13.7429 36.3306C14.8505 36.3306 15.6225 36.4313 16.0924 36.6662C16.1259 36.6662 16.1595 36.6998 16.1931 36.6998C16.6965 36.9347 17.0321 37.3375 17.3007 37.8409C17.5356 38.3444 17.6363 39.0157 17.6363 39.9219C17.6363 41.1973 17.3342 42.1035 16.7301 42.7077C16.6294 42.8083 16.4951 42.8755 16.3944 42.9426C16.3273 42.9762 16.2266 43.0433 16.1259 43.0769C15.4547 43.3789 14.5484 43.5803 13.3066 43.5803C13.1723 43.5803 13.0381 43.5803 12.8031 43.5803V43.2782ZM12.8031 47.91V44.1173V43.9159C13.0045 43.9159 13.1388 43.9159 13.3066 43.9159C14.5484 43.9159 15.4547 44.0838 16.1259 44.4194C16.2266 44.453 16.3273 44.4865 16.3944 44.5537C16.5287 44.6208 16.6294 44.6879 16.7301 44.7886C17.3342 45.3592 17.6363 46.2654 17.6363 47.5744C17.6363 48.447 17.5356 49.1519 17.3007 49.6553C17.0657 50.1588 16.6965 50.4944 16.1931 50.7965C16.1595 50.83 16.1259 50.83 16.0924 50.83C15.5889 51.0314 14.817 51.1657 13.7429 51.1657C13.4744 51.1657 13.1723 51.1657 12.9038 51.1321C12.8703 51.1321 12.8367 51.1321 12.8031 51.1321V47.91Z" fill="#969798"/>
<path d="M44.4872 30.0538V28.9462L40.3588 28.8791L39.5869 28.8456L35.0222 28.7113L34.0489 28.6777C30.9275 28.6777 28.4102 29.0805 26.4635 29.8189C26.2957 29.886 26.1279 29.9532 25.9601 30.0538C25.7923 29.9867 25.658 29.886 25.4566 29.8189C23.5099 29.0805 21.0262 28.6777 17.8712 28.6777L16.8979 28.7113L12.3333 28.8456L11.5613 28.8791L7.43298 28.9798V30.0874H8.00356C9.51392 30.0874 10.4873 30.2217 10.9236 30.5237C11.3935 30.7922 11.662 31.3293 11.7962 32.0677C11.8969 32.6047 11.9305 33.5445 11.9641 34.887L12.971 34.8534L13.5751 34.8199C14.582 34.8199 15.4882 34.887 16.2938 35.0212V29.886C16.3609 29.886 16.3945 29.886 16.4616 29.886C16.9986 29.8525 17.502 29.8189 18.0391 29.8189C20.2207 29.8189 21.7646 30.0538 22.6708 30.5573C23.1072 30.7587 23.4428 31.0607 23.7784 31.3628C22.4359 32.5711 21.7311 34.1822 21.7311 36.2295C21.7311 38.3105 22.4359 39.9887 23.8456 41.2305C23.8791 41.2641 23.9463 41.2976 24.0134 41.3648C23.9127 41.499 23.7784 41.6333 23.6777 41.7675C23.5099 41.9353 23.2414 42.0696 23.0065 42.2374C21.7982 42.9758 18.8782 43.5128 18.7103 43.5464C18.4083 43.58 18.1062 43.6471 17.737 43.7142C18.0726 43.7813 18.4083 43.8485 18.7103 43.9156C18.8446 43.9492 21.7646 44.4862 23.0065 45.2246C23.2414 45.3588 23.5099 45.4931 23.6777 45.6945C23.812 45.7952 23.9127 45.9294 24.0134 46.0972C23.9463 46.1308 23.9127 46.1644 23.8456 46.2315C22.4359 47.5069 21.7311 49.1515 21.7311 51.2325C21.7311 53.2798 22.4023 54.8573 23.7449 56.0992C23.4428 56.4012 23.0736 56.7033 22.6373 56.9047C21.7311 57.4082 20.1871 57.6431 18.0055 57.6431C17.4685 57.6431 16.9986 57.6095 16.428 57.576C16.3609 57.576 16.3273 57.576 16.2602 57.576V52.4407C15.4547 52.575 14.582 52.6421 13.5415 52.6421L12.9374 52.6086L11.9305 52.575C11.8969 53.9175 11.8298 54.8909 11.7627 55.3943C11.6284 56.1663 11.3264 56.6698 10.89 56.9383C10.4537 57.2068 9.48036 57.3746 7.96999 57.3746H7.39941V58.4822L11.5277 58.5829L12.2997 58.6164L16.8643 58.7507L17.8377 58.7843C20.9591 58.7843 23.4764 58.3815 25.4231 57.6431C25.5909 57.576 25.7587 57.5088 25.9265 57.4082C26.0943 57.4753 26.2286 57.576 26.43 57.6431C28.3766 58.3815 30.8604 58.7843 34.0153 58.7843L34.9887 58.7507L39.5533 58.6164L40.3253 58.5829L44.4536 58.4822V57.3746H43.883C42.3727 57.3746 41.3993 57.2403 40.963 56.9383C40.4931 56.6698 40.2246 56.1327 40.0903 55.3943C39.9896 54.8573 39.9561 53.9175 39.9225 52.575L38.9156 52.6086L38.3115 52.6421C37.3046 52.6421 36.3983 52.575 35.5928 52.4407V57.576C35.5257 57.576 35.4921 57.576 35.425 57.576C34.888 57.6095 34.3845 57.6431 33.8475 57.6431C31.6659 57.6431 30.122 57.4082 29.2157 56.9047C28.7794 56.7033 28.4438 56.4012 28.1081 56.0992C29.4507 54.8909 30.122 53.2798 30.122 51.2325C30.122 49.1515 29.4171 47.4733 28.0074 46.2315C27.9739 46.1979 27.9068 46.1644 27.8396 46.0972C27.9403 45.963 28.0746 45.8287 28.1753 45.6945C28.3431 45.5266 28.6116 45.3924 28.8465 45.2246C30.0548 44.4862 32.9749 43.9492 33.1427 43.9156C33.4447 43.8485 33.7804 43.7813 34.116 43.7142C33.7804 43.6471 33.4447 43.58 33.1427 43.5128C33.0084 43.4793 30.0884 42.9423 28.8465 42.2039C28.6116 42.0696 28.3431 41.9353 28.1753 41.734C28.041 41.6333 27.9403 41.499 27.8396 41.3312C27.9068 41.2976 27.9403 41.2641 28.0074 41.1969C29.4171 39.9215 30.122 38.2769 30.122 36.196C30.122 34.1486 29.4507 32.5711 28.1081 31.3293C28.4102 31.0272 28.7794 30.7251 29.2157 30.5237C30.122 30.0203 31.6659 29.7853 33.8475 29.7853C34.3845 29.7853 34.8544 29.8189 35.425 29.8525C35.4921 29.8525 35.5257 29.8525 35.5928 29.8525V34.9877C36.3983 34.8534 37.271 34.7863 38.3115 34.7863L38.9156 34.8199L39.9225 34.8534C39.9561 33.5109 40.0232 32.5375 40.0903 32.0341C40.2246 31.2621 40.5267 30.7587 40.963 30.4902C41.4329 30.2217 42.3727 30.0538 43.883 30.0538H44.4872ZM28.4773 51.0982C28.4773 53.112 27.3026 54.7231 25.8929 54.7231C24.4833 54.7231 23.3085 53.112 23.3085 51.0982C23.3085 49.0844 24.4833 47.4733 25.8929 47.4733C27.3026 47.4733 28.4773 49.0844 28.4773 51.0982ZM28.1753 43.345C28.7123 43.4793 29.2829 43.58 29.8199 43.6806C29.2493 43.7813 28.6452 43.882 28.1753 44.0163C27.3362 44.2177 26.5978 44.5197 25.9265 44.8218C25.2552 44.5197 24.5168 44.2177 23.6777 44.0163C23.1407 43.882 22.5701 43.7813 22.0331 43.6806C22.6037 43.58 23.2079 43.4793 23.6777 43.345C24.5168 43.1436 25.2552 42.8416 25.9265 42.5395C26.5978 42.8416 27.3362 43.1101 28.1753 43.345ZM28.4773 36.196C28.4773 38.2098 27.3026 39.8208 25.8929 39.8208C24.4833 39.8208 23.3085 38.2098 23.3085 36.196C23.3085 34.1822 24.5168 32.5711 25.9265 32.5711C27.3362 32.5711 28.4773 34.1822 28.4773 36.196Z" fill="#969798"/>
<path d="M41.4672 37.5049C41.5343 37.1022 41.7021 36.8337 41.9371 36.6659C42.172 36.5316 42.709 36.4645 43.481 36.4645H43.7831V35.8939L41.5679 35.8268H41.1316L39.6212 35.7932L38.715 35.7596L38.178 35.7261C37.2717 35.7261 36.4662 35.7932 35.7278 35.8939C35.1237 35.9946 34.5867 36.1288 34.1503 36.3302C32.5057 36.9679 31.7002 38.0755 31.7002 39.7537C31.7002 40.8613 32.103 41.7675 32.8414 42.4388C33.3112 42.8751 33.9825 43.1772 34.7545 43.4121C34.8887 43.4457 34.9894 43.5128 35.1572 43.5464C35.4258 43.6135 35.7278 43.6806 36.0299 43.7142C35.7278 43.7813 35.4258 43.8149 35.1572 43.882C35.023 43.9156 34.9223 43.9827 34.7545 44.0163C33.9825 44.2512 33.3112 44.5869 32.8414 44.9896C32.103 45.6609 31.7002 46.5335 31.7002 47.6747C31.7002 49.3193 32.5393 50.4605 34.1503 51.0982C34.6202 51.266 35.1237 51.4003 35.7278 51.5345C36.4662 51.6352 37.2717 51.7023 38.178 51.7023L38.715 51.6688L39.6212 51.6352L41.1316 51.6016H41.5679L43.7831 51.5345V50.9639H43.481C42.6755 50.9639 42.1385 50.8968 41.9371 50.7626C41.7021 50.6283 41.5343 50.3262 41.4672 49.9235C41.4001 49.5207 41.3665 48.6145 41.3665 47.2384V40.19C41.3665 38.7804 41.4001 37.9077 41.4672 37.5049ZM39.0842 44.117V47.9096V51.0311C39.0506 51.0311 39.0171 51.0311 38.9835 51.0311C38.715 51.0646 38.4129 51.0646 38.1444 51.0646C37.0368 51.0646 36.2648 50.9639 35.795 50.729C35.7614 50.729 35.7278 50.6954 35.6943 50.6954C35.1908 50.4269 34.8552 50.0577 34.5867 49.5543C34.3517 49.0508 34.251 48.3795 34.251 47.4733C34.251 46.1979 34.5531 45.2917 35.1572 44.6875C35.2579 44.5869 35.3922 44.5197 35.4929 44.4526C35.56 44.419 35.6607 44.3519 35.7614 44.3183C36.4327 44.0163 37.3389 43.8149 38.5807 43.8149C38.715 43.8149 38.8492 43.8149 39.0842 43.8149V44.117ZM39.0842 39.4852V43.3114V43.5128C38.8828 43.5128 38.7485 43.5128 38.5807 43.5128C37.3389 43.5128 36.4327 43.345 35.7614 43.0094C35.6607 42.9758 35.56 42.9422 35.4929 42.8751C35.3586 42.808 35.2579 42.7409 35.1572 42.6402C34.5531 42.0696 34.251 41.1634 34.251 39.8544C34.251 38.9817 34.3517 38.2769 34.5867 37.7735C34.8216 37.27 35.1908 36.9344 35.6943 36.6323C35.7278 36.5987 35.7614 36.5987 35.795 36.5987C36.2984 36.3973 37.0704 36.2631 38.1444 36.2631C38.4129 36.2631 38.715 36.2631 38.9835 36.2967C39.0171 36.2967 39.0506 36.2967 39.0842 36.2967V39.4852Z" fill="#969798"/>
<path d="M57.7765 46.8694H50.124V28.6108H57.4744C61.0322 28.6108 63.1131 30.6247 63.1131 33.7461C63.1131 35.7934 61.7706 37.1024 60.8644 37.5387C61.972 38.0422 63.3816 39.2169 63.3816 41.6671C63.3481 45.0234 60.9986 46.8694 57.7765 46.8694ZM57.1388 31.7658H53.6482V35.9948H57.1388C58.6827 35.9948 59.4883 35.1557 59.4883 33.8803C59.4883 32.6049 58.6827 31.7658 57.1388 31.7658ZM57.4073 39.1834H53.6818V43.6473H57.4073C59.0184 43.6473 59.8239 42.6404 59.8239 41.3986C59.7568 40.1903 59.0184 39.1834 57.4073 39.1834Z" fill="#969798"/>
<path d="M74.6934 46.8694V28.6108H86.7427V31.7658H78.2511V36.062H85.4673V39.2169H78.2511V43.6473H86.7427V46.8023H74.6934V46.8694Z" fill="#969798"/>
<path d="M97.9193 46.8694V28.6108H101.477V43.6809H109.767V46.8359H97.8857V46.8694H97.9193Z" fill="#969798"/>
<path d="M133.329 46.8694V36.1962L129.838 43.1439H127.422L123.898 36.2298V46.903H120.34V28.6108H123.864L128.63 38.4785L133.363 28.6108H136.887V46.8694H133.329Z" fill="#969798"/>
<path d="M159.24 46.8694L158.132 43.6138H151.654L150.547 46.8694H146.821L153.467 28.6108H156.286L162.932 46.8694H159.24ZM154.977 33.981L152.695 40.6266H157.26L154.977 33.981Z" fill="#969798"/>
<path d="M55.2593 54.3875C55.7963 54.4882 56.2326 54.7232 56.5682 55.0252C56.9039 55.3609 57.0717 55.7301 57.0717 56.2C57.0717 56.5692 56.971 56.9384 56.7696 57.274C56.5682 57.6096 56.2662 57.8781 55.897 58.0795C55.5278 58.2809 55.125 58.4152 54.6887 58.4487C54.2523 58.4823 53.6482 58.5159 52.8427 58.5159H50.124L50.1911 58.2473H50.3925C50.6275 58.2473 50.8289 58.2138 50.9967 58.1131C51.1645 58.0124 51.2652 57.9117 51.3323 57.811C51.3994 57.7103 51.5001 57.4418 51.6008 57.0726L53.1112 52.0381C53.2119 51.6353 53.279 51.4004 53.279 51.2997C53.279 51.0312 53.0441 50.8969 52.5406 50.8969H52.3728L52.4399 50.6284H54.9572C55.3935 50.6284 55.7627 50.662 55.9976 50.6955C56.2326 50.7291 56.5011 50.8298 56.7696 50.9976C57.0381 51.1654 57.2395 51.3668 57.3738 51.6018C57.508 51.8367 57.5751 52.1052 57.5751 52.3737C57.5751 52.8436 57.3738 53.2799 56.971 53.6491C56.6689 54.0183 56.0648 54.2533 55.2593 54.3875ZM53.4804 54.5218L52.6413 57.274C52.5742 57.5089 52.5406 57.6768 52.5406 57.7775C52.5406 58.1131 52.9098 58.3145 53.6818 58.3145C54.4537 58.3145 55.0243 58.0795 55.4271 57.6096C55.8298 57.1397 56.0312 56.5692 56.0312 55.8643C56.0312 55.5287 55.9305 55.2602 55.7627 55.0252C55.5949 54.8239 55.3935 54.6896 55.1921 54.6225C54.9572 54.5554 54.6215 54.5218 54.1181 54.5218H53.4804ZM53.5475 54.2533H54.1517C54.7222 54.2533 55.1921 54.1862 55.5278 54.0183C55.8634 53.8505 56.1319 53.6156 56.3333 53.2799C56.5347 52.9443 56.6354 52.5751 56.6354 52.1388C56.6354 51.8367 56.5682 51.5682 56.4004 51.3668C56.2326 51.1654 56.0648 51.0312 55.897 50.9641C55.6956 50.8969 55.4271 50.8969 55.0243 50.8969H54.588L53.5475 54.2533Z" fill="#969798"/>
<path d="M58.1465 57.0053C58.1465 56.5354 58.2472 56.0319 58.4821 55.4949C58.6835 54.9579 59.0191 54.488 59.4219 54.1524C59.8247 53.8167 60.2274 53.6489 60.5966 53.6489C60.9323 53.6489 61.2343 53.7832 61.4357 54.0853C61.6707 54.3873 61.7714 54.7901 61.7714 55.26C61.7714 55.8641 61.6371 56.4347 61.4022 56.9717C61.1672 57.5087 60.8316 57.9451 60.4624 58.2136C60.0932 58.5156 59.724 58.6499 59.3548 58.6499C59.0191 58.6499 58.7506 58.5156 58.5157 58.2807C58.2472 58.0458 58.1465 57.643 58.1465 57.0053ZM58.7506 57.6766C58.7506 57.8779 58.8178 58.0793 58.9184 58.2136C59.0191 58.3478 59.187 58.4485 59.3548 58.4485C59.8582 58.4485 60.2946 57.9451 60.6302 56.9717C60.9658 55.9984 61.1336 55.2264 61.1336 54.723C61.1336 54.4545 61.0665 54.2531 60.9658 54.1188C60.8651 53.9846 60.6973 53.9174 60.4959 53.9174C60.026 53.9174 59.5897 54.3873 59.2541 55.2935C58.952 56.1998 58.7506 57.0053 58.7506 57.6766Z" fill="#969798"/>
<path d="M67.0399 57.3415H67.2749C66.9392 58.2477 66.5029 58.7176 65.9323 58.7176C65.7309 58.7176 65.5967 58.6505 65.496 58.5498C65.3953 58.4491 65.3617 58.2813 65.3617 58.0799C65.3617 57.7778 65.4624 57.3079 65.6638 56.6702C64.9925 58.0463 64.3213 58.7176 63.65 58.7176C63.4151 58.7176 63.2137 58.6505 63.0794 58.4827C62.9452 58.3149 62.878 58.147 62.878 57.9121C62.878 57.6771 62.9787 57.3415 63.1465 56.8045L63.8514 54.7236C63.9521 54.4215 64.0192 54.2201 64.0192 54.153C64.0192 54.0523 63.9856 53.9852 63.8514 53.9852C63.6164 53.9852 63.3479 54.3208 63.0459 54.9585H62.7773C62.9452 54.5557 63.1465 54.2201 63.3815 53.9516C63.65 53.6831 63.8849 53.5488 64.1199 53.5488C64.2877 53.5488 64.3884 53.5824 64.5226 53.6831C64.6233 53.7838 64.6905 53.918 64.6905 54.1194C64.6905 54.2537 64.6233 54.5222 64.4891 54.9249L63.7507 57.073C63.6164 57.4758 63.5493 57.7778 63.5493 57.9121C63.5493 58.0463 63.5829 58.1135 63.6164 58.1806C63.6836 58.2477 63.7507 58.2813 63.8514 58.2813C64.187 58.2813 64.5898 57.9121 65.0597 57.2073C65.5296 56.4689 65.9659 55.3948 66.4022 53.9852L66.5029 53.6495H67.2077L66.2008 57.0059C66.033 57.5429 65.9659 57.8785 65.9659 57.9792C65.9659 58.0799 65.9994 58.147 66.033 58.1806C66.0666 58.2142 66.1337 58.2477 66.2008 58.2477C66.5029 58.3149 66.7714 57.9792 67.0399 57.3415Z" fill="#969798"/>
<path d="M71.0676 53.7836L71.0005 54.0521H70.0943L69.3223 56.603C69.0538 57.4421 68.9531 57.9119 68.9531 58.0462C68.9531 58.1469 68.9867 58.214 69.0203 58.2476C69.0538 58.2811 69.121 58.3147 69.1881 58.3147C69.3223 58.3147 69.5237 58.1805 69.7251 57.9119C69.96 57.6434 70.1614 57.3078 70.3292 56.905H70.5978C70.3628 57.4756 70.0943 57.9119 69.7922 58.214C69.4902 58.5161 69.2216 58.6839 68.9531 58.6839C68.7518 58.6839 68.5839 58.6168 68.4832 58.4825C68.349 58.3483 68.3154 58.1805 68.3154 57.9455C68.3154 57.7777 68.4497 57.2742 68.6846 56.5023L69.423 54.0186H68.6175L68.6846 53.7501H69.4902L70.0272 51.9712H70.732L70.195 53.7501L71.0676 53.7836Z" fill="#969798"/>
<path d="M73.4502 57.2742H73.7187C73.5509 57.6434 73.2824 57.9791 73.0139 58.2811C72.7118 58.5832 72.4433 58.7175 72.1748 58.7175C72.007 58.7175 71.8391 58.6503 71.7049 58.5161C71.5706 58.3818 71.5035 58.1805 71.5035 57.9455C71.5035 57.7441 71.6042 57.3414 71.8391 56.7708L72.5104 54.9919C72.6782 54.5892 72.7453 54.3206 72.7453 54.22C72.7453 54.1528 72.7118 54.0857 72.6782 54.0521C72.6447 54.0186 72.5775 53.985 72.5104 53.985C72.3426 53.985 72.1748 54.1193 71.9734 54.3206C71.772 54.5556 71.6042 54.757 71.5371 54.9584H71.2686C71.4699 54.522 71.7384 54.1864 72.007 53.9514C72.2755 53.7165 72.544 53.5822 72.7789 53.5822C72.9467 53.5822 73.1146 53.6494 73.2152 53.7836C73.3159 53.9179 73.3831 54.0857 73.3831 54.2871C73.3831 54.4885 73.2824 54.8577 73.081 55.4282L72.5104 56.9386C72.309 57.4756 72.2083 57.8448 72.2083 57.9791C72.2083 58.0798 72.2419 58.1805 72.2755 58.2476C72.309 58.3147 72.3762 58.3483 72.4768 58.3483C72.7118 58.3147 73.0474 57.9455 73.4502 57.2742ZM73.0139 51.065C73.0139 50.9307 73.0474 50.7965 73.1481 50.6958C73.2488 50.5951 73.3495 50.5615 73.5173 50.5615C73.6516 50.5615 73.7858 50.5951 73.8865 50.6958C73.9872 50.7965 74.0208 50.8972 74.0208 51.065C74.0208 51.1992 73.9872 51.3335 73.8865 51.4342C73.7858 51.5349 73.6851 51.602 73.5173 51.602C73.3831 51.602 73.2488 51.5349 73.1481 51.4342C73.0474 51.3335 73.0139 51.1992 73.0139 51.065Z" fill="#969798"/>
<path d="M78.2838 53.6831H78.9886L76.9748 60.3622C76.8741 60.6307 76.8406 60.7986 76.8406 60.8657C76.8406 60.9664 76.8741 61.0335 76.9748 61.0671C77.0419 61.1006 77.2098 61.1006 77.4447 61.1006H77.6125L77.5454 61.3691H75.1959L75.2631 61.1006H75.3973C75.733 61.1006 75.9008 61.0671 76.0015 61.0335C76.0686 60.9999 76.1693 60.765 76.3371 60.2951L77.1091 57.7443C76.6392 58.382 76.1693 58.6841 75.6658 58.6841C75.3973 58.6841 75.1288 58.5498 74.9274 58.3149C74.7261 58.0799 74.5918 57.7107 74.5918 57.2408C74.5918 56.7709 74.7261 56.2339 75.0281 55.5962C75.2966 54.9921 75.6994 54.4886 76.1693 54.1194C76.6392 53.7502 77.0419 53.5488 77.3776 53.5488C77.579 53.5488 77.7803 53.616 77.9146 53.7166C78.0488 53.8509 78.1495 53.9852 78.1831 54.1865L78.2838 53.6831ZM77.6796 55.6298C77.8475 55.0928 77.9146 54.7571 77.9146 54.5557C77.9146 54.3544 77.8475 54.2201 77.7468 54.0858C77.6461 53.9516 77.5118 53.8845 77.344 53.8845C77.0755 53.8845 76.807 54.0523 76.5049 54.3879C76.2029 54.7236 75.9008 55.227 75.6323 55.9318C75.3638 56.6367 75.2295 57.2408 75.2295 57.7107C75.2295 57.9457 75.2631 58.147 75.3638 58.2813C75.4645 58.4155 75.5651 58.4827 75.733 58.4827C75.9679 58.4827 76.27 58.3149 76.6392 57.9792C76.9748 57.6436 77.3104 56.9723 77.6125 55.999L77.6796 55.6298Z" fill="#969798"/>
<path d="M83.9901 57.3415H84.2251C83.8894 58.2477 83.4531 58.7176 82.8825 58.7176C82.6811 58.7176 82.5469 58.6505 82.4462 58.5498C82.3455 58.4491 82.3119 58.2813 82.3119 58.0799C82.3119 57.7778 82.4126 57.3079 82.614 56.6702C81.9427 58.0463 81.2715 58.7176 80.6002 58.7176C80.3652 58.7176 80.1639 58.6505 80.0296 58.4827C79.8954 58.3149 79.8282 58.147 79.8282 57.9121C79.8282 57.6771 79.9289 57.3415 80.0967 56.8045L80.8016 54.7236C80.9023 54.4215 80.9694 54.2201 80.9694 54.153C80.9694 54.0523 80.9358 53.9852 80.8016 53.9852C80.5666 53.9852 80.2981 54.3208 79.996 54.9585H79.7275C79.8954 54.5557 80.0967 54.2201 80.3317 53.9516C80.6002 53.6831 80.8351 53.5488 81.0701 53.5488C81.2379 53.5488 81.3386 53.5824 81.4728 53.6831C81.5735 53.7838 81.6407 53.918 81.6407 54.1194C81.6407 54.2537 81.5735 54.5222 81.4393 54.9249L80.7009 57.073C80.5666 57.4758 80.4995 57.7778 80.4995 57.9121C80.4995 58.0463 80.5331 58.1135 80.5666 58.1806C80.6338 58.2477 80.7009 58.2813 80.8016 58.2813C81.1372 58.2813 81.54 57.9121 82.0099 57.2073C82.4798 56.4689 82.9161 55.3948 83.3524 53.9852L83.4531 53.6495H84.1579L83.151 57.0059C82.9832 57.5429 82.9161 57.8785 82.9161 57.9792C82.9161 58.0799 82.9496 58.147 82.9832 58.1806C83.0168 58.2142 83.0839 58.2477 83.151 58.2477C83.4531 58.3149 83.7552 57.9792 83.9901 57.3415Z" fill="#969798"/>
<path d="M87.7157 57.0726H87.9842C87.4808 58.1802 86.8431 58.7173 86.0711 58.7173C85.769 58.7173 85.5005 58.6166 85.2991 58.3816C85.0978 58.1467 84.9971 57.8446 84.9971 57.4754C84.9971 57.0055 85.1313 56.4349 85.3998 55.8308C85.6683 55.2266 86.0375 54.6896 86.5074 54.2533C86.9773 53.817 87.3801 53.582 87.7493 53.582C87.9507 53.582 88.1185 53.6492 88.2527 53.7834C88.3534 53.9177 88.4206 54.0855 88.4206 54.2869C88.4206 54.6896 88.2192 55.0924 87.7828 55.4952C87.3801 55.8979 86.7424 56.2671 85.9033 56.6028C85.8026 56.9384 85.7355 57.274 85.7355 57.5761C85.7355 57.811 85.769 58.0124 85.8697 58.1467C85.9704 58.2809 86.1047 58.3481 86.3061 58.3481C86.8431 58.3816 87.313 57.9453 87.7157 57.0726ZM85.9704 56.3678C86.4739 56.1329 86.9102 55.8308 87.313 55.428C87.7157 55.0253 87.9171 54.6896 87.9171 54.354C87.9171 54.2197 87.8835 54.0855 87.8164 54.0184C87.7493 53.9512 87.6822 53.9177 87.5479 53.9177C87.313 53.9177 87.0445 54.1526 86.7088 54.5889C86.4403 55.0588 86.1718 55.6294 85.9704 56.3678Z" fill="#969798"/>
<path d="M96.7778 54.3875C97.3148 54.4882 97.7511 54.7232 98.0868 55.0252C98.4224 55.3609 98.5902 55.7301 98.5902 56.2C98.5902 56.5692 98.4895 56.9384 98.2882 57.274C98.0868 57.6096 97.7847 57.8781 97.4155 58.0795C97.0463 58.2809 96.6435 58.4152 96.2072 58.4487C95.7709 58.4823 95.1667 58.5159 94.3612 58.5159H91.6426L91.7097 58.2473H91.9111C92.146 58.2473 92.3474 58.2138 92.5152 58.1131C92.683 58.0124 92.7837 57.9117 92.8509 57.811C92.918 57.7103 93.0187 57.4418 93.1194 57.0726L94.6297 52.0381C94.7304 51.6353 94.7976 51.4004 94.7976 51.2997C94.7976 51.0312 94.5626 50.8969 94.0591 50.8969H93.8913L93.9585 50.6284H96.4757C96.9121 50.6284 97.2813 50.662 97.5162 50.6955C97.7847 50.7291 98.0197 50.8298 98.2882 50.9976C98.5567 51.1654 98.758 51.3668 98.8923 51.6018C99.0266 51.8367 99.0937 52.1052 99.0937 52.3737C99.0937 52.8436 98.8923 53.2799 98.4895 53.6491C98.221 54.0183 97.6169 54.2533 96.7778 54.3875ZM94.9989 54.5218L94.1598 57.274C94.0927 57.5089 94.0591 57.6768 94.0591 57.7775C94.0591 58.1131 94.4283 58.3145 95.2003 58.3145C95.9723 58.3145 96.5429 58.0795 96.9456 57.6096C97.3484 57.1397 97.5498 56.5692 97.5498 55.8643C97.5498 55.5287 97.4491 55.2602 97.2813 55.0252C97.1134 54.8239 96.9121 54.6896 96.7107 54.6225C96.4757 54.5554 96.1401 54.5218 95.6366 54.5218H94.9989ZM95.0996 54.2533H95.7038C96.2743 54.2533 96.7442 54.1862 97.0799 54.0183C97.4155 53.8505 97.684 53.6156 97.8854 53.2799C98.0868 52.9443 98.1875 52.5751 98.1875 52.1388C98.1875 51.8367 98.1203 51.5682 97.9525 51.3668C97.7847 51.1654 97.6169 51.0312 97.4491 50.9641C97.2813 50.8969 96.9792 50.8969 96.5764 50.8969H96.1401L95.0996 54.2533Z" fill="#969798"/>
<path d="M102.248 57.0726H102.516C102.013 58.1802 101.375 58.7173 100.603 58.7173C100.301 58.7173 100.033 58.6166 99.8314 58.3816C99.63 58.1467 99.5293 57.8446 99.5293 57.4754C99.5293 57.0055 99.6635 56.4349 99.9321 55.8308C100.201 55.2266 100.57 54.6896 101.04 54.2533C101.51 53.817 101.912 53.582 102.282 53.582C102.483 53.582 102.651 53.6492 102.785 53.7834C102.886 53.9177 102.953 54.0855 102.953 54.2869C102.953 54.6896 102.751 55.0924 102.315 55.4952C101.912 55.8979 101.275 56.2671 100.436 56.6028C100.335 56.9384 100.268 57.274 100.268 57.5761C100.268 57.811 100.301 58.0124 100.402 58.1467C100.503 58.2809 100.637 58.3481 100.838 58.3481C101.375 58.3816 101.845 57.9453 102.248 57.0726ZM100.536 56.3678C101.04 56.1329 101.476 55.8308 101.879 55.428C102.282 55.0253 102.483 54.6896 102.483 54.354C102.483 54.2197 102.449 54.0855 102.382 54.0184C102.315 53.9512 102.248 53.9177 102.114 53.9177C101.879 53.9177 101.61 54.1526 101.275 54.5889C100.973 55.0588 100.704 55.6294 100.536 56.3678Z" fill="#969798"/>
<path d="M107.686 57.4754H107.955C107.787 57.7774 107.552 58.0795 107.283 58.3145C107.015 58.5494 106.78 58.6837 106.545 58.6837C106.344 58.6837 106.176 58.6165 106.075 58.4823C105.974 58.348 105.907 58.1802 105.907 57.9453C105.907 57.8446 105.907 57.7439 105.941 57.6432C105.404 58.348 104.867 58.6837 104.397 58.6837C104.128 58.6837 103.893 58.583 103.726 58.348C103.524 58.1466 103.457 57.811 103.457 57.4082C103.457 56.8377 103.625 56.2335 103.927 55.5958C104.229 54.9581 104.632 54.4546 105.068 54.0854C105.504 53.7162 105.907 53.5484 106.276 53.5484C106.444 53.5484 106.612 53.582 106.713 53.6827C106.847 53.7498 106.948 53.8841 107.015 54.0519L107.72 51.7024C107.82 51.4339 107.854 51.2661 107.854 51.199C107.854 51.0983 107.82 51.0312 107.787 50.9976C107.72 50.964 107.619 50.9305 107.384 50.9305H107.216L107.283 50.6955C107.854 50.6955 108.29 50.6284 108.626 50.4941H108.76L106.881 56.6363C106.646 57.4082 106.545 57.8446 106.545 57.9788C106.545 58.0795 106.578 58.1466 106.612 58.1802C106.646 58.2138 106.713 58.2473 106.78 58.2473C106.881 58.2473 107.015 58.1802 107.183 58.0459C107.35 57.9788 107.518 57.7439 107.686 57.4754ZM104.162 57.7439C104.162 57.9453 104.195 58.1131 104.263 58.2473C104.33 58.348 104.464 58.4151 104.598 58.4151C104.867 58.4151 105.169 58.2473 105.504 57.8781C105.84 57.5089 106.176 56.9048 106.444 56.0993C106.746 55.2602 106.881 54.7567 106.881 54.5218C106.881 54.3875 106.847 54.2533 106.746 54.119C106.646 54.0183 106.511 53.9512 106.377 53.9512C106.109 53.9512 105.874 54.0854 105.572 54.3875C105.303 54.6896 105.001 55.193 104.665 55.9314C104.33 56.6363 104.162 57.2404 104.162 57.7439Z" fill="#969798"/>
<path d="M114.532 53.6491C114.364 53.2799 114.264 52.9107 114.264 52.6086C114.264 52.2394 114.364 51.9038 114.599 51.5682C114.801 51.2661 115.103 50.9976 115.438 50.7962C115.774 50.5948 116.11 50.4941 116.479 50.4941C116.882 50.4941 117.217 50.5948 117.486 50.8298C117.754 51.0647 117.888 51.3332 117.888 51.6353C117.888 51.8702 117.821 52.0716 117.687 52.273C117.553 52.4744 117.419 52.5751 117.284 52.5751C117.217 52.5751 117.184 52.5415 117.184 52.4744C117.184 52.4408 117.217 52.3737 117.251 52.3066C117.318 52.1388 117.351 52.0045 117.351 51.8367C117.351 51.6017 117.251 51.4004 117.083 51.2661C116.882 51.1318 116.68 51.0647 116.412 51.0647C115.975 51.0647 115.573 51.2325 115.203 51.6017C114.834 51.9709 114.633 52.3737 114.633 52.81C114.633 53.0114 114.666 53.1792 114.7 53.347C114.767 53.4813 114.801 53.582 114.834 53.6156C114.868 53.6491 114.935 53.6827 115.036 53.6827C115.573 53.6827 115.841 53.8505 115.841 54.1526C115.841 54.2197 115.807 54.3204 115.74 54.3875C115.673 54.4546 115.606 54.4882 115.505 54.4882C115.371 54.4882 115.237 54.4211 115.036 54.2533C114.834 54.0854 114.633 53.9848 114.465 53.9848C114.23 53.9848 113.995 54.119 113.76 54.354C113.559 54.5889 113.424 54.891 113.424 55.2266C113.424 55.8643 113.76 56.502 114.398 57.0726C115.036 57.6432 115.841 57.9453 116.814 57.9453C117.721 57.9453 118.493 57.7103 119.13 57.274C119.768 56.8377 120.104 56.2671 120.104 55.6629C120.104 55.2602 119.936 54.891 119.634 54.5553C119.298 54.2533 118.895 54.0854 118.325 54.0854C117.888 54.0854 117.486 54.2197 117.15 54.4546C116.814 54.6896 116.647 54.9917 116.647 55.3609C116.647 55.5622 116.714 55.7636 116.848 55.8979C116.982 56.0321 117.116 56.0993 117.217 56.0993C117.385 56.0993 117.452 56.0321 117.452 55.8643V55.7972C117.452 55.7636 117.452 55.6965 117.452 55.6965C117.452 55.5287 117.486 55.3944 117.586 55.2602C117.687 55.1595 117.788 55.0923 117.956 55.0923C118.09 55.0923 118.224 55.1259 118.325 55.2266C118.425 55.3273 118.493 55.4615 118.493 55.6294C118.493 55.8643 118.392 56.0657 118.224 56.2335C118.056 56.4013 117.855 56.4685 117.586 56.4685C117.284 56.4685 117.016 56.3678 116.781 56.1328C116.546 55.8979 116.445 55.6294 116.445 55.2937C116.445 54.8238 116.647 54.3875 117.049 53.9848C117.452 53.582 118.19 53.4142 119.231 53.4142C120.171 53.4142 120.842 53.2799 121.278 53.0114C121.715 52.7429 121.916 52.3737 121.916 51.8367C121.916 51.5346 121.815 51.2661 121.648 51.0647C121.446 50.8633 121.211 50.7626 120.909 50.7626C120.775 50.7626 120.674 50.7962 120.573 50.8298C120.473 50.8633 120.473 50.9305 120.473 51.0312C120.473 51.0983 120.506 51.1654 120.573 51.2661C120.674 51.4004 120.708 51.5346 120.708 51.6353C120.708 51.7696 120.641 51.9038 120.54 52.0045C120.439 52.1052 120.305 52.1723 120.137 52.1723C119.936 52.1723 119.802 52.1052 119.701 51.9709C119.6 51.8367 119.533 51.7024 119.533 51.5346C119.533 51.2661 119.667 51.0312 119.936 50.8298C120.204 50.6284 120.506 50.5277 120.909 50.5277C121.312 50.5277 121.648 50.6955 121.95 50.964C122.218 51.2661 122.352 51.6353 122.352 52.0381C122.352 52.4408 122.218 52.81 122.017 53.1457C121.782 53.4813 121.48 53.7162 121.111 53.8505C120.741 53.9848 120.238 54.0519 119.6 54.0854C120.204 54.5218 120.54 55.0923 120.54 55.7636C120.54 56.2671 120.339 56.7705 119.969 57.274C119.6 57.7439 119.13 58.1131 118.593 58.348C118.056 58.583 117.385 58.6837 116.613 58.6837C115.975 58.6837 115.472 58.6165 115.069 58.4823C114.666 58.348 114.297 58.1466 113.961 57.8781C113.592 57.6096 113.324 57.3075 113.122 56.9048C112.921 56.5356 112.82 56.0993 112.82 55.6629C112.82 55.1259 112.988 54.6896 113.29 54.3204C113.592 53.9512 113.928 53.7498 114.532 53.6491Z" fill="#969798"/>
<path d="M127.085 54.3875C127.622 54.4882 128.059 54.7232 128.394 55.0252C128.73 55.3609 128.898 55.7301 128.898 56.2C128.898 56.5692 128.797 56.9384 128.596 57.274C128.394 57.6096 128.092 57.8781 127.723 58.0795C127.354 58.2809 126.951 58.4152 126.515 58.4487C126.079 58.4823 125.474 58.5159 124.669 58.5159H121.95L122.017 58.2473H122.219C122.454 58.2473 122.655 58.2138 122.823 58.1131C122.991 58.0124 123.091 57.9117 123.158 57.811C123.226 57.7103 123.326 57.4418 123.427 57.0726L124.937 52.0381C125.038 51.6353 125.105 51.4004 125.105 51.2997C125.105 51.0312 124.87 50.8969 124.367 50.8969H124.199L124.266 50.6284H126.783C127.22 50.6284 127.589 50.662 127.824 50.6955C128.092 50.7291 128.327 50.8298 128.596 50.9976C128.864 51.1654 129.066 51.3668 129.2 51.6018C129.334 51.8367 129.401 52.1052 129.401 52.3737C129.401 52.8436 129.2 53.2799 128.797 53.6491C128.495 54.0183 127.891 54.2533 127.085 54.3875ZM125.307 54.5218L124.467 57.274C124.4 57.5089 124.367 57.6768 124.367 57.7775C124.367 58.1131 124.736 58.3145 125.508 58.3145C126.28 58.3145 126.85 58.0795 127.253 57.6096C127.656 57.1397 127.857 56.5692 127.857 55.8643C127.857 55.5287 127.757 55.2602 127.589 55.0252C127.421 54.8239 127.22 54.6896 127.018 54.6225C126.783 54.5554 126.448 54.5218 125.944 54.5218H125.307ZM125.374 54.2533H125.978C126.548 54.2533 127.018 54.1862 127.354 54.0183C127.69 53.8505 127.958 53.6156 128.159 53.2799C128.361 52.9443 128.462 52.5751 128.462 52.1388C128.462 51.8367 128.394 51.5682 128.227 51.3668C128.059 51.1654 127.891 51.0312 127.723 50.9641C127.555 50.8969 127.253 50.8969 126.85 50.8969H126.414L125.374 54.2533Z" fill="#969798"/>
<path d="M130.14 55.1932H129.871C130.039 54.7569 130.24 54.3877 130.475 54.0856C130.71 53.7835 130.979 53.6157 131.214 53.6157C131.381 53.6157 131.516 53.6829 131.583 53.8171C131.65 53.9514 131.717 54.1527 131.717 54.4212C131.717 54.7569 131.616 55.2268 131.449 55.8645C131.482 55.8309 131.549 55.6967 131.65 55.4617C131.952 54.824 132.187 54.3541 132.422 54.0521C132.623 53.75 132.858 53.6157 133.06 53.6157C133.194 53.6157 133.295 53.6493 133.395 53.75C133.462 53.8507 133.53 53.9514 133.53 54.0521C133.53 54.1527 133.496 54.2534 133.429 54.3206C133.362 54.3877 133.295 54.4212 133.194 54.4212C133.093 54.4212 132.993 54.3541 132.858 54.2199C132.825 54.1863 132.758 54.1527 132.724 54.1527C132.523 54.1527 132.221 54.6226 131.818 55.5624C131.415 56.5022 131.079 57.3748 130.844 58.1804L130.71 58.5831H130.005L130.945 55.4953C131.113 54.8911 131.214 54.5219 131.214 54.287C131.214 54.1863 131.214 54.0856 131.18 54.0521C131.147 53.9849 131.113 53.9849 131.046 53.9849C130.912 53.9849 130.744 54.1192 130.576 54.3877C130.341 54.7233 130.207 54.9583 130.14 55.1932Z" fill="#969798"/>
<path d="M136.215 57.0726H136.483C135.98 58.1802 135.342 58.7173 134.57 58.7173C134.268 58.7173 134 58.6166 133.798 58.3816C133.597 58.1467 133.496 57.8446 133.496 57.4754C133.496 57.0055 133.63 56.4349 133.899 55.8308C134.167 55.2266 134.537 54.6896 135.006 54.2533C135.476 53.817 135.879 53.582 136.248 53.582C136.45 53.582 136.618 53.6492 136.752 53.7834C136.852 53.9177 136.92 54.0855 136.92 54.2869C136.92 54.6896 136.718 55.0924 136.282 55.4952C135.879 55.8979 135.241 56.2671 134.402 56.6028C134.302 56.9384 134.234 57.274 134.234 57.5761C134.234 57.811 134.268 58.0124 134.369 58.1467C134.469 58.2809 134.604 58.3481 134.805 58.3481C135.342 58.3816 135.812 57.9453 136.215 57.0726ZM134.469 56.3678C134.973 56.1329 135.409 55.8308 135.812 55.428C136.215 55.0253 136.416 54.6896 136.416 54.354C136.416 54.2197 136.383 54.0855 136.315 54.0184C136.248 53.9512 136.181 53.9177 136.047 53.9177C135.812 53.9177 135.543 54.1526 135.208 54.5889C134.906 55.0588 134.671 55.6294 134.469 56.3678Z" fill="#969798"/>
<path d="M141.216 53.7164H141.921L140.88 57.1399C140.712 57.6434 140.645 57.9454 140.645 58.0461C140.645 58.1132 140.679 58.1804 140.712 58.2139C140.746 58.2475 140.813 58.2811 140.88 58.2811C141.149 58.2811 141.451 57.979 141.82 57.3748H142.055C141.887 57.7105 141.686 58.0461 141.417 58.3146C141.149 58.5831 140.88 58.7509 140.645 58.7509C140.477 58.7509 140.31 58.6838 140.242 58.5496C140.142 58.4153 140.108 58.2475 140.108 58.0461C140.108 57.8783 140.142 57.6769 140.209 57.4084C140.041 57.7105 139.773 58.0126 139.437 58.2811C139.101 58.5831 138.799 58.7174 138.497 58.7174C138.229 58.7174 137.994 58.6167 137.792 58.3818C137.591 58.1468 137.49 57.8447 137.49 57.442C137.49 56.905 137.658 56.3344 137.96 55.7302C138.262 55.1261 138.665 54.6226 139.135 54.2199C139.638 53.8171 140.041 53.6157 140.377 53.6157C140.578 53.6157 140.746 53.6493 140.847 53.75C140.981 53.8507 141.048 53.9849 141.082 54.1863L141.216 53.7164ZM138.162 57.6098C138.162 57.8783 138.195 58.0461 138.262 58.1804C138.329 58.3146 138.464 58.3818 138.598 58.3818C138.866 58.3818 139.168 58.1804 139.504 57.8112C139.873 57.442 140.175 56.8714 140.444 56.0994C140.712 55.3275 140.847 54.7904 140.847 54.5219C140.847 54.3541 140.813 54.2199 140.712 54.1192C140.612 54.0185 140.511 53.9514 140.343 53.9514C139.873 53.9514 139.37 54.4212 138.866 55.361C138.43 56.2672 138.162 57.0056 138.162 57.6098Z" fill="#969798"/>
<path d="M146.686 57.207H146.921C146.787 57.744 146.619 58.1132 146.384 58.3481C146.149 58.5831 145.914 58.6838 145.646 58.6838C145.142 58.6838 144.908 58.3817 144.908 57.744C144.908 57.6769 144.908 57.4755 144.941 57.1734C144.975 56.67 145.008 56.4015 145.008 56.3343C145.008 55.9651 144.874 55.7637 144.572 55.7637C144.438 55.7637 144.303 55.7973 144.169 55.898C144.035 55.9987 143.934 56.0994 143.867 56.2672C143.8 56.4015 143.699 56.7035 143.599 57.1063L143.129 58.6167H142.424L144.471 51.8368C144.572 51.5012 144.639 51.2998 144.639 51.2327C144.639 51.132 144.605 51.0648 144.572 51.0313C144.538 50.9977 144.404 50.9642 144.203 50.9642H144.001L144.068 50.7292C144.706 50.7292 145.142 50.6621 145.445 50.5278H145.579L143.968 55.7637C144.874 54.7568 145.512 54.1527 145.847 53.9178C146.183 53.6828 146.485 53.5821 146.72 53.5821C147.056 53.5821 147.223 53.7164 147.223 53.9513C147.223 54.052 147.19 54.1191 147.123 54.1863C147.056 54.2534 146.988 54.287 146.888 54.287C146.821 54.287 146.72 54.2534 146.586 54.1527C146.485 54.0856 146.418 54.0856 146.317 54.0856C145.948 54.0856 145.344 54.589 144.471 55.5624C144.538 55.5288 144.605 55.5288 144.639 55.5288C145.243 55.5288 145.579 56.1665 145.646 57.4084C145.646 57.744 145.679 57.9454 145.747 58.0461C145.78 58.1468 145.847 58.1803 145.982 58.1803C146.116 58.1803 146.25 58.0796 146.384 57.8783C146.519 57.744 146.619 57.5091 146.686 57.207Z" fill="#969798"/>
<path d="M150.882 53.7835L150.815 54.052H149.808L148.902 57.4419C148.499 58.9859 148.029 60.0263 147.559 60.5298C147.056 61.0668 146.519 61.3353 145.948 61.3353C145.613 61.3353 145.344 61.2682 145.076 61.1004C144.807 60.9325 144.673 60.7647 144.673 60.5298C144.673 60.3955 144.706 60.2948 144.807 60.2277C144.874 60.1606 144.975 60.0935 145.076 60.0935C145.21 60.0935 145.311 60.127 145.378 60.2277C145.445 60.3284 145.478 60.4291 145.478 60.5298C145.478 60.5633 145.478 60.5969 145.445 60.664V60.7647C145.445 60.8318 145.478 60.899 145.579 60.9661C145.68 61.0332 145.78 61.0668 145.915 61.0668C146.385 61.0668 146.787 60.8318 147.089 60.3284C147.391 59.8249 147.761 58.8516 148.163 57.3412L149.07 54.0184H147.929L147.996 53.7499H149.137C149.137 53.7164 149.17 53.5821 149.237 53.4143C149.775 51.4676 150.614 50.5278 151.788 50.5278C152.124 50.5278 152.392 50.595 152.56 50.7628C152.728 50.897 152.829 51.0648 152.829 51.1991C152.829 51.4005 152.728 51.5012 152.527 51.5012C152.359 51.5012 152.191 51.3669 152.023 51.0984C151.889 50.897 151.755 50.7963 151.587 50.7963C151.318 50.7963 151.083 50.9306 150.815 51.1655C150.58 51.4005 150.312 52.0718 150.009 53.1458L149.842 53.7835H150.882Z" fill="#969798"/>
<path d="M154.507 53.7164H155.212L154.171 57.1399C154.003 57.6434 153.936 57.9454 153.936 58.0461C153.936 58.1132 153.97 58.1804 154.003 58.2139C154.037 58.2475 154.104 58.2811 154.171 58.2811C154.44 58.2811 154.742 57.979 155.111 57.3748H155.346C155.178 57.7105 154.977 58.0461 154.708 58.3146C154.44 58.5831 154.171 58.7509 153.936 58.7509C153.768 58.7509 153.601 58.6838 153.533 58.5496C153.433 58.4153 153.399 58.2475 153.399 58.0461C153.399 57.8783 153.433 57.6769 153.5 57.4084C153.332 57.7105 153.064 58.0126 152.728 58.2811C152.392 58.5831 152.09 58.7174 151.788 58.7174C151.52 58.7174 151.285 58.6167 151.083 58.3818C150.882 58.1468 150.781 57.8447 150.781 57.442C150.781 56.905 150.949 56.3344 151.251 55.7302C151.553 55.1261 151.956 54.6226 152.426 54.2199C152.929 53.8171 153.332 53.6157 153.668 53.6157C153.869 53.6157 154.037 53.6493 154.138 53.75C154.272 53.8507 154.339 53.9849 154.373 54.1863L154.507 53.7164ZM151.486 57.6098C151.486 57.8783 151.52 58.0461 151.587 58.1804C151.654 58.3146 151.788 58.3818 151.922 58.3818C152.191 58.3818 152.493 58.1804 152.829 57.8112C153.198 57.442 153.5 56.8714 153.768 56.0994C154.037 55.3275 154.171 54.7904 154.171 54.5219C154.171 54.3541 154.138 54.2199 154.037 54.1192C153.936 54.0185 153.836 53.9514 153.668 53.9514C153.198 53.9514 152.694 54.4212 152.191 55.361C151.721 56.2672 151.486 57.0056 151.486 57.6098Z" fill="#969798"/>
<path d="M158.636 57.2739C158.636 57.6431 158.501 57.9788 158.233 58.2808C157.964 58.5829 157.562 58.7172 157.025 58.7172C156.622 58.7172 156.32 58.6165 156.118 58.4486C155.917 58.2808 155.816 58.0794 155.816 57.8781C155.816 57.7774 155.85 57.6767 155.917 57.6096C155.984 57.5424 156.051 57.5089 156.152 57.5089C156.353 57.5089 156.454 57.6096 156.454 57.8445C156.454 57.9116 156.454 57.9788 156.421 58.0459C156.421 58.0794 156.387 58.113 156.387 58.1466C156.387 58.2473 156.454 58.3144 156.555 58.3815C156.655 58.4486 156.823 58.4822 156.991 58.4822C157.26 58.4822 157.495 58.4151 157.696 58.2473C157.897 58.0794 158.032 57.8445 158.032 57.576C158.032 57.3075 157.897 56.9383 157.595 56.3677C157.26 55.73 157.058 55.2937 157.058 54.9916C157.058 54.6224 157.193 54.3203 157.495 54.0518C157.797 53.7833 158.132 53.6826 158.501 53.6826C158.77 53.6826 159.005 53.7497 159.206 53.884C159.408 54.0183 159.508 54.1861 159.508 54.3203C159.508 54.5217 159.408 54.6224 159.24 54.6224C159.106 54.6224 159.005 54.5217 158.971 54.2868C158.904 54.0183 158.736 53.9176 158.468 53.9176C158.233 53.9176 158.065 53.9847 157.897 54.0854C157.73 54.2196 157.662 54.3539 157.662 54.5553C157.662 54.8238 157.797 55.193 158.065 55.6293C158.3 56.0321 158.468 56.3677 158.569 56.6026C158.602 56.804 158.636 57.039 158.636 57.2739Z" fill="#969798"/>
<path d="M162.999 53.7836L162.932 54.0521H162.059L161.287 56.603C161.019 57.4421 160.918 57.9119 160.918 58.0462C160.918 58.1469 160.952 58.214 160.985 58.2476C161.019 58.2811 161.086 58.3147 161.153 58.3147C161.287 58.3147 161.489 58.1805 161.69 57.9119C161.925 57.6434 162.126 57.3078 162.294 56.905H162.563C162.328 57.4756 162.059 57.9119 161.757 58.214C161.455 58.5161 161.186 58.6839 160.918 58.6839C160.717 58.6839 160.549 58.6168 160.448 58.4825C160.314 58.3483 160.28 58.1805 160.28 57.9455C160.28 57.7777 160.415 57.2742 160.649 56.5023L161.388 54.0186H160.582L160.649 53.7501H161.455L161.992 51.9712H162.697L162.16 53.7501L162.999 53.7836Z" fill="#969798"/>
</svg>
