<svg width="150" height="65" viewBox="0 0 150 65" fill="none" xmlns="http://www.w3.org/2000/svg">
<path d="M20.8063 20.1525C20.6797 20.0683 20.6374 19.9417 20.5951 19.8995C20.5951 19.8573 20.637 19.7728 20.721 19.646C21.6458 18.631 22.3596 17.4475 22.8626 16.2222C23.3657 14.9968 23.6579 13.603 23.655 12.1674C23.6519 10.563 23.354 9.04348 22.7195 7.65125C22.0849 6.25902 21.24 5.03604 20.1849 4.02455C19.1298 3.01306 17.8645 2.21306 16.4732 1.62438C15.0399 1.03578 13.5228 0.742882 11.9642 0.745616L2.14931 0.762833C1.51744 0.763941 0.970245 0.976014 0.591874 1.35668C0.213502 1.73735 0.00395837 2.28661 0.0052008 2.91994L0.0756883 38.8512C0.0769307 39.4845 0.288628 40.0331 0.66849 40.4124C1.04835 40.7917 1.59638 41.0019 2.22824 41.0008L14.36 40.9795C15.9607 40.9767 17.4766 40.6785 18.8655 40.0849C20.2545 39.4914 21.5166 38.6869 22.5677 37.6717C23.6188 36.6566 24.4589 35.4306 25.0881 34.0784C25.7173 32.684 26.0091 31.1634 26.0059 29.5168C26.0021 27.5745 25.5353 25.802 24.6476 24.2413C23.718 22.7652 22.4515 21.374 20.8063 20.1525ZM16.7939 14.755C16.4583 15.4734 15.9961 16.0653 15.4493 16.4885C14.9026 16.9539 14.2714 17.2928 13.5978 17.5051C12.9243 17.7596 12.2505 17.8452 11.6186 17.8464L6.52163 17.8553C6.43739 17.8554 6.39526 17.8555 6.39526 17.8555C6.39526 17.8555 6.35305 17.8134 6.35289 17.7289L6.33193 7.04666C6.33177 6.96221 6.33168 6.91999 6.33168 6.91999C6.33168 6.91999 6.37373 6.87769 6.45797 6.87754L11.555 6.8686C12.1869 6.86749 12.861 6.95076 13.5775 7.16061C14.2519 7.37054 14.8844 7.66499 15.4328 8.08626C15.9813 8.50752 16.4457 9.0556 16.784 9.73056C17.1223 10.4055 17.3345 11.2074 17.3364 12.1785C17.3384 13.1918 17.1295 14.0367 16.7939 14.755ZM6.3654 24.1045C6.36523 24.0201 6.36515 23.9778 6.36515 23.9778C6.36515 23.9778 6.40719 23.9355 6.49144 23.9354L13.9053 23.9224C14.5371 23.9213 15.2114 24.0468 15.8858 24.2567C16.5603 24.5088 17.1928 24.8455 17.7412 25.2668C18.2897 25.688 18.7542 26.2783 19.0926 26.9955C19.431 27.7127 19.6433 28.5568 19.6452 29.5279C19.6471 30.499 19.4802 31.3438 19.1024 31.9778C18.7667 32.6539 18.3044 33.2036 17.7576 33.6268C17.2108 34.05 16.5796 34.3889 15.906 34.559C15.2324 34.7713 14.5586 34.8569 13.8846 34.8581L6.55501 34.8709C6.47077 34.8711 6.42864 34.8711 6.42864 34.8711C6.42864 34.8711 6.38643 34.829 6.38627 34.7445L6.3654 24.1045Z" fill="#969798"/>
<path d="M53.4393 34.8731L37.6849 34.9007C37.6007 34.9008 37.5585 34.9009 37.5585 34.9009C37.5585 34.9009 37.5163 34.8588 37.5162 34.7743L37.4537 2.93864C37.4525 2.30531 37.2408 1.75679 36.8609 1.37745C36.481 0.998114 35.933 0.787963 35.3011 0.789071L33.2792 0.792618C32.6473 0.793727 32.1001 1.0058 31.7218 1.38647C31.3434 1.76713 31.1338 2.31639 31.1351 2.94973L31.2054 38.7965C31.2067 39.4721 31.4183 39.9784 31.7982 40.3577C32.1781 40.7371 32.7261 40.9472 33.358 40.9461L53.4512 40.9109C54.083 40.9098 54.6302 40.6977 55.0086 40.317C55.387 39.9363 55.5965 39.3871 55.5953 38.7538L55.5919 37.0226C55.5906 36.3893 55.3789 35.8408 54.9991 35.4614C54.6192 35.0821 54.1133 34.8719 53.4393 34.8731Z" fill="#969798"/>
<path d="M116.072 32.5691C115.608 32.1054 115.06 31.8953 114.512 31.9385C113.965 31.9816 113.502 32.1936 113.081 32.5743C112.366 33.2089 111.441 33.8439 110.305 34.4792C109.211 35.0722 107.821 35.3702 106.221 35.373C103.904 35.3771 102.133 34.6624 100.866 33.1446C99.5575 31.6269 98.9217 29.6013 98.9169 27.1524L98.8919 14.4013C98.8896 13.2613 99.056 12.1632 99.391 11.1493C99.726 10.1353 100.188 9.24786 100.818 8.52897C101.448 7.76786 102.206 7.21764 103.089 6.79386C103.973 6.37008 105.026 6.15713 106.163 6.15513C107.848 6.15217 109.197 6.44537 110.125 6.99263C111.137 7.58197 111.854 8.12961 112.36 8.55094C112.909 9.05665 113.415 9.3091 113.878 9.26607C114.341 9.22303 114.804 9.01111 115.267 8.54585L116.612 7.19236C117.075 6.72711 117.326 6.17777 117.325 5.6711C117.324 5.16443 117.07 4.65821 116.606 4.15235C116.184 3.73087 115.635 3.26738 114.961 2.7619C114.286 2.25641 113.526 1.79329 112.641 1.41484C111.756 1.03639 110.786 0.700314 109.733 0.448827C108.679 0.19734 107.457 0.0728159 106.151 0.0751065C104.214 0.0785055 102.403 0.461684 100.719 1.1402C99.0779 1.86086 97.6055 2.83456 96.3863 4.10338C95.1672 5.37219 94.2435 6.89382 93.5308 8.6262C92.8603 10.4007 92.4849 12.3014 92.4889 14.3703L92.5139 27.0792C92.5179 29.1481 92.8588 31.132 93.5783 32.8618C94.2558 34.634 95.2276 36.1523 96.4516 37.3746C97.6757 38.6391 99.1098 39.6078 100.796 40.2804C102.44 40.953 104.294 41.3298 106.19 41.3265C108.844 41.3218 111.076 40.8534 112.801 39.9215C114.484 39.0319 115.956 37.9315 117.217 36.6626C117.596 36.282 117.806 35.8172 117.847 35.226C117.887 34.6348 117.676 34.0863 117.212 33.6226L116.072 32.5691Z" fill="#969798"/>
<path d="M148.854 38.0831L138.365 16.4836C138.111 15.9773 138.195 15.5127 138.615 15.0053L148.322 2.91266C148.868 2.32059 148.741 1.7297 148.572 1.39221C148.403 1.01251 148.023 0.590948 147.138 0.5925L144.021 0.597968C142.883 0.599963 142.042 0.981442 141.495 1.70018L129.562 17.0057C129.478 17.0903 129.436 17.1326 129.436 17.1326C129.436 17.1326 129.394 17.0904 129.394 16.9637L129.366 2.77702C129.365 2.14369 129.153 1.59517 128.773 1.21583C128.393 0.836493 127.845 0.626342 127.213 0.62745L125.191 0.630997C124.559 0.632106 124.012 0.844178 123.634 1.22484C123.255 1.60551 123.046 2.15477 123.047 2.78811L123.118 38.6349C123.119 39.3105 123.33 39.8168 123.71 40.1961C124.09 40.5754 124.638 40.7856 125.27 40.7845L127.292 40.7809C127.924 40.7798 128.471 40.5678 128.849 40.1871C129.228 39.8064 129.437 39.2572 129.436 38.6238L129.414 27.5193C129.413 26.8016 129.622 26.2101 130.085 25.6604L133.404 21.4323C133.446 21.39 133.572 21.3053 133.615 21.3053C133.657 21.3052 133.699 21.3896 133.741 21.4317L142.116 38.9394C142.793 40.416 143.847 40.7519 144.647 40.7505L147.301 40.7458C148.228 40.7442 148.648 40.279 148.858 39.9409C149.194 39.3914 149.193 38.8003 148.854 38.0831Z" fill="#969798"/>
<path d="M77.2186 2.57461C77.0066 1.85719 76.6687 1.39334 76.2469 1.09852C75.8673 0.845852 75.3194 0.720146 74.7297 0.72118L70.6857 0.728274C70.0539 0.729382 69.5487 0.856936 69.17 1.11094C68.7493 1.36501 68.4554 1.87219 68.2041 2.59042L62.1755 21.6011L51.9281 15.9191C51.2956 15.5824 50.79 15.5411 50.3271 15.753C49.9063 15.9648 49.6123 16.4298 49.4873 17.1056L48.9451 19.8932C48.6948 21.1181 49.1177 22.004 50.1298 22.5512L60.1658 27.8536L56.6908 38.7531C56.4815 39.429 56.5669 39.9778 56.8204 40.3573C57.116 40.7368 57.6219 40.947 58.2959 40.9459L61.1182 40.9409C62.3398 40.9388 63.1811 40.3462 63.4738 39.2479L65.8174 31.3904C65.8592 31.2636 65.9432 31.1368 66.0694 31.0099L68.7259 32.3986L83.1489 40.8178C83.6128 41.0703 84.1186 41.2383 84.6663 41.2796C84.7505 41.2795 84.7927 41.2794 84.8769 41.2792C85.3824 41.2784 85.8454 41.1087 86.266 40.7701L87.6118 39.67C88.1165 39.2469 88.5783 38.4438 88.1966 37.1356L77.2186 2.57461ZM79.6347 31.6617C79.6347 31.6617 79.5083 31.6619 79.2552 31.4935L68.0792 24.8419C68.037 24.7998 67.9948 24.7576 67.9947 24.7154C67.9524 24.631 67.9099 24.42 68.0773 23.8708L72.5967 8.57831C72.6384 8.36713 72.7225 8.24031 72.7646 8.24024C72.8067 8.24016 72.8911 8.32446 72.9337 8.57772L79.7182 31.2815C79.7185 31.4504 79.7187 31.5349 79.6347 31.6617Z" fill="#969798"/>
<path d="M16.1861 48.0695L18.1659 48.0661C18.2923 48.0658 18.3766 48.1079 18.503 48.1499C18.8404 48.3182 19.0098 48.7824 18.8419 49.1204L11.4989 63.7423C11.373 63.9959 11.1205 64.123 10.8678 64.1234L8.55094 64.1275C8.2982 64.1279 8.04512 63.9595 7.91834 63.7486L0.51796 49.1526C0.47567 49.0682 0.433297 48.9416 0.433049 48.815C0.432303 48.4349 0.768634 48.0966 1.14775 48.0959L3.12758 48.0924C3.38033 48.092 3.6334 48.2604 3.76019 48.4713L9.68059 60.1988L15.5549 48.4506C15.6808 48.1971 15.9333 48.07 16.1861 48.0695Z" fill="#969798"/>
<path d="M34.5684 57.3694L24.8379 57.3865L24.8461 61.5664L37.778 61.5438C38.1572 61.5431 38.4948 61.8803 38.4956 62.2603L38.4978 63.4003C38.4985 63.7803 38.1622 64.1186 37.7831 64.1193L22.3658 64.1464C21.9867 64.147 21.6491 63.8098 21.6483 63.4298L21.6196 48.7788C21.6188 48.3988 21.9552 48.0604 22.3343 48.0598L37.7515 48.0327C38.1307 48.0321 38.4683 48.3693 38.469 48.7493L38.4713 49.8892C38.472 50.2692 38.1357 50.6076 37.7566 50.6083L24.8246 50.631L24.8328 54.8109L34.5634 54.7939C34.9425 54.7932 35.2802 55.1304 35.2809 55.5104L35.2831 56.6504C35.2839 57.0304 34.9476 57.3687 34.5684 57.3694Z" fill="#969798"/>
<path d="M58.0834 62.2256C58.0839 62.4367 58 62.648 57.8318 62.7749C57.3692 63.1558 56.9065 63.5366 56.4018 63.9175C56.1074 64.1291 55.7704 64.1297 55.5172 63.919L49.2731 58.9477L44.4289 58.9562L44.4376 63.3896C44.4384 63.8118 44.1441 64.1078 43.7229 64.1086L41.9537 64.1117C41.5325 64.1124 41.237 63.8174 41.2362 63.3952L41.2075 48.7441C41.2066 48.3219 41.5009 48.0258 41.9222 48.0251L51.2315 48.0088C53.1692 48.0054 55.5283 48.0857 56.879 49.4766C57.8918 50.446 58.0635 52.0501 58.0662 53.4434C58.0689 54.8368 57.8615 56.4416 56.8945 57.4144C56.1798 58.1334 55.2117 58.5151 54.1591 58.7281C55.3826 59.697 56.6061 60.666 57.8295 61.635C57.9984 61.8035 58.083 62.0145 58.0834 62.2256ZM51.2479 56.3687C52.2589 56.367 53.5225 56.3225 54.2371 55.5613C54.7416 55.0537 54.8662 54.1668 54.8648 53.4491C54.8634 52.7313 54.7353 51.8448 54.2288 51.3391C53.5113 50.6226 52.2896 50.5402 51.2365 50.5421L44.4124 50.5541L44.4238 56.3385L51.2478 56.3265L51.2479 56.3687Z" fill="#969798"/>
<path d="M60.8031 52.6364C60.7997 50.863 61.8077 49.3835 63.4915 48.7894C65.5541 48.0258 67.8287 47.9374 70.0191 47.9335C72.2096 47.9297 74.4844 48.0101 76.55 48.7665C77.899 49.2708 78.8278 50.3248 79.1254 51.7176C79.1679 51.9286 79.1262 52.1398 79.0002 52.3089C78.8741 52.478 78.6637 52.5628 78.4531 52.5632L76.6417 52.5664C76.3047 52.567 76.0516 52.3985 75.9667 52.0609C75.7972 51.5545 75.4174 51.1752 74.8695 51.0495C73.3101 50.63 71.6248 50.4641 69.982 50.4669C68.3391 50.4698 66.6966 50.6416 65.0967 51.0666C64.381 51.279 63.9609 51.8286 63.9624 52.5886C63.9638 53.3064 64.4283 53.8967 65.1027 54.1066C66.6621 54.5261 68.3474 54.6921 69.9903 54.6892C72.1807 54.6853 74.4556 54.7658 76.5211 55.5222C78.2073 56.1103 79.2211 57.5863 79.2246 59.3597C79.2281 61.133 78.22 62.6126 76.5362 63.2067C74.4736 63.9703 72.1991 64.0587 70.0086 64.0626C67.8182 64.0664 65.5433 63.9859 63.4777 63.2296C62.1288 62.7253 61.2 61.6713 60.9024 60.2785C60.8598 60.0675 60.9016 59.8563 61.0276 59.6872C61.1536 59.5181 61.3641 59.4332 61.5747 59.4329L63.386 59.4297C63.723 59.4291 63.9761 59.5975 64.061 59.9352C64.2305 60.4416 64.6104 60.8209 65.1161 60.9467C66.6755 61.3662 68.3608 61.5321 70.0037 61.5292C71.6465 61.5263 73.289 61.3546 74.8889 60.9295C75.6046 60.7172 76.0248 60.1675 76.0233 59.4075C76.0219 58.6897 75.5573 58.0994 74.8829 57.8895C73.3235 57.47 71.6382 57.3041 69.9954 57.307C67.8049 57.3108 65.5301 57.2304 63.4645 56.474C61.8626 55.8857 60.8066 54.4097 60.8031 52.6364Z" fill="#969798"/>
<path d="M82.7301 64.0389C82.351 64.0396 82.0133 63.7024 82.0126 63.3224L81.9838 48.6714C81.9831 48.2914 82.3194 47.953 82.6985 47.9524L84.4677 47.9493C84.8468 47.9486 85.1845 48.2858 85.1852 48.6658L85.214 63.3168C85.2147 63.6968 84.8784 64.0352 84.4993 64.0358L82.7301 64.0389Z" fill="#969798"/>
<path d="M108.03 55.9308C108.034 57.9575 107.744 60.3647 106.272 61.7606C104.296 63.8329 100.842 63.9657 97.978 63.9707C95.1136 63.9757 91.7013 63.855 89.6753 61.7897C88.1981 60.3567 87.8986 57.9928 87.8946 55.9661C87.8907 53.9394 88.1808 51.5322 89.6524 50.1363C91.6282 48.0639 95.0821 47.9312 97.9466 47.9262C100.811 47.9212 104.223 48.0418 106.249 50.1072C107.726 51.498 108.026 53.9041 108.03 55.9308ZM104.829 55.9364C104.826 54.5431 104.612 52.939 103.641 51.9696C102.291 50.5786 99.9315 50.4983 97.9937 50.5017C96.056 50.5051 93.6973 50.5937 92.352 51.9894C91.3851 52.9622 91.1776 54.567 91.1803 55.9603C91.1831 57.3537 91.3968 58.9578 92.3676 59.9272C93.7183 61.3182 96.0774 61.3985 98.0151 61.3951C99.9528 61.3917 102.312 61.3031 103.657 59.9074C104.624 58.9768 104.831 57.3297 104.829 55.9364Z" fill="#969798"/>
<path d="M113.961 51.8248L113.984 63.267C113.984 63.647 113.648 63.9854 113.269 63.986L111.5 63.9891C111.121 63.9898 110.783 63.6526 110.782 63.2726L110.753 48.6216C110.753 48.2416 111.089 47.9032 111.468 47.9025L113.616 47.8988C113.827 47.8984 114.038 47.9825 114.164 48.1512L124.424 60.0398L124.401 48.5976C124.401 48.2176 124.737 47.8793 125.116 47.8786L126.885 47.8755C127.264 47.8748 127.602 48.212 127.603 48.592L127.632 63.2431C127.632 63.6231 127.296 63.9614 126.917 63.9621L124.769 63.9659C124.558 63.9662 124.347 63.8821 124.22 63.7135L113.961 51.8248Z" fill="#969798"/>
<path d="M130.349 52.5133C130.346 50.74 131.354 49.2604 133.037 48.6664C135.1 47.9028 137.375 47.8143 139.565 47.8105C141.755 47.8066 144.03 47.8871 146.096 48.6435C147.445 49.1478 148.374 50.2017 148.671 51.5945C148.714 51.8056 148.672 52.0168 148.546 52.1859C148.42 52.355 148.21 52.4398 147.999 52.4402L146.188 52.4433C145.851 52.4439 145.598 52.2755 145.513 51.9379C145.343 51.4315 144.963 51.0521 144.415 50.9264C142.856 50.5069 141.171 50.341 139.528 50.3439C137.885 50.3468 136.243 50.5185 134.643 50.9436C133.927 51.1559 133.507 51.7056 133.508 52.4656C133.51 53.1834 133.974 53.7737 134.649 53.9836C136.208 54.4031 137.893 54.569 139.536 54.5661C141.727 54.5623 144.001 54.6427 146.067 55.3991C147.753 55.9873 148.767 57.4633 148.771 59.2366C148.774 61.01 147.766 62.4895 146.082 63.0836C144.02 63.8472 141.745 63.9357 139.555 63.9395C137.364 63.9433 135.089 63.8629 133.024 63.1065C131.675 62.6022 130.746 61.5483 130.448 60.1555C130.406 59.9444 130.447 59.7332 130.573 59.5641C130.7 59.395 130.91 59.3102 131.121 59.3098L132.932 59.3066C133.269 59.3061 133.522 59.4745 133.607 59.8121C133.776 60.3185 134.156 60.6978 134.662 60.8236C136.221 61.2431 137.907 61.409 139.55 61.4062C141.192 61.4033 142.835 61.2315 144.435 60.8065C145.151 60.5941 145.571 60.0445 145.569 59.2845C145.568 58.5667 145.103 57.9764 144.429 57.7665C142.869 57.347 141.184 57.181 139.541 57.1839C137.351 57.1878 135.076 57.1073 133.01 56.3509C131.366 55.7627 130.353 54.2867 130.349 52.5133Z" fill="#969798"/>
</svg>
