<svg width="158" height="21" viewBox="0 0 158 21" fill="none" xmlns="http://www.w3.org/2000/svg">
<path d="M31.5192 19.9449V3.19993C31.5192 2.88289 31.7125 2.66097 32.0259 2.63455C36.5546 2.46546 39.626 6.13784 40.7177 8.29371C41.8041 6.13784 44.8807 2.46546 49.4094 2.63455C49.7229 2.66097 49.9161 2.87761 49.9161 3.19993V19.9502C49.9161 20.2937 49.6967 20.5103 49.3572 20.5103H45.8001C45.4605 20.5103 45.2412 20.2884 45.2412 19.9502V9.44033C43.2301 10.7402 41.8773 14.4601 41.1982 16.8326C41.052 17.398 40.8848 17.6675 40.7125 17.6675C40.5401 17.6675 40.399 17.398 40.2267 16.8326C39.5476 14.4601 38.1948 10.7349 36.1837 9.44033V19.9449C36.1837 20.2884 35.9644 20.505 35.6248 20.505H32.0677C31.7282 20.505 31.5088 20.2831 31.5088 19.9449H31.5192Z" fill="#969798"/>
<path d="M134.065 5.60635C134.104 4.64917 134.617 0.0999255 140.994 0C141.111 0 141.209 0.0788886 141.209 0.173555C141.085 5.33287 135.462 5.74835 134.279 5.7799C134.162 5.7799 134.058 5.70627 134.065 5.60635Z" fill="#969798"/>
<path d="M0 19.9851H14.0926V15.7494H5.07231V13.1087H13.256V9.34366H5.07231V6.70292H14.0926V2.46729H0V19.9851Z" fill="#969798"/>
<path d="M21.056 19.9851V2.46729H15.9837V19.9851H21.056Z" fill="#969798"/>
<path d="M61.641 15.4357C61.1966 16.2985 60.4383 16.743 59.3925 16.743C58.0852 16.743 57.1962 16.0109 56.8825 14.7559H66.295C66.3735 14.3637 66.3996 13.9715 66.3996 13.527C66.3996 9.50054 63.5236 6.78136 59.3141 6.78136C55.0523 6.78136 52.1762 9.52668 52.1762 13.5793C52.1762 17.6319 55.0784 20.3772 59.3925 20.3772C62.6346 20.3772 65.1707 18.7562 66.1381 16.1416L61.641 15.4357ZM56.9871 12.1413C57.3531 11.0693 58.1636 10.4941 59.3141 10.4941C60.4383 10.4941 61.2489 11.0693 61.5888 12.1413H56.9871Z" fill="#969798"/>
<path d="M78.2658 12.0105V6.78136C76.4094 6.78136 74.5007 7.93178 73.2457 9.81429V7.17355H68.1734V19.9851H73.2457V17.2659C73.2457 13.71 74.8406 12.0105 78.2658 12.0105Z" fill="#969798"/>
<path d="M85.9725 11.017C87.0444 11.017 87.9073 11.7229 88.1687 12.8211L92.8227 11.3308C91.9337 8.53314 89.3714 6.78136 85.9725 6.78136C81.6584 6.78136 78.7562 9.52668 78.7562 13.5793C78.7562 17.6319 81.6584 20.3772 85.9725 20.3772C89.3976 20.3772 91.9599 18.5993 92.8488 15.8017L88.1687 14.2852C87.9334 15.3834 87.0706 16.1416 85.9725 16.1416C84.639 16.1416 83.6455 15.0435 83.6455 13.5793C83.6455 12.1151 84.6129 11.017 85.9725 11.017Z" fill="#969798"/>
<path d="M93.5654 13.5793C93.5654 17.6581 96.0231 20.3772 99.6574 20.3772C101.357 20.3772 102.821 19.7759 103.893 18.6778V19.9851H108.939V7.17355H103.893V8.4547C102.821 7.38272 101.357 6.78136 99.6574 6.78136C96.0231 6.78136 93.5654 9.50054 93.5654 13.5793ZM101.278 10.7555C102.769 10.7555 103.893 11.9321 103.893 13.5793C103.893 15.2265 102.769 16.3769 101.278 16.3769C99.7881 16.3769 98.6377 15.2003 98.6377 13.5793C98.6377 11.9583 99.7881 10.7555 101.278 10.7555Z" fill="#969798"/>
<path d="M110.57 13.5793C110.57 17.6581 113.028 20.3772 116.662 20.3772C118.387 20.3772 119.826 19.7759 120.897 18.6778V19.9851H125.944V2.46729H120.897V8.4547C119.826 7.38272 118.387 6.78136 116.662 6.78136C113.028 6.78136 110.57 9.50054 110.57 13.5793ZM118.283 10.7555C119.773 10.7555 120.897 11.9321 120.897 13.5793C120.897 15.2265 119.799 16.3769 118.283 16.3769C116.793 16.3769 115.642 15.2003 115.668 13.5793C115.668 11.9583 116.793 10.7555 118.283 10.7555Z" fill="#969798"/>
<path d="M127.601 13.5793C127.601 17.6319 130.529 20.3772 134.791 20.3772C139.027 20.3772 141.955 17.6319 141.955 13.5793C141.955 9.52668 139.027 6.78136 134.791 6.78136C130.529 6.78136 127.601 9.52668 127.601 13.5793ZM134.791 11.017C136.098 11.017 137.066 12.089 137.066 13.5793C137.066 15.0696 136.098 16.1416 134.791 16.1416C133.484 16.1416 132.49 15.0435 132.49 13.5793C132.49 12.089 133.484 11.017 134.791 11.017Z" fill="#969798"/>
<path d="M150.527 10.7555C151.704 10.7555 152.488 11.7229 152.488 13.0825V19.9851H157.534V13.0825C157.534 9.36981 155.442 6.78136 152.383 6.78136C150.867 6.78136 149.586 7.40886 148.671 8.53314V7.17355H143.598V19.9851H148.671V13.0041C148.697 11.6968 149.455 10.7555 150.527 10.7555Z" fill="#969798"/>
</svg>
