<svg width="170" height="90" viewBox="0 0 170 90" fill="none" xmlns="http://www.w3.org/2000/svg">
<mask id="mask0_1042_1720" style="mask-type:luminance" maskUnits="userSpaceOnUse" x="8" y="19" width="155" height="51">
<path d="M163 19.4868H8V69.5133H163V19.4868Z" fill="white"/>
</mask>
<g mask="url(#mask0_1042_1720)">
<path d="M93.5046 51.5485C92.2277 51.5485 91.205 51.1896 90.4349 50.4685C89.664 49.7474 89.2852 48.7991 89.2852 47.6236V44.0905C89.2852 42.915 89.6737 41.9634 90.4448 41.2456C91.2149 40.5278 92.2375 40.1655 93.5144 40.1655C94.7914 40.1655 95.7968 40.5245 96.5677 41.2456C97.3386 41.9666 97.7167 42.9084 97.7167 44.0839V47.617C97.7167 48.7926 97.3353 49.7342 96.5677 50.4553C95.8001 51.1764 94.7848 51.5354 93.5144 51.5354L93.5079 51.5518L93.5046 51.5485ZM95.3039 49.293C95.7542 48.8617 95.9862 48.292 95.9862 47.5808V44.1432C95.9862 43.4319 95.7574 42.8623 95.3039 42.431C94.8496 41.9996 94.2493 41.7823 93.5046 41.7823C92.7599 41.7823 92.1391 41.9996 91.6823 42.431C91.2214 42.8623 90.9934 43.4319 90.9934 44.1432V47.5808C90.9934 48.292 91.2214 48.8617 91.6823 49.293C92.1424 49.7244 92.7534 49.9417 93.5046 49.9417C94.2558 49.9417 94.8529 49.7244 95.3039 49.293Z" fill="#969798"/>
<path d="M103.471 42.9509C103.732 42.9278 103.859 43.0563 103.859 43.3362V44.2482C103.859 44.4952 103.732 44.6236 103.487 44.6236C102.733 44.6236 102.155 44.8146 101.75 45.2064C101.345 45.5983 101.139 46.1185 101.139 46.7672V50.9555C101.139 51.2024 101.012 51.3309 100.767 51.3309H99.8948C99.6504 51.3309 99.5225 51.2024 99.5225 50.9555V43.5205C99.5225 43.2736 99.6504 43.1452 99.8948 43.1452H100.767C101.012 43.1452 101.139 43.2736 101.139 43.5205V44.617H101.244C101.577 43.5469 102.321 42.9937 103.481 42.9608L103.475 42.9542L103.471 42.9509Z" fill="#969798"/>
<path d="M109.31 42.9672C110.11 42.9672 110.76 43.2142 111.26 43.7114C111.759 44.2086 112.004 44.854 112.004 45.6607V48.8415C112.004 49.6482 111.759 50.3035 111.26 50.8006C110.76 51.2979 110.11 51.5448 109.31 51.5448C108.749 51.5448 108.255 51.4098 107.828 51.1366C107.4 50.8632 107.106 50.5142 106.946 50.073H106.841V50.962C106.841 51.209 106.714 51.3374 106.469 51.3374H105.597C105.352 51.3374 105.225 51.209 105.225 50.962V40.2574C105.225 40.0104 105.352 39.882 105.597 39.8721H106.469C106.714 39.8721 106.841 40.0005 106.841 40.2574V44.416H106.946C107.112 43.9748 107.406 43.6258 107.828 43.3525C108.248 43.0793 108.739 42.9442 109.303 42.9442L109.31 42.9672ZM110.388 46.148C110.388 45.6442 110.227 45.2458 109.911 44.9495C109.594 44.6531 109.182 44.5017 108.667 44.5017C108.151 44.5017 107.7 44.663 107.357 44.9824C107.017 45.3018 106.851 45.687 106.851 46.1349V48.3904C106.851 48.8382 107.017 49.2235 107.35 49.5428C107.683 49.8623 108.121 50.0236 108.65 50.0236C109.179 50.0236 109.588 49.8721 109.904 49.5758C110.221 49.2794 110.381 48.881 110.381 48.3772L110.388 46.1547V46.148Z" fill="#969798"/>
<path d="M114.43 41.7523C114.12 41.7523 113.875 41.6567 113.692 41.4724C113.509 41.288 113.415 41.041 113.415 40.738C113.415 40.4352 113.509 40.2014 113.699 40.017C113.888 39.8326 114.137 39.7437 114.437 39.7437C114.737 39.7437 114.986 39.8326 115.175 40.017C115.364 40.2014 115.459 40.4417 115.459 40.738C115.459 41.0344 115.364 41.2913 115.175 41.4724C114.986 41.6534 114.737 41.7523 114.437 41.7523H114.43ZM113.62 50.9554V43.5204C113.62 43.2735 113.748 43.145 113.992 43.145H114.865C115.109 43.145 115.237 43.2735 115.237 43.5204V50.9554C115.237 51.2023 115.109 51.3308 114.865 51.3308H113.992C113.748 51.3308 113.62 51.2023 113.62 50.9554Z" fill="#969798"/>
<path d="M119.635 44.6296V48.7719C119.635 49.1011 119.73 49.3546 119.92 49.5489C120.109 49.7432 120.363 49.8354 120.69 49.8354H121.134C121.38 49.8354 121.507 49.9638 121.507 50.2107V50.9616C121.507 51.2085 121.38 51.3369 121.134 51.3369H120.286C119.602 51.3369 119.057 51.1361 118.643 50.7442C118.228 50.3524 118.025 49.8321 118.025 49.1835V44.6098H116.964C116.719 44.6098 116.592 44.4814 116.592 44.2345V43.4837C116.592 43.2532 116.703 43.1413 116.931 43.1413H117.582C117.954 43.1413 118.137 42.9569 118.137 42.5815V41.3895C118.137 41.1426 118.264 41.0142 118.509 41.0142H119.269C119.515 41.0142 119.642 41.1426 119.642 41.3895V43.1413H121.235C121.48 43.1413 121.608 43.2697 121.608 43.5166V44.2378C121.608 44.4847 121.48 44.6131 121.235 44.6131L119.635 44.6296Z" fill="#969798"/>
<path d="M126.239 42.9509C127.232 42.9509 128.022 43.1979 128.617 43.7017C129.21 44.2055 129.505 44.8706 129.505 45.6937V50.9555C129.505 51.2025 129.377 51.3309 129.133 51.3309H128.339C128.094 51.3309 127.966 51.2025 127.966 50.9555V50.1324H127.833C127.66 50.5571 127.366 50.893 126.944 51.1465C126.523 51.4 126.024 51.5317 125.439 51.5317C124.613 51.5317 123.956 51.3145 123.457 50.8766C122.957 50.4386 122.712 49.8525 122.712 49.1248C122.712 48.3971 122.957 47.7814 123.45 47.3335C123.943 46.8858 124.6 46.6618 125.426 46.6618H127.892V45.8782C127.892 45.4238 127.742 45.055 127.441 44.7817C127.14 44.5084 126.726 44.3734 126.203 44.3734C125.308 44.3734 124.793 44.6862 124.665 45.3184C124.603 45.5489 124.476 45.6609 124.277 45.6609H123.411C123.166 45.6609 123.038 45.5324 123.038 45.2855C123.038 44.5742 123.339 44.0046 123.943 43.5831C124.547 43.1584 125.315 42.9443 126.259 42.9443L126.242 42.9509H126.239ZM125.955 50.1719C126.516 50.1719 126.977 50.0435 127.336 49.7866C127.696 49.5298 127.875 49.2038 127.875 48.8021V47.946H125.609C125.22 47.946 124.91 48.0415 124.681 48.2424C124.453 48.4432 124.341 48.6967 124.341 49.0096C124.341 49.3619 124.492 49.6417 124.786 49.8492C125.08 50.0566 125.475 50.162 125.974 50.162L125.958 50.1686L125.955 50.1719Z" fill="#969798"/>
<path d="M133.417 51.3311C132.757 51.3311 132.228 51.1401 131.823 50.7548C131.418 50.3696 131.213 49.8658 131.213 49.2435V40.2412C131.213 39.9942 131.34 39.8658 131.584 39.856H132.467C132.711 39.856 132.839 39.9843 132.839 40.2412V48.8352C132.839 49.1315 132.927 49.3719 133.11 49.5563C133.293 49.7407 133.531 49.8296 133.831 49.8296H134.031C134.197 49.8296 134.276 49.9087 134.269 50.07V50.959C134.269 51.206 134.141 51.3344 133.897 51.3344H133.42L133.417 51.3311Z" fill="#969798"/>
<path d="M91.3977 58.9075V61.9697H95.4572C95.7188 61.9697 95.846 62.1047 95.846 62.3845V63.1353C95.846 63.4086 95.7188 63.5436 95.4572 63.5436H91.3977V66.7013H96.0616C96.3323 66.7013 96.466 66.8298 96.466 67.0932V67.8834C96.466 68.1567 96.3323 68.2918 96.0616 68.2918H90.0987C89.8272 68.2918 89.6934 68.1567 89.6934 67.8834V57.7286C89.6934 57.4554 89.8272 57.3203 90.0987 57.3203H96.0616C96.3323 57.3203 96.466 57.4554 96.466 57.7286V58.5123C96.466 58.7758 96.3323 58.9042 96.0616 58.9042H91.3977V58.9075Z" fill="#969798"/>
<path d="M100.27 68.2916C99.6107 68.2916 99.0817 68.1007 98.6766 67.7154C98.2714 67.3301 98.0664 66.8264 98.0664 66.204V57.2017C98.0664 56.9548 98.1935 56.8263 98.4379 56.8164H99.3203C99.5647 56.8164 99.6927 56.9448 99.6927 57.2017V65.7957C99.6927 66.092 99.7804 66.3324 99.9633 66.5168C100.146 66.7012 100.385 66.7901 100.685 66.7901H100.884C101.051 66.7901 101.13 66.8691 101.123 67.0305V67.9195C101.123 68.1665 100.995 68.2949 100.751 68.2949H100.273L100.27 68.2916Z" fill="#969798"/>
<path d="M103.82 64.8143V65.407C103.82 65.9108 103.987 66.3092 104.32 66.6055C104.653 66.9019 105.097 67.0533 105.652 67.0533C106.089 67.0533 106.452 66.9743 106.746 66.813C107.04 66.6516 107.229 66.4277 107.317 66.1478C107.406 65.9305 107.539 65.8185 107.722 65.8185H108.61C108.728 65.8185 108.826 65.8415 108.895 65.8976C108.963 65.9536 108.999 66.0326 108.983 66.1445C108.895 66.8722 108.555 67.4485 107.951 67.8634C107.347 68.2782 106.585 68.4857 105.659 68.4857C104.62 68.4857 103.787 68.1992 103.16 67.623C102.533 67.0467 102.217 66.2861 102.217 65.3444V63.0263C102.217 62.0912 102.527 61.3306 103.153 60.7544C103.781 60.1781 104.603 59.8916 105.619 59.8916C106.635 59.8916 107.458 60.1781 108.085 60.7544C108.712 61.3306 109.022 62.0912 109.022 63.0329V64.4389C109.015 64.6859 108.888 64.8143 108.64 64.8143L103.82 64.8076V64.8143ZM104.303 61.7685C103.977 62.0648 103.82 62.4632 103.82 62.967V63.4774H107.363V62.967C107.363 62.4632 107.203 62.0648 106.88 61.7685C106.554 61.4721 106.125 61.3273 105.587 61.3273C105.048 61.3273 104.626 61.4721 104.303 61.7685Z" fill="#969798"/>
<path d="M112.921 68.2852C112.683 68.2852 112.539 68.1798 112.5 67.9724L109.956 60.5209C109.916 60.3859 109.923 60.2805 109.979 60.2081C110.034 60.1357 110.122 60.0962 110.239 60.0962H111.302C111.529 60.0962 111.666 60.2081 111.706 60.4387L113.571 66.4512H113.688L115.537 60.4387C115.576 60.2081 115.71 60.0962 115.942 60.0962H116.934C117.052 60.0962 117.14 60.1357 117.196 60.2147C117.251 60.2938 117.258 60.3991 117.219 60.5276L114.675 67.979C114.635 68.1865 114.492 68.2918 114.247 68.2918H112.947L112.925 68.2852H112.921Z" fill="#969798"/>
<path d="M121.526 59.9148C122.519 59.9148 123.309 60.1618 123.904 60.6656C124.498 61.1694 124.792 61.8345 124.792 62.6576V67.9194C124.792 68.1663 124.665 68.2948 124.42 68.2948H123.626C123.381 68.2948 123.253 68.1663 123.253 67.9194V67.0963H123.12C122.947 67.521 122.653 67.8568 122.232 68.1104C121.81 68.3673 121.311 68.4956 120.726 68.4956C119.9 68.4956 119.244 68.2784 118.744 67.8404C118.244 67.3992 117.999 66.8164 117.999 66.0887C117.999 65.361 118.244 64.7453 118.737 64.2974C119.231 63.8496 119.887 63.6257 120.713 63.6257H123.179V62.8421C123.179 62.3876 123.029 62.0188 122.728 61.7456C122.428 61.4722 122.013 61.3372 121.49 61.3372C120.595 61.3372 120.08 61.65 119.953 62.2822C119.89 62.5128 119.763 62.6247 119.564 62.6247H118.699C118.453 62.6247 118.326 62.4963 118.326 62.2494C118.326 61.5381 118.626 60.9684 119.231 60.547C119.834 60.1255 120.602 59.9082 121.546 59.9082L121.53 59.9148H121.526ZM121.243 67.1358C121.803 67.1358 122.264 67.0074 122.624 66.7505C122.983 66.4937 123.162 66.1677 123.162 65.766V64.9099H120.896C120.508 64.9099 120.197 65.0053 119.969 65.2063C119.74 65.4071 119.629 65.6606 119.629 65.9734C119.629 66.3258 119.779 66.6056 120.073 66.8131C120.367 67.0205 120.762 67.1259 121.261 67.1259L121.245 67.1324L121.243 67.1358Z" fill="#969798"/>
<path d="M132.773 56.8133C133.017 56.8133 133.145 56.9418 133.145 57.1985V67.9032C133.145 68.1502 133.017 68.2786 132.773 68.2786H131.891C131.646 68.2786 131.519 68.1502 131.519 67.9032V67.0142H131.424C131.257 67.4554 130.964 67.8045 130.542 68.0777C130.121 68.3511 129.631 68.4861 129.066 68.4861C128.267 68.4861 127.616 68.2391 127.117 67.7419C126.617 67.2447 126.372 66.5894 126.372 65.7828V62.602C126.372 61.7952 126.617 61.14 127.117 60.6427C127.616 60.1456 128.267 59.8986 129.066 59.8986C129.628 59.8986 130.121 60.0336 130.542 60.3069C130.964 60.5802 131.257 60.9292 131.424 61.3705H131.519V57.2117C131.519 56.9648 131.646 56.8364 131.891 56.8265H132.773V56.8101V56.8133ZM129.713 66.9517C130.245 66.9517 130.679 66.7903 131.013 66.4709C131.346 66.1515 131.512 65.7663 131.512 65.3184V63.063C131.512 62.6151 131.346 62.2299 131.013 61.9105C130.679 61.5911 130.252 61.4297 129.72 61.4297C129.187 61.4297 128.782 61.5746 128.466 61.8709C128.148 62.1673 127.989 62.5657 127.989 63.0695V65.2921C127.989 65.7959 128.148 66.1943 128.466 66.4907C128.782 66.787 129.203 66.9319 129.72 66.9319L129.713 66.9484V66.9517Z" fill="#969798"/>
<path d="M138.138 68.493C137.123 68.493 136.306 68.2064 135.68 67.6302C135.052 67.054 134.742 66.2934 134.742 65.3516V63.0336C134.742 62.0984 135.052 61.3378 135.68 60.7616C136.306 60.1854 137.13 59.8989 138.145 59.8989C139.161 59.8989 139.977 60.1854 140.594 60.7616C141.211 61.3378 141.522 62.0984 141.522 63.0402V65.3583C141.522 66.2934 141.211 67.054 140.594 67.6302C139.977 68.2064 139.158 68.493 138.145 68.493H138.138ZM138.132 66.9882C138.664 66.9882 139.092 66.8367 139.409 66.5403C139.725 66.244 139.886 65.8456 139.886 65.3484V63.0632C139.886 62.5759 139.725 62.1742 139.409 61.8713C139.092 61.5683 138.664 61.4169 138.132 61.4169C137.599 61.4169 137.172 61.5683 136.848 61.8646C136.525 62.161 136.365 62.5594 136.365 63.0567V65.3418C136.365 65.8291 136.532 66.221 136.858 66.5239C137.184 66.8269 137.613 66.9782 138.142 66.9782L138.135 66.9849L138.132 66.9882Z" fill="#969798"/>
<path d="M147.081 59.9152C147.342 59.8922 147.47 60.0206 147.47 60.3005V61.2126C147.47 61.4596 147.342 61.588 147.097 61.588C146.343 61.588 145.765 61.7789 145.359 62.1708C144.955 62.5626 144.749 63.0829 144.749 63.7315V67.9199C144.749 68.1668 144.621 68.2952 144.377 68.2952H143.505C143.26 68.2952 143.133 68.1668 143.133 67.9199V60.4849C143.133 60.2379 143.26 60.1095 143.505 60.1095H144.377C144.621 60.1095 144.749 60.2379 144.749 60.4849V61.5814H144.853C145.186 60.5113 145.931 59.958 147.091 59.9252L147.084 59.9186L147.081 59.9152Z" fill="#969798"/>
<path d="M150.11 64.8143V65.407C150.11 65.9108 150.277 66.3092 150.61 66.6055C150.943 66.9019 151.387 67.0533 151.942 67.0533C152.379 67.0533 152.742 66.9743 153.036 66.813C153.33 66.6516 153.519 66.4277 153.608 66.1478C153.696 65.9305 153.829 65.8185 154.012 65.8185H154.901C155.018 65.8185 155.116 65.8415 155.185 65.8976C155.254 65.9536 155.289 66.0326 155.274 66.1445C155.185 66.8722 154.845 67.4485 154.241 67.8634C153.637 68.2782 152.876 68.4857 151.949 68.4857C150.911 68.4857 150.077 68.1992 149.451 67.623C148.823 67.0467 148.507 66.2861 148.507 65.3444V63.0263C148.507 62.0912 148.817 61.3306 149.444 60.7544C150.071 60.1781 150.894 59.8916 151.909 59.8916C152.925 59.8916 153.748 60.1781 154.375 60.7544C155.002 61.3306 155.312 62.0912 155.312 63.0329V64.4389C155.306 64.6859 155.178 64.8143 154.93 64.8143L150.11 64.8076V64.8143ZM150.593 61.7685C150.267 62.0648 150.11 62.4632 150.11 62.967V63.4774H153.653V62.967C153.653 62.4632 153.493 62.0648 153.17 61.7685C152.847 61.4721 152.415 61.3273 151.877 61.3273C151.338 61.3273 150.917 61.4721 150.593 61.7685Z" fill="#969798"/>
<path d="M159.774 68.4923C158.853 68.4923 158.108 68.2915 157.537 67.8832C156.965 67.4749 156.642 66.9085 156.553 66.1809C156.531 66.0624 156.553 65.9635 156.616 65.901C156.678 65.8384 156.776 65.8055 156.91 65.8055H157.853C158.036 65.8055 158.164 65.9174 158.235 66.1479C158.408 66.7637 158.918 67.0666 159.757 67.06C160.224 67.06 160.59 66.9711 160.861 66.7966C161.132 66.6221 161.266 66.3817 161.266 66.0755C161.266 65.7693 161.106 65.5322 160.789 65.3544C160.473 65.1766 160.084 65.0416 159.63 64.9395C159.176 64.8374 158.726 64.709 158.275 64.5543C157.824 64.3995 157.436 64.1459 157.115 63.7871C156.795 63.4281 156.639 62.954 156.639 62.3811C156.639 61.5974 156.916 60.9882 157.471 60.5569C158.026 60.1255 158.764 59.9082 159.682 59.9082C160.6 59.9082 161.292 60.0926 161.837 60.468C162.386 60.8434 162.703 61.3702 162.788 62.0518C162.821 62.3152 162.693 62.4436 162.415 62.4436H161.56C161.471 62.4436 161.4 62.4206 161.338 62.3811C161.275 62.3415 161.234 62.3086 161.221 62.2855C161.207 62.2625 161.165 62.1966 161.102 62.0946C160.842 61.5908 160.387 61.3439 159.738 61.3439C159.316 61.3439 158.983 61.4229 158.738 61.5908C158.494 61.7587 158.372 61.9827 158.372 62.2625C158.372 62.5589 158.533 62.7893 158.85 62.9573C159.166 63.1252 159.555 63.2602 160.008 63.3557C160.463 63.4512 160.913 63.573 161.364 63.7146C161.814 63.8595 162.203 64.1131 162.524 64.4819C162.844 64.8506 163 65.3215 163 65.9042C163 66.711 162.716 67.3432 162.135 67.7976C161.553 68.252 160.779 68.4858 159.797 68.4858H159.774V68.4923Z" fill="#969798"/>
<path d="M60.3805 40.0103H70.9024C71.2845 40.0103 71.5164 40.435 71.3139 40.7577L66.053 49.1772C65.8635 49.4801 65.4226 49.4801 65.2333 49.1772L59.9723 40.7577C59.7699 40.4317 60.0017 40.0103 60.3838 40.0103H60.3805Z" fill="#969798"/>
<path d="M30.2817 48.1661H19.7598C19.3777 48.1661 19.1459 47.7414 19.3483 47.4187L24.6093 38.9991C24.7986 38.6963 25.2395 38.6963 25.4289 38.9991L30.6898 47.4187C30.8923 47.7446 30.6605 48.1661 30.2784 48.1661H30.2817Z" fill="#969798"/>
<path d="M76.9961 20.6821H49.7836C49.0423 20.6821 48.4414 21.288 48.4414 22.0354V66.9648C48.4414 67.7122 49.0423 68.3181 49.7836 68.3181H76.9961C77.7375 68.3181 78.3383 67.7122 78.3383 66.9648V63.6655C78.3383 62.918 77.7375 62.3121 76.9961 62.3121H54.8878V26.6881H76.9961C77.7375 26.6881 78.3383 26.0822 78.3383 25.3348V22.0354C78.3383 21.288 77.7375 20.6821 76.9961 20.6821Z" fill="#969798"/>
<path d="M24.9682 19.4868C15.6122 19.4868 8 27.1622 8 36.5959V52.4042C8 61.8379 15.6122 69.5133 24.9682 69.5133C34.3242 69.5133 41.9365 61.8379 41.9365 52.4042V36.5959C41.9365 27.1622 34.3242 19.4868 24.9682 19.4868ZM35.4934 52.4042C35.4934 58.2554 30.7712 63.0167 24.9682 63.0167C19.1652 63.0167 14.4431 58.2554 14.4431 52.4042V36.5959C14.4431 30.7447 19.1652 25.9834 24.9682 25.9834C30.7712 25.9834 35.4934 30.7447 35.4934 36.5959V52.4042Z" fill="#969798"/>
</g>
</svg>
