<svg width="102" height="72" viewBox="0 0 102 72" fill="none" xmlns="http://www.w3.org/2000/svg">
<path d="M74.6328 61.5544V46.173H80.9167V60.1945C80.9167 62.0702 81.2606 63.4927 81.9484 64.4619C82.6362 65.3998 83.6522 65.8687 84.9965 65.8687C85.8093 65.8687 86.6066 65.7124 87.3881 65.3998C88.201 65.0559 88.9357 64.5557 89.5922 63.8991C90.28 63.2426 90.8583 62.4141 91.3273 61.4137V46.173H97.6111V63.7115C97.6111 64.3681 97.7206 64.837 97.9394 65.1184C98.1895 65.3998 98.5803 65.5717 99.1118 65.6342V70.7457C98.4865 70.8395 97.955 70.9021 97.5174 70.9333C97.1109 70.9958 96.7358 71.0271 96.3919 71.0271C95.2664 71.0271 94.3442 70.777 93.6251 70.2768C92.9373 69.7453 92.5309 69.0263 92.4059 68.1196L92.2652 66.1501C91.171 67.807 89.7641 69.0732 88.0447 69.9485C86.3252 70.7926 84.4338 71.2147 82.3704 71.2147C79.8381 71.2147 77.9154 70.4018 76.6024 68.7762C75.2893 67.1192 74.6328 64.712 74.6328 61.5544ZM88.1853 43.3124L84.1524 42.0931L86.6847 36.5127H92.5465L88.1853 43.3124Z" fill="#969798"/>
<path d="M71.3635 51.6128C69.4565 51.6128 67.7526 51.9879 66.252 52.7382C64.7514 53.4573 63.6728 54.5046 63.0163 55.8802V70.7457H56.7324V46.173H62.5005V51.4252C63.3758 49.737 64.4857 48.4083 65.83 47.4391C67.1743 46.47 68.5967 45.9385 70.0974 45.8447C70.4413 45.8447 70.707 45.8447 70.8946 45.8447C71.0822 45.8447 71.2385 45.8604 71.3635 45.8916V51.6128Z" fill="#969798"/>
<path d="M40.0562 71.2147C38.0866 71.2147 36.3046 70.8865 34.7102 70.2299C33.1158 69.5422 31.7558 68.6199 30.6304 67.4632C29.5049 66.2752 28.6295 64.9309 28.0043 63.4302C27.4103 61.8983 27.1133 60.2883 27.1133 58.6001C27.1133 56.2554 27.6291 54.1138 28.6608 52.1755C29.7237 50.2372 31.2244 48.6897 33.1627 47.533C35.1323 46.345 37.4457 45.751 40.1031 45.751C42.7917 45.751 45.0895 46.345 46.9966 47.533C48.9036 48.6897 50.3574 50.2372 51.3578 52.1755C52.3895 54.0826 52.9053 56.1459 52.9053 58.3656C52.9053 58.7408 52.8897 59.1316 52.8584 59.538C52.8271 59.9131 52.7959 60.2258 52.7646 60.4759H33.7723C33.8974 61.7264 34.2569 62.8206 34.8509 63.7585C35.4761 64.6964 36.2577 65.4154 37.1956 65.9156C38.1648 66.3846 39.1965 66.6191 40.2907 66.6191C41.5412 66.6191 42.7135 66.3221 43.8078 65.7281C44.9332 65.1028 45.6992 64.29 46.1056 63.2896L51.4985 64.7902C50.9045 66.0407 50.0447 67.1505 48.9193 68.1197C47.8251 69.0888 46.5276 69.8548 45.027 70.4175C43.5264 70.949 41.8694 71.2147 40.0562 71.2147ZM33.6316 56.4898H46.4807C46.3557 55.2393 45.9962 54.1607 45.4022 53.2541C44.8394 52.3162 44.0891 51.5972 43.1512 51.097C42.2133 50.5655 41.166 50.2998 40.0093 50.2998C38.8838 50.2998 37.8521 50.5655 36.9142 51.097C36.0076 51.5972 35.2573 52.3162 34.6633 53.2541C34.1006 54.1607 33.7567 55.2393 33.6316 56.4898Z" fill="#969798"/>
<path d="M0.556641 70.7458V37.4507H14.6719C16.2038 37.4507 17.6106 37.7633 18.8924 38.3886C20.1742 39.0138 21.284 39.8579 22.2219 40.9209C23.1911 41.9838 23.9414 43.1718 24.4729 44.4849C25.0043 45.7979 25.2701 47.1422 25.2701 48.5178C25.2701 50.3936 24.8324 52.1756 23.957 53.8638C23.0817 55.552 21.878 56.9276 20.3462 57.9905C18.8143 59.0535 17.001 59.5849 14.9064 59.5849H7.02809V70.7458H0.556641ZM7.02809 53.9107H14.5312C15.3128 53.9107 16.0162 53.6918 16.6415 53.2542C17.2667 52.8165 17.767 52.1912 18.1421 51.3784C18.5173 50.5343 18.7048 49.5808 18.7048 48.5178C18.7048 47.3611 18.486 46.3763 18.0483 45.5634C17.6419 44.7506 17.0948 44.141 16.407 43.7346C15.7505 43.3281 15.0314 43.1249 14.2499 43.1249H7.02809V53.9107Z" fill="#969798"/>
<path d="M98.3501 34.233L89.2994 21.7122L84.0941 26.5892V34.233H80.9053V0H84.0941V23.1659L97.928 9.84786H101.445L91.4566 19.8364L101.82 34.233H98.3501Z" fill="#969798"/>
<path d="M65.7668 34.702C63.9849 34.702 62.3435 34.3737 60.8429 33.7172C59.3736 33.0294 58.0761 32.0915 56.9507 30.9035C55.8565 29.7155 54.9967 28.3556 54.3715 26.8237C53.7775 25.2918 53.4805 23.6661 53.4805 21.9467C53.4805 19.6332 53.9963 17.5229 55.028 15.6159C56.0597 13.7088 57.4978 12.1926 59.3423 11.0671C61.1868 9.94164 63.3127 9.37891 65.72 9.37891C68.0022 9.37891 70.0186 9.91038 71.7694 10.9733C73.5201 12.005 74.8175 13.4118 75.6616 15.1938L72.5666 16.1786C71.8788 14.9281 70.9096 13.9589 69.6591 13.2712C68.4398 12.5521 67.0799 12.1926 65.5793 12.1926C63.9536 12.1926 62.4686 12.6146 61.1243 13.4587C59.78 14.3028 58.7014 15.4596 57.8886 16.9289C57.107 18.3983 56.7162 20.0709 56.7162 21.9467C56.7162 23.7912 57.1226 25.4637 57.9355 26.9644C58.7483 28.465 59.8269 29.6686 61.1712 30.5753C62.5155 31.4506 64.0005 31.8883 65.6262 31.8883C66.6891 31.8883 67.7052 31.7007 68.6743 31.3256C69.6747 30.9504 70.5345 30.4502 71.2535 29.8249C72.0038 29.1684 72.504 28.465 72.7541 27.7147L75.8961 28.6526C75.4584 29.8093 74.7237 30.8566 73.692 31.7945C72.6916 32.7011 71.5036 33.4202 70.128 33.9517C68.7837 34.4519 67.33 34.702 65.7668 34.702Z" fill="#969798"/>
<path d="M27.6445 27.1988C27.6445 25.667 28.0822 24.3539 28.9576 23.2597C29.8329 22.1342 31.0366 21.2745 32.5685 20.6805C34.1316 20.0552 35.9292 19.7426 37.9613 19.7426C39.1493 19.7426 40.3842 19.8364 41.666 20.024C42.9478 20.2116 44.0889 20.4929 45.0893 20.8681V18.8047C45.0893 16.7414 44.4797 15.1 43.2604 13.8808C42.0412 12.6615 40.353 12.0519 38.1958 12.0519C36.8828 12.0519 35.5853 12.302 34.3036 12.8022C33.053 13.2712 31.74 13.9746 30.3644 14.9125L29.1452 12.6615C30.7396 11.5673 32.3027 10.7545 33.8346 10.223C35.3665 9.66027 36.9297 9.37891 38.5241 9.37891C41.5253 9.37891 43.9013 10.2386 45.6521 11.9581C47.4028 13.6776 48.2781 16.0536 48.2781 19.0861V30.3877C48.2781 30.8254 48.3719 31.1536 48.5595 31.3725C48.7471 31.56 49.0441 31.6695 49.4505 31.7007V34.233C49.1066 34.2643 48.8096 34.2956 48.5595 34.3268C48.3094 34.3581 48.1218 34.3581 47.9968 34.3268C47.2152 34.2956 46.6212 34.0455 46.2148 33.5765C45.8084 33.1076 45.5895 32.6074 45.5583 32.0759L45.5114 30.2939C44.4172 31.7007 42.9947 32.7949 41.244 33.5765C39.4932 34.3268 37.7112 34.702 35.898 34.702C34.3348 34.702 32.9124 34.3737 31.6306 33.7172C30.38 33.0294 29.3953 32.1228 28.6762 30.9973C27.9884 29.8406 27.6445 28.5744 27.6445 27.1988ZM44.0107 29.0746C44.3546 28.6369 44.6204 28.2149 44.8079 27.8085C44.9955 27.4021 45.0893 27.0425 45.0893 26.7299V23.1659C44.0264 22.7595 42.9165 22.4469 41.7598 22.228C40.6343 22.0092 39.4932 21.8998 38.3365 21.8998C36.0543 21.8998 34.2098 22.3531 32.8029 23.2597C31.3961 24.1663 30.6927 25.4012 30.6927 26.9644C30.6927 27.871 30.9272 28.7307 31.3961 29.5436C31.865 30.3252 32.5528 30.9817 33.4595 31.5131C34.3661 32.0134 35.429 32.2635 36.6483 32.2635C38.1802 32.2635 39.6026 31.9665 40.9157 31.3725C42.26 30.7785 43.2917 30.0125 44.0107 29.0746Z" fill="#969798"/>
<path d="M0 34.2331V0.937988H14.0684C15.5065 0.937988 16.8195 1.23499 18.0075 1.82898C19.1955 2.42298 20.2272 3.23582 21.1026 4.2675C22.0092 5.26792 22.697 6.39339 23.1659 7.64391C23.6661 8.86317 23.9162 10.1137 23.9162 11.3955C23.9162 12.9899 23.6036 14.4905 22.9783 15.8974C22.3843 17.3042 21.5246 18.4922 20.3991 19.4613C19.3049 20.4305 18.0075 21.0714 16.5069 21.384L24.6665 34.2331H20.9619L13.1305 21.9468H3.28262V34.2331H0ZM3.28262 19.0393H14.1622C15.4752 19.0393 16.6163 18.6798 17.5855 17.9607C18.5546 17.2417 19.3049 16.3038 19.8364 15.147C20.3679 13.9591 20.6336 12.7085 20.6336 11.3955C20.6336 10.0512 20.321 8.81628 19.6957 7.69081C19.1017 6.53407 18.2889 5.61181 17.2572 4.92403C16.2568 4.20498 15.1313 3.84545 13.8808 3.84545H3.28262V19.0393Z" fill="#969798"/>
</svg>
