<svg width="80" height="38" viewBox="0 0 80 38" fill="none" xmlns="http://www.w3.org/2000/svg">
<path d="M31.3596 3.16068H31.4538L31.7363 3.44802L31.548 3.63957H31.3596L31.1713 3.44802V3.35224L31.3596 3.16068ZM3.01354 7.66226C3.17049 7.66226 3.32745 7.98152 3.4844 8.62004L3.20188 8.90737C3.57858 8.90737 3.92388 9.64167 4.23779 11.1103L6.12125 16.9527L6.02708 16.857L5.46204 17.0485H5.36786L5.27369 16.5696L5.08535 16.7612L5.17952 17.1443L5.08535 17.2401H4.99117V17.1443L4.897 17.2401H4.70865V16.857C4.70865 16.5377 4.80283 16.3781 4.99117 16.3781V16.2823L4.70865 16.1865C4.83422 15.8992 4.95978 15.7396 5.08535 15.7076H5.17952L5.46204 15.8992V15.7076L5.08535 14.4625L4.70865 14.6541L4.14361 14.4625L3.67275 14.5583C2.47989 14.5583 1.88346 14.1113 1.88346 13.2174L0 7.75803L0.0941731 7.66226H3.01354ZM16.1978 7.66226C16.339 7.75803 16.7785 8.97122 17.5162 11.3018L17.6104 11.3976L17.7045 11.3018H17.7987L17.9871 11.4934V11.8765H17.6104L17.7987 12.4512H17.8929C17.8929 12.2277 18.0812 11.9723 18.4579 11.6849C18.4579 11.9882 18.5207 12.2117 18.6463 12.3554V12.5469C18.6463 12.7385 18.3951 12.8343 17.8929 12.8343C18.3951 14.7498 18.7718 15.7076 19.023 15.7076C19.1485 15.7076 19.3683 15.8992 19.6822 16.2823L19.1171 16.9527L21.5656 25.1897C21.6912 25.1897 22.7585 21.9332 24.7675 15.4203L27.3102 7.66226H30.2295L30.4179 7.85381L22.6015 31.4153H20.8122C20.6082 31.4153 20.1373 30.0105 19.3996 27.201L15.256 13.5047H15.1619L9.794 31.4153H8.00471C7.81636 31.4153 7.50245 30.5213 7.06298 28.7335H7.25132V28.6377C6.93741 28.6377 6.78046 28.4781 6.78046 28.1588L6.87463 28.063H6.96881L7.3455 28.4461H7.43967L7.62802 28.2546C7.12576 28.1269 6.87463 27.9992 6.87463 27.8715H7.06298L7.43967 28.063V27.9672C6.43516 27.201 5.9329 26.339 5.9329 25.3812V25.2854L6.40377 25.1897V25.0939C5.80734 25.0939 5.43065 24.5192 5.27369 23.3699L5.36786 23.2741C5.13243 23.2741 4.97548 22.9868 4.897 22.4121L5.08535 21.9332L4.99117 22.029H4.897L4.70865 21.8374L4.80283 21.7417C4.61448 21.6778 4.52031 21.4862 4.52031 21.167L4.897 20.8796C4.897 20.7519 4.80283 20.6881 4.61448 20.6881V20.5923L4.80283 20.4008C4.92839 20.5285 5.21091 20.5923 5.65038 20.5923L5.9329 20.9754V21.2628L5.83873 21.3585V21.4543C6.34099 21.4543 6.59211 21.6139 6.59211 21.9332H6.78046V21.6459C6.46655 21.6459 6.21542 21.1989 6.02708 20.305H5.9329L5.55621 20.4008L5.27369 20.305V20.1134H5.46204L5.36786 19.8261L5.27369 19.9219H5.17952L5.08535 19.8261V19.6345L5.27369 19.443L5.65038 20.0176L5.9329 20.1134L6.12125 19.7303L6.02708 19.3472L6.40377 18.581V18.3894H6.21542V18.0063L6.40377 17.8147L8.19306 23.3699L8.09888 23.4657C8.27153 23.4657 8.49127 24.0403 8.75809 25.1897C8.86796 25.1098 9.33883 23.7051 10.1707 20.9754C11.3635 20.4646 11.96 19.8261 11.96 19.0599V18.7725C11.96 18.6767 11.6147 18.5171 10.9241 18.2936L11.2066 17.6232L11.5833 17.8147L11.6775 17.719V17.6232C11.6775 17.5114 11.5205 17.4157 11.2066 17.3359C11.5833 15.7396 12.0542 14.9414 12.6192 14.9414L12.9959 14.8456V14.7498L12.525 14.3667C12.525 14.239 12.4308 14.1752 12.2425 14.1752C12.321 13.5367 12.4465 13.2174 12.6192 13.2174L12.8075 13.4089L12.7134 13.5047V13.6005L12.9017 14.1752H13.2784L13.6551 13.9836V13.6963L13.2784 13.6005V13.4089H13.4667V13.3132C12.9645 13.3132 12.6506 13.1855 12.525 12.9301L14.2201 7.66226H16.1978ZM15.1619 8.3327V8.62004C15.2874 8.62004 15.3502 8.71582 15.3502 8.90737L15.4444 9.00315H15.5386V8.90737L15.256 8.3327H15.1619ZM25.6151 10.5356H25.7092V10.6314L25.5209 10.8229H25.3326L25.6151 10.5356ZM13.1842 12.4512V12.5469L13.6551 12.8343H13.8434V12.5469L13.2784 12.4512H13.1842ZM13.0901 12.6427L13.2784 12.8343H13.3726L13.1842 12.6427H13.0901ZM13.8434 13.4089L14.2201 13.9836L14.5026 13.8878V13.7921L13.9376 13.4089H13.8434ZM13.1842 15.995V16.1865H13.3726V15.995H13.1842ZM4.52031 18.2936C4.64587 18.2936 4.70865 18.4533 4.70865 18.7725L4.80283 18.6767H5.17952L4.99117 18.8683H4.52031V18.2936ZM5.46204 18.2936L5.55621 18.3894V18.4852L5.46204 18.581H5.27369V18.4852L5.46204 18.2936ZM5.36786 22.4121V22.5079H5.55621V22.4121H5.36786ZM8.75809 28.8292L8.94644 29.0208H9.04061L8.85227 28.8292H8.75809Z" fill="#10A466"/>
<path d="M30.5356 0H33.1725L33.3608 0.191556V4.78891L33.1725 4.98047H30.5356L30.3473 4.78891V0.191556L30.5356 0ZM30.5356 7.66226H33.1725L33.3608 7.85381L33.1725 8.04537L33.3608 8.23692V22.3163L33.2666 22.4121L33.3608 22.5079V31.2237L33.1725 31.4153H30.5356L30.3473 31.2237V26.1474H30.4414C31.3204 26.8339 31.854 27.5362 32.0424 28.2546H32.2307V28.1588C32.2307 27.8236 31.6029 27.0254 30.3473 25.7643V24.4234C30.9751 23.9286 31.289 23.4497 31.289 22.9868L31.6657 22.4121L31.5715 21.7417L31.6657 21.6459C31.4616 21.6459 31.1477 21.0712 30.724 19.9219V19.5388H30.6298L30.5356 19.6345H30.4414L30.5356 20.1134V20.4008C30.8338 20.4008 31.085 20.8158 31.289 21.6459L31.1948 22.1248C31.3832 22.1248 31.4773 22.1886 31.4773 22.3163L31.3832 22.4121C31.2576 22.5079 31.1948 22.6994 31.1948 22.9868H30.8181L30.9123 23.4657C30.6612 23.4657 30.5356 23.5934 30.5356 23.8488H30.3473V23.6572L30.4414 23.5614L30.3473 23.4657V20.1134C30.3473 19.874 30.1903 19.6186 29.8764 19.3472V19.2514L29.4055 19.3472L29.0288 19.0599L28.9347 18.9641V18.8683L29.4055 18.4852H29.5939C29.7194 18.4852 29.7822 18.6768 29.7822 19.0599C30.3787 18.7246 30.7553 18.4054 30.9123 18.1021L31.6657 17.9105V17.719C31.0536 17.719 30.6141 17.5274 30.3473 17.1443C30.3473 16.7931 31.0065 16.5377 32.3249 16.3781C32.3249 16.2823 32.5446 16.2184 32.9841 16.1865V16.0907L32.7958 15.8992L32.0424 16.0907L31.9482 15.995H31.854L30.4414 16.1865L30.3473 15.8992L30.4414 15.4203L30.3473 14.3667V12.5469L30.8181 12.6427H30.9123C31.2419 12.6427 31.4303 12.5469 31.4773 12.3554L31.289 12.1638L30.9123 12.2596L30.6298 12.1638L30.3473 12.2596V11.5892L30.4414 11.4934L30.3473 11.3976V11.206C30.3473 10.791 30.8181 10.2802 31.7599 9.6736V9.38626H31.6657L30.6298 10.344L30.3473 10.4398V7.85381L30.5356 7.66226ZM31.3832 8.23692V8.3327H31.5715V8.23692H31.3832ZM32.0424 8.52426V8.71582L32.2307 8.52426H32.0424ZM32.1366 10.8229V10.9187C32.1366 11.0145 32.3563 11.1741 32.7958 11.3976H33.0783V11.206L32.8899 10.9187V10.6314H33.0783V10.5356H32.9841L32.7016 10.6314L32.5132 10.4398L32.1366 10.8229ZM31.5715 12.7385V12.9301H31.6657V12.7385H31.5715ZM32.1366 13.1216L32.0424 13.4089H32.2307L32.4191 13.2174V13.1216H32.1366ZM30.724 13.6005V13.6963H30.9123V13.6005H30.724ZM31.4773 14.0794V14.1752H31.6657V14.0794H31.4773ZM26.2978 16.7612H26.5803L26.8629 17.0485V17.3359L26.4862 17.6232C26.3292 17.6232 26.1723 17.4636 26.0153 17.1443L26.2978 16.7612ZM30.4414 17.6232L30.8181 17.719V17.9105H30.5356L30.3473 17.719L30.4414 17.6232ZM26.6745 19.443H26.7687L26.957 19.6345V19.8261L26.7687 20.0176H26.6745L26.392 19.7303L26.6745 19.443ZM32.6074 19.8261L32.7958 20.0176H32.8899V19.8261H32.6074ZM32.7016 22.6037L32.8899 22.7952V22.6037H32.7016ZM31.1007 24.5192V24.7108H31.1948V24.5192H31.1007ZM31.1948 24.8066V24.9981H31.289V24.8066H31.1948ZM30.9123 25.1897V25.3812H31.1007L30.9123 25.1897ZM32.0424 25.6686L31.9482 25.7643L32.0424 26.0517H32.3249L32.0424 25.6686ZM31.5715 26.5306V26.6263L31.6657 27.0095H31.7599V26.8179L31.6657 26.5306H31.5715ZM32.0424 26.6263L32.2307 26.8179V26.6263H32.0424ZM32.7016 27.7757V28.063H32.8899V27.9672L32.7016 27.7757Z" fill="#10A466"/>
<path d="M36.2566 7.66226H50.0059L50.1942 7.85381V10.7272C50.1942 11.0464 48.97 12.8662 46.5215 16.1865C46.3645 16.1227 46.1134 15.8034 45.7681 15.2287V14.9414L45.9564 14.6541C45.8937 14.271 45.7995 14.0794 45.6739 14.0794H45.3914L45.4856 14.1752V14.3667H45.3914C45.0147 14.0155 44.8264 13.6963 44.8264 13.4089L46.7098 10.7272V10.6314H42.0012L41.7187 10.2483L41.6245 10.1525H41.5303C41.5303 10.4717 41.4675 10.6314 41.342 10.6314H41.2478L40.8711 10.344C40.8711 10.5356 40.8083 10.6314 40.6828 10.6314H36.2566L36.0683 10.4398V7.85381L36.2566 7.66226ZM44.4497 13.9836H44.638V14.1752H44.4497V13.9836ZM44.7322 14.3667H45.0147L45.2031 15.0372V15.3245L45.0147 15.5161C44.8421 15.5161 44.7165 15.2287 44.638 14.6541L44.7322 14.3667ZM44.1672 14.5583H44.3555C44.6694 15.2607 44.8264 15.7715 44.8264 16.0907C44.8264 17.1124 44.5752 17.6232 44.073 17.6232V17.8147H43.9788C44.3555 18.4213 44.5439 18.8683 44.5439 19.1556L43.9788 19.9219C43.4766 19.3951 43.2254 18.8523 43.2254 18.2936V18.1021C43.0214 18.1021 42.7703 17.7509 42.472 17.0485V16.9527L44.1672 14.5583ZM43.8846 17.0485V17.2401H43.9788V17.0485H43.8846ZM42.472 17.1443C42.8487 17.9744 43.1313 18.8045 43.3196 19.6345C43.3196 20.0815 42.9115 20.3688 42.0954 20.4965V20.5923L42.1895 20.6881C42.8173 20.8637 43.1313 21.0233 43.1313 21.167V21.2628C43.1313 21.6778 42.3465 21.9971 40.7769 22.2205V22.5079L41.8128 22.4121L42.0954 22.5079L42.1895 22.4121L42.2837 22.5079V22.6037L38.3284 28.2546H39.8352L39.9294 28.3503L40.0235 28.2546H42.472V28.3503L42.0012 28.925V29.0208H42.2837C42.2837 28.8452 42.5348 28.5898 43.0371 28.2546H48.3108L48.4991 28.4461V28.5419L48.4049 28.6377V28.7335L48.4991 28.8292H48.5933C48.5933 28.4461 48.6561 28.2546 48.7816 28.2546H49.535L49.8175 28.4461L50.1001 28.2546H50.1942L50.1001 28.7335V28.8292H50.1942L50.2884 28.7335H50.3826L50.4768 29.0208H50.5709V28.8292H50.6651L50.8534 29.0208V29.4997L50.6651 29.787L50.8534 30.0744V31.2237L50.6651 31.4153H46.7098L46.3331 31.3195L45.9564 31.4153H43.1313L42.8487 31.2237L42.5662 31.4153H34.844L34.6557 31.2237V28.5419C39.176 21.7736 41.7814 17.9744 42.472 17.1443ZM44.073 19.0599V19.2514H44.1672V19.0599H44.073ZM43.6963 20.305V20.4008L43.4138 20.7839H43.3196L43.1313 20.5923L43.6963 20.305ZM47.9341 28.5419L48.1224 28.7335V28.5419H47.9341ZM48.4991 29.1166V29.2124L48.6875 29.4039V29.3081L48.4991 29.1166ZM41.5303 29.787V29.9786H41.7187V29.787H41.5303ZM43.6963 29.787V29.9786H43.8846L43.6963 29.787ZM40.4002 30.4575L40.0235 30.9364H40.1177L40.4944 30.4575H40.4002ZM47.6516 30.4575L47.5574 30.7448L47.6516 30.8406H47.7457L47.8399 30.7448H47.9341L47.8399 30.4575H47.6516Z" fill="#10A466"/>
<path d="M63.8964 6.58475C67.3651 6.58475 70.567 8.1172 73.5021 11.1821L64.3673 20.4726C64.2417 20.4726 64.1789 20.3768 64.1789 20.1853H63.9906V20.3768L64.0848 20.8557L62.2013 22.6755H61.9188L61.8246 22.2924H61.6363C61.6363 22.4839 61.5735 22.5797 61.4479 22.5797C61.1026 22.2605 60.8201 22.1008 60.6004 22.1008V22.1966L60.6945 22.4839H60.6004L60.3178 22.2924V22.3882C60.8672 23.0267 61.2439 23.3459 61.4479 23.3459L60.0353 24.9742C60.2865 25.0061 60.412 25.1019 60.412 25.2615V25.4531L60.1295 25.7404H59.9411C59.7842 25.7404 59.69 25.6127 59.6586 25.3573L58.7169 26.2193C58.7169 26.3629 59.0936 26.6822 59.847 27.1771V27.3686L59.3761 27.2728V27.3686L59.1878 27.5602L59.2819 27.656V27.8475H58.9994V27.9433C59.3133 27.9593 59.4703 28.055 59.4703 28.2306L58.8111 28.9968V29.0926C59.125 28.7734 59.5331 28.6137 60.0353 28.6137L59.847 28.2306L59.9411 28.1348H60.0353C60.1452 28.1508 60.3335 28.4381 60.6004 28.9968L60.6945 29.0926C60.9143 29.4757 61.134 29.6673 61.3537 29.6673V29.8589H61.6363C61.7618 29.8589 61.856 29.6034 61.9188 29.0926L61.8246 28.8053H61.9188C62.1071 28.8053 62.2013 28.7414 62.2013 28.6137V28.1348H62.2955L62.3896 28.2306H62.4838V28.0391H62.2955L62.2013 28.1348C61.8874 28.0071 61.7304 27.8156 61.7304 27.5602C61.856 27.2728 61.9816 27.1132 62.1071 27.0813H62.3896C62.578 27.0813 62.6722 27.2728 62.6722 27.656C62.8605 27.656 62.9547 27.5283 62.9547 27.2728H63.143C63.143 27.4325 63.3314 27.5921 63.7081 27.7517H63.9906C64.1161 27.7517 64.1789 27.656 64.1789 27.4644C64.4928 27.4644 64.6498 27.5282 64.6498 27.656L64.744 27.5602H64.8382C65.2148 27.64 65.4032 27.7996 65.4032 28.0391H65.5915L65.4974 27.9433V27.8475L65.8741 27.3686C66.0624 27.3686 66.3135 27.1771 66.6274 26.794L66.5333 26.6982V26.5066L66.91 26.4108C66.8001 26.0277 66.549 25.7085 66.1566 25.4531V25.1657H66.2507C66.3763 25.1976 66.6588 25.5488 67.0983 26.2193L67.475 25.9319L67.6633 26.1235H67.7575V25.7404H67.9459V25.8362L67.8517 25.9319V26.0277L67.9459 26.1235H68.04L68.4167 26.0277C68.4167 26.1554 68.5737 26.2193 68.8876 26.2193C68.8876 26.5385 69.0445 26.6982 69.3585 26.6982C69.3585 26.9536 69.4212 27.0813 69.5468 27.0813L69.9235 26.9855V27.1771C69.6096 27.193 69.4526 27.2888 69.4526 27.4644L69.5468 27.5602L69.4526 27.656V27.8475C69.641 27.8475 69.7351 27.9114 69.7351 28.0391L69.641 28.1348V28.2306L69.5468 28.1348H69.2643C68.9504 28.3743 68.7934 28.5978 68.7934 28.8053H68.6992L68.4167 28.6137L68.2284 28.9011V29.0926L68.4167 29.38V29.5715C68.2912 29.8269 68.1342 29.9546 67.9459 29.9546L67.475 29.5715L67.1925 29.6673L67.0041 29.4757L66.7216 29.6673L66.5333 29.4757H66.4391C66.4391 29.6673 66.3135 29.8589 66.0624 30.0504V30.242L65.4974 30.0504C65.2305 30.0664 64.8224 30.3856 64.2731 31.0082C64.2731 31.1997 64.3987 31.2955 64.6498 31.2955L64.744 31.3913V31.5829H64.0848L64.1789 31.104C63.9906 31.104 63.8964 31.1997 63.8964 31.3913L63.8022 31.4871H63.3314L63.143 31.2955L63.0489 31.3913H62.8605V31.1997L62.578 31.3913C62.578 31.2636 62.4838 31.1997 62.2955 31.1997L62.3896 31.104V30.9124C62.2013 30.9124 62.1071 31.0401 62.1071 31.2955C61.9816 31.2955 61.9188 31.1678 61.9188 30.9124H61.8246C61.8246 31.104 61.7618 31.1997 61.6363 31.1997L61.1654 31.104V31.1997L61.3537 31.4871V31.7744L61.0712 32.0618L60.6945 31.6786L61.0712 31.104C57.6653 29.8908 55.154 27.8475 53.5374 24.9742C52.4701 23.0267 51.9364 21.0153 51.9364 18.9401C51.9364 14.5982 54.071 10.9905 58.3402 8.1172C60.0039 7.09557 61.856 6.58475 63.8964 6.58475ZM54.8558 18.7486C54.8558 20.6003 55.5464 22.452 56.9276 24.3037L58.6227 22.4839C58.6227 22.3722 58.3716 22.2126 57.8693 22.005V21.8135L58.1519 21.5262L58.7169 21.7177L59.1878 21.5262L59.2819 21.6219L59.1878 21.7177V21.9093C59.329 21.7816 59.5488 21.7177 59.847 21.7177L59.7528 21.6219V21.4304L69.2643 11.661C67.1768 10.384 65.2933 9.74543 63.6139 9.74543H63.4255C60.3963 9.74543 57.7909 11.5333 55.6092 15.109C55.1069 16.4499 54.8558 17.6631 54.8558 18.7486ZM75.2914 14.1512C76.1075 15.8273 76.5156 17.6791 76.5156 19.7064C76.5156 23.1703 75.1972 26.0437 72.5603 28.3264C72.2464 28.3264 72.0895 28.518 72.0895 28.9011L70.9594 29.7631H70.771V29.4757L70.3002 29.5715V29.4757C70.3002 29.2682 70.4257 28.9809 70.6769 28.6137V28.3264L70.5827 28.2306V28.1348L70.6769 28.0391L71.4303 28.2306H71.5244L71.8069 27.9433V27.8475C71.8069 27.5602 71.4303 27.0174 70.6769 26.2193L70.8652 25.9319L70.6769 25.7404V25.4531C70.6769 24.9422 70.9594 24.6868 71.5244 24.6868L71.9011 24.7826C72.9684 23.1544 73.5021 21.6219 73.5021 20.1853V19.9937L73.2196 19.8979V19.7064L73.5021 19.2275L72.937 16.4499L75.2914 14.1512ZM79.6233 19.1317H79.7175L80 19.419V19.5148L79.8117 19.7064H79.6233L79.3408 19.419L79.6233 19.1317ZM72.8429 19.8021H73.0312L73.2196 19.9937V20.4726L72.7487 20.5684L72.5603 19.9937L72.8429 19.8021ZM61.9188 20.5684V20.6641L62.1071 20.8557V20.7599L61.9188 20.5684ZM61.2596 21.7177V22.1008H61.5421V21.7177H61.2596ZM59.847 21.8135V21.9093L60.0353 22.1008H60.1295L59.847 21.8135ZM59.847 23.2502V23.3459L60.0353 23.5375H60.1295V23.4417L59.9411 23.2502H59.847ZM63.0489 23.4417L63.2372 23.6333L63.0489 23.8248L62.8605 23.6333L63.0489 23.4417ZM79.2466 23.4417H79.435L79.6233 23.6333V23.729L79.435 23.9206H79.2466L79.0583 23.729V23.6333L79.2466 23.4417ZM69.4526 24.1122H70.1118L70.206 24.2079L70.3002 24.1122H70.4885L70.5827 24.5911L70.4885 24.6868L70.5827 24.7826L70.0177 25.1657H69.641C69.5468 25.1657 69.4212 24.9422 69.2643 24.4953C69.3898 24.4953 69.4526 24.3676 69.4526 24.1122ZM64.6498 25.0699L64.744 25.1657V25.2615L64.5556 25.4531H64.4615V25.2615L64.6498 25.0699ZM49.3938 25.1657L49.5821 25.3573V25.4531L49.3938 25.6446L49.2054 25.4531V25.3573L49.3938 25.1657ZM57.8693 25.3573L57.7752 25.4531V25.5488L58.0577 25.6446L58.1519 25.5488V25.4531L57.8693 25.3573ZM54.7616 25.5488V25.6446L55.2325 25.7404L55.515 25.6446V25.5488H54.7616ZM79.1525 25.8362C79.2466 25.8362 79.3408 25.9639 79.435 26.2193C79.435 26.3949 79.2152 26.5864 78.7758 26.794H78.4932L78.3049 26.6024L78.4932 26.4108C78.6188 26.4108 78.6816 26.2512 78.6816 25.9319L78.7758 25.8362H79.1525ZM55.7975 26.0277V26.2193L55.9859 26.0277H55.7975ZM60.8829 25.9319L60.9771 26.0277L61.0712 25.9319H61.1654C61.3537 25.9319 61.5421 26.1235 61.7304 26.5066C61.652 26.762 61.495 26.9536 61.2596 27.0813H61.0712L60.6945 26.6982V26.1235L60.8829 25.9319ZM59.4703 26.3151H59.5645V26.5066H59.4703V26.3151ZM70.1118 26.8897H70.3002V27.0813H70.1118V26.8897ZM52.1248 27.1771H52.219L52.4073 27.3686L52.1248 27.656L51.9364 27.4644V27.3686L52.1248 27.1771ZM51.3714 27.3686H51.4656L51.8423 27.8475V27.9433L51.6539 28.1348H51.5597L51.1831 27.7517V27.5602L51.3714 27.3686ZM69.641 27.5602H69.7351V27.7517H69.641V27.5602ZM58.1519 28.4222H58.4344V28.2306H58.3402L58.1519 28.4222ZM74.2554 28.1348H74.4438V28.3264H74.2554V28.1348ZM78.4932 28.1348L78.7758 28.4222L78.4932 28.7095H78.3991C78.2578 28.7095 78.1636 28.5499 78.1165 28.2306L78.2107 28.1348H78.4932ZM75.0088 28.2306L75.103 28.3264V28.6137L74.8205 28.9011H74.6321L74.4438 28.7095V28.6137C74.5694 28.3583 74.7577 28.2306 75.0088 28.2306ZM50.1472 28.8053L50.3355 28.9968L50.053 29.2842H49.9588L49.8646 28.9011L49.9588 28.8053H50.1472ZM61.2596 28.9011H61.4479V29.0926H61.2596V28.9011ZM49.5821 29.0926C49.9588 29.2523 50.1472 29.4757 50.1472 29.7631L49.7705 30.0504H49.3938L49.1113 29.7631V29.38C49.1113 29.2682 49.2682 29.1724 49.5821 29.0926ZM78.2107 29.1884L78.3991 29.38V29.9546C78.3991 30.0664 78.2421 30.1622 77.9282 30.242L77.6457 29.5715C77.834 29.5715 77.9282 29.4757 77.9282 29.2842L78.0224 29.1884H78.2107ZM61.6363 29.9546V30.0504L62.013 30.5293L61.9188 30.8166H62.1071V30.6251H62.2013L61.9188 30.0504L62.013 29.9546H61.6363ZM60.6945 30.1462V30.3377H60.7887V30.1462H60.6945ZM68.8876 30.9124H69.0759C69.2015 30.9124 69.2643 31.0082 69.2643 31.1997C69.5782 31.2796 69.7351 31.3753 69.7351 31.4871V31.6786L69.5468 31.8702H69.3585L69.2643 31.7744L68.6051 31.2955V31.1997L68.8876 30.9124ZM65.6857 31.2955H65.8741V31.3913H65.6857V31.2955ZM77.4573 31.4871C77.7085 31.5829 77.834 31.6786 77.834 31.7744L77.4573 32.1575C77.2062 32.0617 77.0806 31.966 77.0806 31.8702V31.7744C77.0806 31.6148 77.2062 31.519 77.4573 31.4871ZM57.4926 33.2111H57.7752L57.9635 33.4026L57.8693 33.8815H57.4926L57.3043 33.69V33.4026L57.4926 33.2111ZM60.8829 34.9351L61.1654 35.6055L60.8829 35.7971H60.6945C60.569 35.7971 60.5062 35.7013 60.5062 35.5098C60.6474 35.1267 60.773 34.9351 60.8829 34.9351ZM61.8246 36.5633L62.2955 37.3296C62.0757 37.7765 61.8246 38 61.5421 38C61.1026 38 60.8829 37.6807 60.8829 37.0422L61.8246 36.5633Z" fill="#10A466"/>
</svg>
