<svg width="49" height="49" viewBox="0 0 49 49" fill="none" xmlns="http://www.w3.org/2000/svg">
<g clip-path="url(#clip0_942_376)">
<path d="M49 24.5C49 10.969 38.031 0 24.5 0C10.969 0 0 10.969 0 24.5C0 36.7285 8.95925 46.8644 20.6719 48.7024V31.582H14.4512V24.5H20.6719V19.1023C20.6719 12.962 24.3296 9.57031 29.9259 9.57031C32.6056 9.57031 35.4102 10.0488 35.4102 10.0488V16.0781H32.3209C29.2775 16.0781 28.3281 17.9668 28.3281 19.9062V24.5H35.123L34.0368 31.582H28.3281V48.7024C40.0407 46.8644 49 36.7285 49 24.5Z" fill="#10A466"/>
</g>
<defs>
<clipPath id="clip0_942_376">
<rect width="49" height="49" fill="white"/>
</clipPath>
</defs>
</svg>
