<svg width="49" height="49" viewBox="0 0 49 49" fill="none" xmlns="http://www.w3.org/2000/svg">
<g clip-path="url(#clip0_942_377)">
<path d="M24.5 4.41191C31.0461 4.41191 31.8213 4.44062 34.3957 4.55547C36.7883 4.66074 38.0803 5.0627 38.9416 5.39766C40.0805 5.83789 40.9035 6.37383 41.7553 7.22559C42.6166 8.08691 43.143 8.90039 43.5832 10.0393C43.9182 10.9006 44.3201 12.2021 44.4254 14.5852C44.5402 17.1691 44.5689 17.9443 44.5689 24.4809C44.5689 31.027 44.5402 31.8021 44.4254 34.3766C44.3201 36.7691 43.9182 38.0611 43.5832 38.9225C43.143 40.0613 42.607 40.8844 41.7553 41.7361C40.8939 42.5975 40.0805 43.1238 38.9416 43.5641C38.0803 43.899 36.7787 44.301 34.3957 44.4062C31.8117 44.5211 31.0365 44.5498 24.5 44.5498C17.9539 44.5498 17.1787 44.5211 14.6043 44.4062C12.2117 44.301 10.9197 43.899 10.0584 43.5641C8.91953 43.1238 8.09648 42.5879 7.24473 41.7361C6.3834 40.8748 5.85703 40.0613 5.4168 38.9225C5.08184 38.0611 4.67988 36.7596 4.57461 34.3766C4.45977 31.7926 4.43105 31.0174 4.43105 24.4809C4.43105 17.9348 4.45977 17.1596 4.57461 14.5852C4.67988 12.1926 5.08184 10.9006 5.4168 10.0393C5.85703 8.90039 6.39297 8.07734 7.24473 7.22559C8.10605 6.36426 8.91953 5.83789 10.0584 5.39766C10.9197 5.0627 12.2213 4.66074 14.6043 4.55547C17.1787 4.44062 17.9539 4.41191 24.5 4.41191ZM24.5 0C17.8486 0 17.016 0.0287109 14.4033 0.143555C11.8002 0.258398 10.0105 0.679492 8.46016 1.28242C6.84277 1.91406 5.47422 2.74668 4.11523 4.11523C2.74668 5.47422 1.91406 6.84277 1.28242 8.45059C0.679492 10.0105 0.258398 11.7906 0.143555 14.3937C0.0287109 17.016 0 17.8486 0 24.5C0 31.1514 0.0287109 31.984 0.143555 34.5967C0.258398 37.1998 0.679492 38.9895 1.28242 40.5398C1.91406 42.1572 2.74668 43.5258 4.11523 44.8848C5.47422 46.2437 6.84277 47.0859 8.45059 47.708C10.0105 48.3109 11.7906 48.732 14.3937 48.8469C17.0064 48.9617 17.8391 48.9904 24.4904 48.9904C31.1418 48.9904 31.9744 48.9617 34.5871 48.8469C37.1902 48.732 38.9799 48.3109 40.5303 47.708C42.1381 47.0859 43.5066 46.2437 44.8656 44.8848C46.2246 43.5258 47.0668 42.1572 47.6889 40.5494C48.2918 38.9895 48.7129 37.2094 48.8277 34.6063C48.9426 31.9936 48.9713 31.1609 48.9713 24.5096C48.9713 17.8582 48.9426 17.0256 48.8277 14.4129C48.7129 11.8098 48.2918 10.0201 47.6889 8.46973C47.0859 6.84277 46.2533 5.47422 44.8848 4.11523C43.5258 2.75625 42.1572 1.91406 40.5494 1.29199C38.9895 0.689062 37.2094 0.267969 34.6063 0.153125C31.984 0.0287109 31.1514 0 24.5 0Z" fill="#10A466"/>
<path d="M24.5 11.915C17.552 11.915 11.915 17.552 11.915 24.5C11.915 31.448 17.552 37.085 24.5 37.085C31.448 37.085 37.085 31.448 37.085 24.5C37.085 17.552 31.448 11.915 24.5 11.915ZM24.5 32.6635C19.9924 32.6635 16.3365 29.0076 16.3365 24.5C16.3365 19.9924 19.9924 16.3365 24.5 16.3365C29.0076 16.3365 32.6635 19.9924 32.6635 24.5C32.6635 29.0076 29.0076 32.6635 24.5 32.6635Z" fill="#10A466"/>
<path d="M40.5207 11.4176C40.5207 13.0445 39.2 14.3557 37.5826 14.3557C35.9557 14.3557 34.6445 13.035 34.6445 11.4176C34.6445 9.79063 35.9652 8.47949 37.5826 8.47949C39.2 8.47949 40.5207 9.8002 40.5207 11.4176Z" fill="#10A466"/>
</g>
<defs>
<clipPath id="clip0_942_377">
<rect width="49" height="49" fill="white"/>
</clipPath>
</defs>
</svg>
