<svg width="19" height="18" viewBox="0 0 19 18" fill="none" xmlns="http://www.w3.org/2000/svg">
<path d="M16 0C17.6569 0 19 1.34315 19 3C19 4.65685 17.6569 6 16 6H13C11.6941 6 10.5831 5.16562 10.171 4.0009L9 4C7.9 4 7 4.9 7 6L7.0009 6.17102C8.1656 6.58312 9 7.6941 9 9C9 10.3059 8.1656 11.4169 7.0009 11.829L7 12C7 13.1 7.9 14 9 14L10.1707 14.0001C10.5825 12.8349 11.6937 12 13 12H16C17.6569 12 19 13.3431 19 15C19 16.6569 17.6569 18 16 18H13C11.6941 18 10.5831 17.1656 10.171 16.0009L9 16C6.79 16 5 14.21 5 12H3C1.34315 12 0 10.6569 0 9C0 7.3431 1.34315 6 3 6H5C5 3.79086 6.79086 2 9 2L10.1707 2.00009C10.5825 0.83485 11.6937 0 13 0H16ZM16 14H13C12.4477 14 12 14.4477 12 15C12 15.5523 12.4477 16 13 16H16C16.5523 16 17 15.5523 17 15C17 14.4477 16.5523 14 16 14ZM6 8H3C2.44772 8 2 8.4477 2 9C2 9.5523 2.44772 10 3 10H6C6.55228 10 7 9.5523 7 9C7 8.4477 6.55228 8 6 8ZM16 2H13C12.4477 2 12 2.44772 12 3C12 3.55228 12.4477 4 13 4H16C16.5523 4 17 3.55228 17 3C17 2.44772 16.5523 2 16 2Z" fill="white"/>
</svg>
