<svg width="21" height="21" viewBox="0 0 21 21" fill="none" xmlns="http://www.w3.org/2000/svg">
<g clip-path="url(#clip0_1191_351)">
<path d="M10.0986 6.19385V12.9875" stroke="white" stroke-width="0.61204" stroke-linejoin="round"/>
<path d="M10.0987 14.8239C10.6058 14.8239 11.0168 14.4129 11.0168 13.9059C11.0168 13.3988 10.6058 12.9878 10.0987 12.9878C9.59169 12.9878 9.18066 13.3988 9.18066 13.9059C9.18066 14.4129 9.59169 14.8239 10.0987 14.8239Z" stroke="white" stroke-width="0.61204" stroke-linejoin="round"/>
<path d="M12.6081 17.2901L14.1321 13.9056L10.0988 6.19385L6.06543 13.9056L7.58941 17.2901H12.6081Z" stroke="white" stroke-width="0.61204" stroke-linejoin="round"/>
<path d="M12.6025 17.29H7.58984V19.8912H12.6025V17.29Z" stroke="white" stroke-width="0.61204" stroke-linejoin="round"/>
<path d="M11.4756 1.83008C14.1502 2.36867 16.2556 4.47409 16.7942 7.14259" stroke="white" stroke-width="0.61204" stroke-linejoin="round"/>
<path d="M3.39648 7.14259C3.93508 4.47409 6.0405 2.37479 8.71511 1.83008" stroke="white" stroke-width="0.61204" stroke-linejoin="round"/>
<path d="M4.63895 7.14258H1.88477V9.89676H4.63895V7.14258Z" stroke="white" stroke-width="0.61204" stroke-linejoin="round"/>
<path d="M18.3118 7.14258H15.5576V9.89676H18.3118V7.14258Z" stroke="white" stroke-width="0.61204" stroke-linejoin="round"/>
<path d="M17.137 1.68896H11.4756" stroke="white" stroke-width="0.61204" stroke-linejoin="round"/>
<path d="M8.72192 1.68896H3.06055" stroke="white" stroke-width="0.61204" stroke-linejoin="round"/>
<path d="M11.4759 0.306152H8.72168V3.06033H11.4759V0.306152Z" stroke="white" stroke-width="0.61204" stroke-linejoin="round"/>
<path d="M1.68275 3.06033C2.4433 3.06033 3.05984 2.44379 3.05984 1.68324C3.05984 0.922697 2.4433 0.306152 1.68275 0.306152C0.922208 0.306152 0.305664 0.922697 0.305664 1.68324C0.305664 2.44379 0.922208 3.06033 1.68275 3.06033Z" stroke="white" stroke-width="0.61204" stroke-linejoin="round"/>
<path d="M18.5138 3.06033C19.2744 3.06033 19.8909 2.44379 19.8909 1.68324C19.8909 0.922697 19.2744 0.306152 18.5138 0.306152C17.7533 0.306152 17.1367 0.922697 17.1367 1.68324C17.1367 2.44379 17.7533 3.06033 18.5138 3.06033Z" stroke="white" stroke-width="0.61204" stroke-linejoin="round"/>
</g>
<defs>
<clipPath id="clip0_1191_351">
<rect width="20.1973" height="20.1973" fill="white"/>
</clipPath>
</defs>
</svg>
