<svg width="17" height="17" viewBox="0 0 17 17" fill="none" xmlns="http://www.w3.org/2000/svg">
<path d="M4.44375 5.34375L9.19375 4L13.1938 8L11.85 12.75C11.6625 13.375 11.1625 13.9062 10.5375 14.0938L1.81875 17L1.35 16.5625L6.0375 11.875C6.225 11.9688 6.44375 12 6.69375 12C7.50625 12 8.19375 11.3438 8.19375 10.5C8.19375 9.6875 7.50625 9 6.69375 9C5.85 9 5.19375 9.6875 5.19375 10.5C5.19375 10.75 5.225 10.9688 5.31875 11.1562L0.63125 15.8438L0.19375 15.375L3.1 6.65625C3.2875 6.03125 3.81875 5.53125 4.44375 5.34375ZM15.725 3.34375C16.3188 3.90625 16.3188 4.875 15.725 5.46875L13.975 7.21875L9.975 3.21875L11.725 1.46875C12.3188 0.875 13.2875 0.875 13.85 1.46875L15.725 3.34375Z" fill="white"/>
</svg>
