<svg width="21" height="18" viewBox="0 0 21 18" fill="none" xmlns="http://www.w3.org/2000/svg">
<path d="M12.1531 17L14.0594 16.4375C14.2469 16.375 14.3719 16.1875 14.3094 15.9688L10.0281 1.28125C9.96562 1.09375 9.77812 0.96875 9.55937 1.03125L7.65312 1.59375C7.46562 1.625 7.34062 1.84375 7.40312 2.0625L11.6844 16.75C11.7469 16.9375 11.9344 17.0625 12.1531 17ZM15.7156 13.5C15.8406 13.6562 16.0906 13.6562 16.2469 13.5L20.7469 9.28125C20.9031 9.125 20.9031 8.875 20.7469 8.75L16.2469 4.53125C16.0906 4.375 15.8406 4.375 15.7156 4.53125L14.3406 6C14.1844 6.125 14.2156 6.375 14.3719 6.53125L17.1844 9L14.3719 11.5C14.2156 11.6562 14.1844 11.875 14.3406 12.0312L15.7156 13.5ZM5.46562 13.5C5.62187 13.6562 5.87187 13.6562 5.99687 13.5L7.37187 12.0312C7.52812 11.875 7.49687 11.6562 7.34062 11.5L4.49687 9L7.34062 6.53125C7.49687 6.375 7.49687 6.125 7.37187 5.96875L5.99687 4.53125C5.87187 4.375 5.62187 4.375 5.46562 4.53125L0.965625 8.75C0.809375 8.875 0.809375 9.15625 0.965625 9.28125L5.46562 13.5Z" fill="white" fill-opacity="0.32"/>
</svg>
