<svg width="16" height="16" viewBox="0 0 16 16" fill="none" xmlns="http://www.w3.org/2000/svg">
<path d="M5.05938 5H10.5906C10.1219 2.21875 9.05938 0.25 7.80938 0.25C6.59063 0.25 5.49688 2.21875 5.05938 5ZM10.8094 8C10.8094 7.3125 10.7781 6.65625 10.7156 6H4.93438C4.87188 6.65625 4.84063 7.3125 4.84063 8C4.84063 8.71875 4.87188 9.375 4.93438 10H10.7156C10.7781 9.375 10.8094 8.71875 10.8094 8ZM0.684375 5H4.05938C4.34063 3.25 4.84063 1.65625 5.62188 0.59375C3.37188 1.25 1.55938 2.90625 0.684375 5ZM10.0281 0.59375C10.8094 1.65625 11.3094 3.25 11.5906 5H14.9656C14.0906 2.90625 12.2781 1.25 10.0281 0.59375ZM0.340625 6C0.184375 6.65625 0.0906253 7.3125 0.0906253 8C0.0906253 8.71875 0.184375 9.375 0.340625 10H3.93438C3.87188 9.34375 3.80938 8.6875 3.80938 8C3.80938 7.34375 3.87188 6.65625 3.93438 6H0.340625ZM11.8094 8C11.8094 8.6875 11.7781 9.34375 11.7156 10H15.3094C15.4656 9.375 15.5594 8.71875 15.5594 8C15.5594 7.3125 15.4656 6.65625 15.3094 6H11.7156C11.7781 6.65625 11.8094 7.34375 11.8094 8ZM10.5906 11H5.05938C5.49688 13.8125 6.59063 15.75 7.80938 15.75C9.05938 15.75 10.1219 13.8125 10.5906 11ZM5.62188 15.4375C4.84063 14.375 4.30938 12.7812 4.05938 11H0.684375C1.55938 13.125 3.37188 14.7812 5.62188 15.4375ZM14.9656 11H11.5906C11.3094 12.7812 10.8094 14.375 10.0281 15.4375C12.2781 14.7812 14.0906 13.125 14.9656 11Z" fill="white" fill-opacity="0.32"/>
</svg>
