<svg width="23" height="24" viewBox="0 0 23 24" fill="none" xmlns="http://www.w3.org/2000/svg">
<path d="M11 2C16.5222 2 21 5.97778 21 10.8889C21 13.9556 18.5111 16.4444 15.4444 16.4444H13.4778C12.5556 16.4444 11.8111 17.1889 11.8111 18.1111C11.8111 18.5333 11.9778 18.9222 12.2333 19.2111C12.5 19.5111 12.6667 19.9 12.6667 20.3333C12.6667 21.2556 11.9 22 11 22C5.47778 22 1 17.5222 1 12C1 6.47778 5.47778 2 11 2ZM9.8111 18.1111C9.8111 16.0843 11.451 14.4444 13.4778 14.4444H15.4444C17.4065 14.4444 19 12.851 19 10.8889C19 7.1392 15.4677 4 11 4C6.58235 4 3 7.58235 3 12C3 16.19 6.2226 19.6285 10.324 19.9718C9.9948 19.4168 9.8111 18.7761 9.8111 18.1111ZM6.5 12C5.67157 12 5 11.3284 5 10.5C5 9.67157 5.67157 9 6.5 9C7.32843 9 8 9.67157 8 10.5C8 11.3284 7.32843 12 6.5 12ZM15.5 12C14.6716 12 14 11.3284 14 10.5C14 9.67157 14.6716 9 15.5 9C16.3284 9 17 9.67157 17 10.5C17 11.3284 16.3284 12 15.5 12ZM11 9C10.1716 9 9.5 8.32843 9.5 7.5C9.5 6.67157 10.1716 6 11 6C11.8284 6 12.5 6.67157 12.5 7.5C12.5 8.32843 11.8284 9 11 9Z" fill="#10A466"/>
</svg>
