<svg width="478" height="689" viewBox="0 0 478 689" fill="none" xmlns="http://www.w3.org/2000/svg">
<circle cx="133.5" cy="344.5" r="344.5" fill="#D9D9D9"/>
<circle cx="133.5" cy="344.5" r="250.384" fill="#C1EFDC"/>
<circle cx="133.944" cy="344.056" r="175.358" fill="url(#paint0_angular_1031_562)"/>
<g filter="url(#filter0_d_1031_562)">
<path d="M184.022 249.695C183.744 249.538 183.586 249.301 183.547 249.064C183.507 248.827 183.547 248.55 183.705 248.313L199.065 224.419C199.223 224.143 199.461 223.985 199.698 223.906C199.936 223.827 200.213 223.906 200.49 224.064L208.804 229.396C211.337 231.015 213.119 232.674 214.148 234.411C215.217 236.149 215.613 238.005 215.375 239.901C215.138 241.836 214.346 243.89 213 246.023C212.327 247.128 211.694 248.116 211.179 248.945C210.664 249.774 210.031 250.722 209.318 251.789C207.814 254 206.27 255.62 204.607 256.646C202.945 257.673 201.163 258.068 199.184 257.831C197.204 257.594 194.987 256.686 192.533 255.106L184.022 249.695ZM188.772 248.353L194.354 251.907C196.056 252.973 197.521 253.605 198.828 253.803C200.134 254 201.322 253.684 202.43 252.973C203.539 252.223 204.647 251.038 205.755 249.38C206.27 248.669 206.706 248.037 207.062 247.523C207.418 246.97 207.774 246.418 208.131 245.865C208.487 245.312 208.843 244.68 209.279 243.929C210.744 241.52 211.298 239.427 210.981 237.61C210.625 235.794 209.2 234.056 206.666 232.437L201.282 229.001L188.772 248.353Z" fill="white"/>
<path d="M207.973 266.678C207.775 266.441 207.656 266.204 207.696 265.927C207.736 265.69 207.815 265.453 208.052 265.256L228.955 246.022C229.192 245.825 229.43 245.707 229.707 245.707C229.945 245.707 230.182 245.825 230.42 246.062L242.613 259.253C242.811 259.49 242.929 259.727 242.89 260.003C242.85 260.24 242.732 260.477 242.494 260.714L241.267 261.82C241.029 262.018 240.792 262.136 240.554 262.136C240.317 262.136 240.079 262.018 239.842 261.781L229.826 250.92L222.819 257.357L232.201 267.507C232.399 267.744 232.518 267.981 232.478 268.258C232.439 268.495 232.32 268.731 232.082 268.968L230.895 270.074C230.697 270.272 230.459 270.351 230.182 270.351C229.945 270.351 229.707 270.232 229.47 269.995L220.087 259.845L212.803 266.52L223.056 277.657C223.254 277.894 223.373 278.131 223.373 278.368C223.373 278.605 223.254 278.842 223.017 279.079L221.75 280.224C221.552 280.422 221.314 280.501 221.037 280.501C220.8 280.501 220.562 280.382 220.325 280.145L207.973 266.678Z" fill="white"/>
<path d="M228.558 294.284C227.331 292.072 226.658 290.018 226.539 288.162C226.421 286.306 226.658 284.647 227.291 283.265C227.925 281.882 228.835 280.816 230.023 280.105C230.221 279.987 230.458 279.987 230.696 280.066C230.934 280.145 231.131 280.303 231.25 280.54L232.319 282.475C232.477 282.791 232.517 283.067 232.477 283.304C232.398 283.541 232.28 283.739 232.121 283.897C231.607 284.371 231.171 285.042 230.815 285.832C230.498 286.622 230.379 287.609 230.458 288.715C230.577 289.821 231.013 291.085 231.765 292.506C232.953 294.678 234.219 296.1 235.565 296.693C236.911 297.285 238.218 297.246 239.524 296.535C240.395 296.061 240.989 295.389 241.226 294.52C241.464 293.691 241.504 292.585 241.306 291.203C241.108 289.86 240.791 288.162 240.316 286.069C239.841 283.936 239.564 282.08 239.524 280.5C239.485 278.92 239.762 277.578 240.395 276.472C240.989 275.366 242.058 274.418 243.483 273.628C244.869 272.878 246.294 272.562 247.758 272.72C249.263 272.878 250.688 273.47 252.113 274.497C253.499 275.563 254.766 277.064 255.834 278.999C256.705 280.579 257.26 282.08 257.497 283.462C257.735 284.884 257.695 286.148 257.458 287.333C257.18 288.517 256.785 289.505 256.191 290.374C255.597 291.203 254.964 291.874 254.211 292.309C254.013 292.388 253.815 292.427 253.578 292.388C253.34 292.348 253.142 292.19 252.984 291.914L251.876 289.9C251.796 289.702 251.717 289.505 251.717 289.268C251.717 289.031 251.836 288.754 252.034 288.517C252.984 287.807 253.538 286.74 253.697 285.318C253.855 283.897 253.499 282.396 252.588 280.777C251.678 279.118 250.609 277.973 249.421 277.262C248.234 276.59 246.927 276.63 245.581 277.341C244.71 277.815 244.116 278.446 243.839 279.236C243.523 280.026 243.443 281.053 243.602 282.356C243.76 283.62 244.037 285.239 244.473 287.175C245.027 289.505 245.344 291.519 245.423 293.138C245.502 294.757 245.264 296.14 244.671 297.285C244.077 298.43 243.048 299.378 241.622 300.168C239.999 301.037 238.416 301.392 236.832 301.155C235.249 300.918 233.744 300.247 232.28 299.062C230.973 297.956 229.706 296.337 228.558 294.284Z" fill="white"/>
<path d="M236.595 310.002C236.516 309.686 236.555 309.449 236.674 309.212C236.832 309.015 237.03 308.857 237.307 308.778L264.9 301.906C265.217 301.827 265.494 301.866 265.692 301.985C265.93 302.103 266.088 302.34 266.128 302.617L268.543 312.174C269.255 315.057 269.413 317.506 268.978 319.481C268.543 321.455 267.592 323.075 266.088 324.338C264.584 325.563 262.604 326.511 260.15 327.182C258.883 327.537 257.775 327.814 256.824 328.051C255.874 328.288 254.766 328.564 253.539 328.841C250.926 329.433 248.669 329.552 246.769 329.157C244.869 328.801 243.285 327.853 242.018 326.313C240.752 324.812 239.762 322.601 239.049 319.757L236.595 310.002ZM240.989 312.293L242.612 318.691C243.087 320.626 243.76 322.127 244.592 323.114C245.423 324.101 246.492 324.773 247.798 324.97C249.105 325.207 250.728 325.089 252.707 324.615C253.578 324.457 254.33 324.299 254.964 324.141C255.597 323.983 256.231 323.825 256.864 323.667C257.497 323.509 258.21 323.312 259.002 323.035C261.733 322.285 263.594 321.139 264.584 319.599C265.573 318.019 265.732 315.808 264.98 312.885L263.436 306.685L240.989 312.293Z" fill="white"/>
<path d="M242.415 338.754C242.415 338.438 242.534 338.201 242.692 338.004C242.89 337.846 243.127 337.767 243.404 337.767L271.829 338.043C272.145 338.043 272.383 338.122 272.581 338.32C272.779 338.477 272.858 338.754 272.858 339.07L272.7 357C272.7 357.316 272.581 357.553 272.423 357.751C272.225 357.908 271.987 358.027 271.67 357.987H270.008C269.691 357.987 269.453 357.908 269.255 357.711C269.058 357.514 268.978 357.277 269.018 356.961L269.176 342.19L259.636 342.111L259.517 355.934C259.517 356.25 259.398 356.487 259.24 356.684C259.042 356.842 258.804 356.921 258.487 356.921H256.864C256.587 356.921 256.35 356.842 256.152 356.645C255.954 356.447 255.875 356.21 255.875 355.894L255.993 342.071L246.096 341.992L245.938 357.119C245.938 357.435 245.859 357.672 245.661 357.869C245.463 358.066 245.225 358.106 244.909 358.106H243.206C242.929 358.106 242.692 358.027 242.494 357.829C242.296 357.632 242.217 357.395 242.217 357.079L242.415 338.754Z" fill="white"/>
<path d="M239.089 373.903C239.208 373.627 239.367 373.43 239.604 373.311C239.842 373.193 240.119 373.193 240.396 373.311L241.702 373.785C241.94 373.864 242.177 374.022 242.454 374.298C242.692 374.535 242.929 374.93 243.127 375.483L248.63 387.292C249.303 389.109 249.897 390.57 250.451 391.676C251.005 392.782 251.56 393.65 252.233 394.243C252.866 394.875 253.618 395.309 254.41 395.625C255.954 396.178 257.34 396.217 258.606 395.665C259.834 395.112 260.784 394.006 261.378 392.268C261.773 391.162 261.892 390.175 261.734 389.188C261.575 388.24 261.18 387.41 260.546 386.699C259.913 385.989 259.161 385.357 258.25 384.843C257.933 384.646 257.735 384.409 257.656 384.132C257.617 383.856 257.617 383.619 257.696 383.421L258.488 381.289C258.567 381.052 258.725 380.854 258.923 380.775C259.121 380.696 259.359 380.657 259.556 380.736C260.586 381.131 261.536 381.723 262.446 382.513C263.357 383.303 264.07 384.251 264.663 385.357C265.218 386.462 265.574 387.726 265.653 389.069C265.732 390.451 265.495 391.913 264.901 393.492C264.109 395.625 263.08 397.244 261.813 398.35C260.546 399.456 259.121 400.088 257.617 400.285C256.112 400.483 254.568 400.285 253.064 399.732C251.876 399.298 250.847 398.706 249.976 397.916C249.145 397.126 248.393 396.217 247.72 395.072C247.047 393.966 246.453 392.663 245.899 391.162L240.792 380.42L236.081 393.216C235.962 393.532 235.804 393.729 235.566 393.848C235.329 393.966 235.091 393.966 234.774 393.848L233.112 393.255C232.834 393.137 232.637 392.979 232.518 392.742C232.399 392.505 232.399 392.229 232.518 391.913L239.089 373.903Z" fill="white"/>
<path d="M223.69 405.893C224.798 404.235 225.986 403.01 227.292 402.22C228.559 401.43 229.905 400.957 231.33 400.838C232.716 400.72 234.141 400.917 235.526 401.351C236.912 401.825 238.298 402.457 239.683 403.287C240.356 403.682 241.069 404.156 241.781 404.59C242.534 405.064 243.246 405.538 243.998 406.051C244.75 406.565 245.423 407.039 246.096 407.513C247.403 408.421 248.551 409.448 249.501 410.593C250.451 411.738 251.124 412.963 251.56 414.305C251.995 415.648 252.074 417.031 251.837 418.531C251.599 420.032 250.926 421.572 249.818 423.231C248.709 424.89 247.522 426.114 246.215 426.904C244.948 427.694 243.602 428.168 242.217 428.286C240.831 428.405 239.406 428.247 238.02 427.812C236.595 427.378 235.21 426.707 233.864 425.877C233.191 425.443 232.439 425.008 231.686 424.495C230.934 424.021 230.182 423.508 229.469 423.034C228.757 422.52 228.084 422.046 227.45 421.612C226.144 420.703 224.996 419.677 224.046 418.531C223.096 417.386 222.383 416.162 221.948 414.858C221.512 413.555 221.393 412.133 221.671 410.633C221.868 409.171 222.542 407.552 223.69 405.893ZM226.777 407.947C225.511 409.843 225.194 411.62 225.827 413.358C226.461 415.095 227.846 416.675 229.984 418.136C230.657 418.65 231.33 419.124 231.963 419.558C232.636 419.993 233.309 420.427 233.943 420.901C234.576 421.375 235.289 421.77 235.962 422.125C238.06 423.508 240.079 424.139 241.94 424.1C243.8 424.06 245.384 423.073 246.651 421.177C247.878 419.321 248.195 417.504 247.522 415.767C246.849 414.029 245.503 412.41 243.404 410.988C242.771 410.554 242.098 410.119 241.425 409.645C240.752 409.171 240.119 408.737 239.446 408.302C238.773 407.868 238.1 407.434 237.387 406.96C235.21 405.577 233.191 404.945 231.33 405.024C229.549 405.143 228.005 406.13 226.777 407.947Z" fill="white"/>
<path d="M207.498 425.482C207.696 425.285 207.933 425.167 208.211 425.167C208.488 425.167 208.725 425.285 208.923 425.482L225.906 442.939L227.213 433.934C227.252 433.658 227.371 433.421 227.609 433.263C227.807 433.105 228.044 433.026 228.361 433.105L230.182 433.342C230.499 433.421 230.736 433.539 230.855 433.776C231.013 433.974 231.053 434.25 231.013 434.527L229.271 446.375C229.232 446.612 229.153 446.809 229.034 446.967C228.915 447.125 228.796 447.244 228.678 447.402L227.094 448.942C226.896 449.139 226.659 449.258 226.381 449.218C226.104 449.218 225.867 449.1 225.669 448.902L205.835 428.484C205.637 428.287 205.519 428.05 205.519 427.773C205.519 427.497 205.637 427.26 205.835 427.062L207.498 425.482Z" fill="white"/>
<path d="M191.544 437.054C193.563 435.751 195.582 435.08 197.522 435.001C199.461 434.922 201.243 435.317 202.826 436.185C204.41 437.054 205.716 438.279 206.706 439.819C207.181 440.569 207.537 441.32 207.775 442.109C208.012 442.899 208.171 443.689 208.29 444.479C208.408 445.269 208.448 445.98 208.488 446.612C208.527 447.283 208.488 447.797 208.448 448.231L207.617 462.37C207.577 462.567 207.537 462.804 207.458 463.12C207.419 463.397 207.221 463.673 206.864 463.871L204.925 465.095C204.687 465.253 204.489 465.253 204.252 465.174C204.014 465.095 203.816 464.937 203.697 464.739C203.618 464.661 203.579 464.542 203.579 464.424C203.539 464.305 203.539 464.226 203.579 464.147L204.212 453.247C203.974 453.523 203.697 453.8 203.301 454.116C202.945 454.392 202.589 454.629 202.272 454.827C200.926 455.656 199.541 456.169 198.115 456.406C196.73 456.643 195.384 456.604 194.077 456.327C192.771 456.051 191.583 455.498 190.515 454.708C189.446 453.918 188.535 452.97 187.783 451.786C186.793 450.245 186.239 448.586 186.12 446.77C186.001 444.953 186.397 443.176 187.268 441.478C188.1 439.819 189.564 438.358 191.544 437.054ZM193.563 440.174C192.534 440.806 191.702 441.636 191.108 442.662C190.515 443.65 190.198 444.756 190.198 445.94C190.198 447.125 190.554 448.35 191.346 449.613C192.138 450.838 193.048 451.707 194.117 452.22C195.186 452.733 196.294 452.891 197.482 452.773C198.63 452.654 199.739 452.259 200.768 451.588C201.797 450.956 202.628 450.127 203.222 449.139C203.816 448.152 204.133 447.046 204.172 445.861C204.172 444.677 203.816 443.452 203.024 442.228C202.233 440.964 201.282 440.095 200.214 439.621C199.145 439.147 197.997 438.95 196.849 439.068C195.701 439.147 194.592 439.503 193.563 440.174Z" fill="white"/>
<path d="M79.6675 440.016C79.9446 440.214 80.0634 440.411 80.103 440.688C80.1426 440.925 80.0634 441.201 79.905 441.438L63.476 464.582C63.278 464.858 63.0801 465.016 62.803 465.056C62.5654 465.095 62.2883 465.056 62.0508 464.858L53.9748 459.131C51.5204 457.394 49.8181 455.656 48.868 453.879C47.8783 452.102 47.5615 450.245 47.9178 448.31C48.2345 446.414 49.1451 444.4 50.6098 442.307C51.3224 441.241 51.9954 440.293 52.5496 439.463C53.1039 438.674 53.7769 437.765 54.5686 436.738C56.1522 434.606 57.8149 433.065 59.4776 432.118C61.1798 431.17 63.0009 430.854 64.9407 431.17C66.8805 431.486 69.0579 432.513 71.4728 434.211L79.6675 440.016ZM74.8377 441.162L69.4538 437.331C67.8307 436.185 66.3659 435.475 65.0595 435.238C63.7531 435.001 62.5654 435.238 61.4174 435.909C60.2693 436.58 59.1213 437.726 57.9336 439.345C57.3794 440.016 56.9043 440.609 56.548 441.162C56.1522 441.675 55.7959 442.228 55.4 442.741C55.0041 443.255 54.6082 443.887 54.1728 444.598C52.5892 446.928 51.9162 449.021 52.1934 450.838C52.4705 452.654 53.8165 454.471 56.2709 456.209L61.4966 459.882L74.8377 441.162Z" fill="white"/>
<path d="M56.5087 421.968C56.7067 422.205 56.7859 422.441 56.7859 422.718C56.7463 422.955 56.6275 423.192 56.39 423.389L34.6165 441.636C34.379 441.833 34.1019 441.951 33.8643 441.912C33.6268 441.912 33.3893 441.754 33.1913 441.517L21.6316 427.773C21.4337 427.536 21.3545 427.26 21.3545 427.023C21.3941 426.786 21.5128 426.549 21.79 426.351L23.0568 425.285C23.2943 425.088 23.5318 424.969 23.809 425.009C24.0465 425.048 24.284 425.167 24.482 425.404L33.9831 436.738L41.3069 430.617L32.3996 420.032C32.2016 419.795 32.1225 419.558 32.1225 419.282C32.1225 419.006 32.2808 418.808 32.5579 418.611L33.7852 417.584C34.0227 417.386 34.2602 417.307 34.4977 417.307C34.7353 417.307 34.9728 417.465 35.1707 417.702L44.0781 428.287L51.6394 421.968L41.9007 410.396C41.7028 410.159 41.584 409.922 41.6236 409.645C41.6632 409.409 41.782 409.172 42.0195 408.974L43.3259 407.868C43.5634 407.671 43.8009 407.592 44.0385 407.592C44.276 407.592 44.5135 407.75 44.7115 407.987L56.5087 421.968Z" fill="white"/>
<path d="M37.2295 393.453C38.3379 395.704 38.9318 397.797 38.9713 399.653C39.0109 401.549 38.6942 403.168 37.9816 404.511C37.2691 405.854 36.3189 406.881 35.1313 407.513C34.9334 407.631 34.6958 407.631 34.4583 407.552C34.2208 407.473 34.0228 407.315 33.9041 407.078L32.9144 405.104C32.756 404.788 32.7164 404.511 32.7956 404.274C32.8748 404.037 32.9935 403.84 33.1915 403.682C33.7457 403.208 34.1812 402.576 34.5771 401.786C34.9334 400.996 35.0917 400.048 35.0521 398.903C35.0125 397.797 34.6167 396.494 33.9041 395.033C32.7956 392.781 31.608 391.36 30.3015 390.688C28.9951 390.017 27.6491 390.017 26.3427 390.649C25.4322 391.083 24.8384 391.755 24.5613 392.584C24.2842 393.413 24.205 394.519 24.3237 395.862C24.4425 397.205 24.68 398.942 25.0759 401.036C25.4718 403.208 25.6302 405.064 25.5906 406.644C25.551 408.224 25.1947 409.527 24.5217 410.633C23.8487 411.699 22.7798 412.607 21.315 413.358C19.8899 414.029 18.4647 414.266 16.9999 414.069C15.5352 413.871 14.11 413.2 12.764 412.094C11.418 410.988 10.2304 409.408 9.24068 407.434C8.44891 405.814 7.97386 404.314 7.8155 402.892C7.65715 401.47 7.73633 400.167 8.05303 399.021C8.36974 397.876 8.84479 396.889 9.4782 396.059C10.1116 395.23 10.7846 394.638 11.5764 394.203C11.7743 394.124 11.9723 394.085 12.2098 394.124C12.4473 394.164 12.6453 394.322 12.764 394.638L13.7933 396.691C13.8725 396.889 13.9121 397.086 13.9121 397.323C13.9121 397.56 13.7933 397.797 13.5558 398.074C12.5661 398.745 11.9723 399.772 11.7347 401.194C11.4972 402.576 11.8139 404.116 12.6453 405.775C13.4766 407.473 14.4663 408.658 15.6539 409.408C16.8416 410.159 18.1084 410.159 19.494 409.487C20.3649 409.053 20.9983 408.461 21.3546 407.671C21.7109 406.881 21.8297 405.854 21.7505 404.59C21.6713 403.326 21.4734 401.668 21.1171 399.732C20.6816 397.363 20.4441 395.388 20.4045 393.729C20.4045 392.11 20.7212 390.728 21.3546 389.622C21.988 388.516 23.0569 387.608 24.5217 386.897C26.1448 386.107 27.7679 385.831 29.3514 386.146C30.935 386.423 32.3997 387.213 33.7853 388.437C34.9729 389.661 36.1606 391.36 37.2295 393.453Z" fill="white"/>
<path d="M29.9051 377.379C29.9843 377.695 29.9447 377.932 29.7863 378.169C29.628 378.366 29.43 378.524 29.1529 378.564L1.2829 384.172C0.966193 384.251 0.689077 384.211 0.491136 384.053C0.253608 383.935 0.134843 383.698 0.0556672 383.382L-1.88415 373.706C-2.47797 370.783 -2.51756 368.335 -2.00291 366.36C-1.48827 364.385 -0.458978 362.845 1.12455 361.66C2.66848 360.476 4.68748 359.646 7.22111 359.093C8.48793 358.817 9.63599 358.58 10.5861 358.382C11.5362 358.185 12.6843 357.987 13.9115 357.75C16.5243 357.277 18.7808 357.277 20.6811 357.75C22.5813 358.224 24.1252 359.251 25.3129 360.791C26.5005 362.371 27.4111 364.583 27.9653 367.466L29.9051 377.379ZM25.6296 374.891L24.3232 368.414C23.9273 366.439 23.3335 364.938 22.5813 363.912C21.7895 362.845 20.7602 362.174 19.4538 361.897C18.1474 361.621 16.5243 361.66 14.5449 362.016C13.674 362.134 12.9218 362.253 12.2884 362.371C11.655 362.49 11.0216 362.648 10.3486 362.766C9.71517 362.885 8.96299 363.082 8.17123 363.28C5.43965 363.912 3.49983 364.938 2.43095 366.479C1.36207 367.979 1.12455 370.231 1.71837 373.193L2.98519 379.472L25.6296 374.891Z" fill="white"/>
<path d="M25.4321 348.39C25.4321 348.706 25.3134 348.943 25.1154 349.101C24.9175 349.259 24.6799 349.338 24.4028 349.338L-3.98185 347.758C-4.29855 347.758 -4.53608 347.64 -4.73402 347.442C-4.93196 347.245 -5.01114 347.008 -4.97155 346.692L-3.98185 328.762C-3.98185 328.446 -3.86308 328.209 -3.66514 328.051C-3.4672 327.893 -3.19008 327.814 -2.87338 327.814L-1.21068 327.893C-0.893973 327.893 -0.656445 328.011 -0.498093 328.209C-0.33974 328.406 -0.260564 328.643 -0.260564 328.959L-1.09191 343.691L8.44882 344.204L9.24058 330.421C9.24058 330.105 9.35935 329.868 9.55729 329.71C9.75523 329.552 10.0323 329.473 10.349 329.473L11.9722 329.552C12.2493 329.552 12.4868 329.67 12.6847 329.868C12.8827 330.065 12.9619 330.302 12.9223 330.618L12.1305 344.401L21.9088 344.994L22.7401 329.907C22.7401 329.591 22.8589 329.354 23.0568 329.196C23.2548 329.038 23.4923 328.959 23.809 328.959L25.5113 329.038C25.7884 329.038 26.0259 329.157 26.2239 329.354C26.4218 329.552 26.501 329.789 26.4614 330.105L25.4321 348.39Z" fill="white"/>
<path d="M30.3801 313.438C30.2613 313.715 30.103 313.873 29.8259 313.991C29.5883 314.11 29.3112 314.07 29.0341 313.991L27.7673 313.438C27.5298 313.32 27.2922 313.162 27.0547 312.886C26.8172 312.649 26.6192 312.214 26.4213 311.701L21.4728 299.655C20.879 297.799 20.3643 296.338 19.8497 295.192C19.3746 294.047 18.8204 293.178 18.187 292.546C17.5931 291.914 16.8806 291.401 16.0492 291.085C14.5053 290.453 13.1197 290.374 11.8925 290.848C10.6256 291.322 9.67552 292.428 8.96293 294.086C8.52746 295.153 8.36911 296.18 8.48788 297.127C8.60664 298.075 8.96293 298.944 9.55676 299.695C10.1506 300.445 10.8632 301.077 11.7737 301.669C12.0904 301.867 12.2883 302.104 12.3279 302.38C12.3675 302.657 12.3279 302.894 12.2883 303.091L11.4174 305.184C11.2986 305.421 11.1403 305.579 10.9423 305.698C10.7444 305.816 10.5069 305.816 10.3089 305.698C9.31923 305.263 8.36911 304.592 7.49817 303.762C6.62724 302.933 5.95424 301.946 5.43959 300.8C4.92495 299.655 4.64783 298.391 4.64783 297.009C4.60824 295.627 4.92495 294.165 5.59794 292.625C6.46888 290.532 7.57735 288.952 8.92335 287.925C10.2693 286.899 11.6945 286.306 13.1989 286.188C14.7428 286.069 16.2471 286.306 17.7515 286.938C18.9391 287.412 19.9288 288.083 20.7206 288.873C21.5124 289.663 22.225 290.65 22.8584 291.796C23.4522 292.941 24.0064 294.284 24.5211 295.785L29.0341 306.803L34.2597 294.284C34.3785 294.007 34.5764 293.77 34.814 293.691C35.0515 293.573 35.3286 293.573 35.6057 293.731L37.2684 294.402C37.5455 294.521 37.7039 294.679 37.8227 294.955C37.9414 295.192 37.9018 295.469 37.7831 295.785L30.3801 313.438Z" fill="white"/>
<path d="M47.245 282.199C46.0574 283.818 44.7905 284.963 43.4841 285.714C42.1777 286.464 40.7921 286.859 39.4066 286.899C38.021 286.938 36.5958 286.701 35.2498 286.188C33.8642 285.674 32.5182 284.963 31.2118 284.055C30.5784 283.621 29.8658 283.147 29.1928 282.633C28.4802 282.12 27.7677 281.607 27.0551 281.054C26.3425 280.501 25.6695 279.987 25.0361 279.474C23.7693 278.526 22.7004 277.42 21.7899 276.235C20.8793 275.051 20.2855 273.787 19.8896 272.444C19.5333 271.101 19.4937 269.679 19.8105 268.218C20.1272 266.757 20.8793 265.217 22.0274 263.637C23.215 262.018 24.4818 260.872 25.7883 260.122C27.0947 259.371 28.4802 258.977 29.8658 258.937C31.2514 258.898 32.637 259.095 34.0622 259.608C35.4478 260.122 36.7937 260.833 38.1002 261.741C38.7732 262.215 39.4857 262.689 40.1983 263.202C40.9505 263.716 41.6631 264.229 42.3361 264.782C43.0091 265.296 43.6821 265.809 44.3155 266.283C45.5823 267.27 46.6512 268.337 47.5617 269.521C48.4722 270.706 49.1056 271.97 49.4619 273.313C49.8578 274.656 49.8578 276.077 49.5411 277.539C49.1848 279 48.4326 280.58 47.245 282.199ZM44.1967 279.987C45.5427 278.171 45.9386 276.393 45.3844 274.616C44.8301 272.878 43.5237 271.22 41.4651 269.679C40.8317 269.126 40.1983 268.613 39.5253 268.139C38.8919 267.665 38.2585 267.191 37.5855 266.717C36.9521 266.243 36.2791 265.809 35.6061 265.375C33.5475 263.913 31.6077 263.163 29.7075 263.123C27.8468 263.084 26.2237 263.992 24.8777 265.809C23.5713 267.586 23.1754 269.403 23.7693 271.18C24.3631 272.957 25.6299 274.616 27.6489 276.156C28.2823 276.63 28.9157 277.104 29.5491 277.578C30.1825 278.052 30.8159 278.526 31.4889 279C32.1223 279.474 32.7953 279.948 33.4683 280.422C35.5665 281.922 37.5459 282.633 39.4066 282.633C41.3068 282.633 42.8903 281.764 44.1967 279.987Z" fill="white"/>
<path d="M64.3079 263.36C64.0703 263.558 63.8328 263.637 63.5953 263.637C63.3182 263.637 63.0806 263.518 62.9223 263.281L46.7703 245.035L45.0284 253.961C44.9889 254.237 44.8305 254.474 44.6326 254.632C44.4346 254.79 44.1575 254.829 43.8804 254.79L42.0989 254.474C41.7822 254.395 41.5843 254.237 41.4259 254C41.2676 253.763 41.228 253.526 41.3072 253.25L43.5637 241.52C43.6033 241.283 43.722 241.086 43.8012 240.967C43.92 240.849 44.0387 240.691 44.1971 240.572L45.8598 239.111C46.0577 238.913 46.3349 238.834 46.5724 238.834C46.8495 238.834 47.087 238.953 47.2454 239.19L66.0893 260.477C66.2873 260.675 66.3664 260.951 66.3664 261.188C66.3664 261.464 66.2477 261.701 66.0101 261.859L64.3079 263.36Z" fill="white"/>
<path d="M80.7763 252.499C78.6781 253.684 76.6591 254.276 74.7193 254.276C72.7795 254.276 71.0376 253.802 69.4541 252.855C67.9101 251.907 66.6829 250.643 65.7328 249.024C65.2973 248.273 64.9806 247.483 64.7827 246.694C64.5847 245.904 64.4264 245.114 64.3868 244.324C64.3076 243.534 64.3076 242.823 64.3076 242.152C64.3076 241.48 64.3472 240.967 64.3868 240.533L65.8516 226.433C65.8911 226.236 65.9703 225.999 66.0495 225.722C66.1287 225.446 66.3266 225.169 66.6829 224.972L68.7019 223.827C68.9394 223.708 69.1769 223.669 69.3749 223.748C69.6124 223.827 69.7708 223.985 69.9291 224.222C69.9687 224.34 70.0083 224.419 70.0479 224.538C70.0875 224.656 70.0875 224.735 70.0479 224.814L68.9394 235.635C69.177 235.359 69.4937 235.082 69.8895 234.806C70.2854 234.529 70.6417 234.293 70.9584 234.135C72.344 233.384 73.7692 232.91 75.1548 232.752C76.5799 232.594 77.9259 232.673 79.1927 233.029C80.4596 233.384 81.6472 233.977 82.6765 234.806C83.7058 235.635 84.5767 236.662 85.2893 237.847C86.1998 239.427 86.6749 241.125 86.7145 242.942C86.7541 244.758 86.279 246.496 85.3289 248.194C84.3392 249.893 82.8348 251.314 80.7763 252.499ZM78.9156 249.34C79.9845 248.747 80.8159 247.957 81.4889 246.97C82.1223 245.983 82.4786 244.916 82.5577 243.732C82.6369 242.547 82.2806 241.322 81.568 240.019C80.8554 238.755 79.9449 237.847 78.9156 237.294C77.8467 236.741 76.7383 236.504 75.5902 236.583C74.4026 236.662 73.2941 237.018 72.2252 237.61C71.1564 238.202 70.325 238.992 69.652 239.94C68.979 240.888 68.6227 241.954 68.5435 243.179C68.4644 244.363 68.7811 245.588 69.5332 246.852C70.2854 248.115 71.1564 249.063 72.2252 249.577C73.2941 250.09 74.4026 250.367 75.5902 250.288C76.7383 250.248 77.8467 249.932 78.9156 249.34Z" fill="white"/>
</g>
<g filter="url(#filter1_d_1031_562)">
<circle cx="129.061" cy="223.748" r="4.43943" fill="white"/>
</g>
<g filter="url(#filter2_d_1031_562)">
<circle cx="129.061" cy="465.252" r="4.43943" fill="white"/>
</g>
<defs>
<filter id="filter0_d_1031_562" x="-15.5814" y="216.107" width="299.04" height="262.719" filterUnits="userSpaceOnUse" color-interpolation-filters="sRGB">
<feFlood flood-opacity="0" result="BackgroundImageFix"/>
<feColorMatrix in="SourceAlpha" type="matrix" values="0 0 0 0 0 0 0 0 0 0 0 0 0 0 0 0 0 0 127 0" result="hardAlpha"/>
<feOffset dy="3"/>
<feGaussianBlur stdDeviation="5.3"/>
<feComposite in2="hardAlpha" operator="out"/>
<feColorMatrix type="matrix" values="0 0 0 0 0.0778646 0 0 0 0 0.479167 0 0 0 0 0.310343 0 0 0 0.5 0"/>
<feBlend mode="normal" in2="BackgroundImageFix" result="effect1_dropShadow_1031_562"/>
<feBlend mode="normal" in="SourceGraphic" in2="effect1_dropShadow_1031_562" result="shape"/>
</filter>
<filter id="filter1_d_1031_562" x="114.021" y="212.708" width="30.0789" height="30.0789" filterUnits="userSpaceOnUse" color-interpolation-filters="sRGB">
<feFlood flood-opacity="0" result="BackgroundImageFix"/>
<feColorMatrix in="SourceAlpha" type="matrix" values="0 0 0 0 0 0 0 0 0 0 0 0 0 0 0 0 0 0 127 0" result="hardAlpha"/>
<feOffset dy="4"/>
<feGaussianBlur stdDeviation="5.3"/>
<feComposite in2="hardAlpha" operator="out"/>
<feColorMatrix type="matrix" values="0 0 0 0 0.0784314 0 0 0 0 0.478431 0 0 0 0 0.309804 0 0 0 0.5 0"/>
<feBlend mode="normal" in2="BackgroundImageFix" result="effect1_dropShadow_1031_562"/>
<feBlend mode="normal" in="SourceGraphic" in2="effect1_dropShadow_1031_562" result="shape"/>
</filter>
<filter id="filter2_d_1031_562" x="114.021" y="454.213" width="30.0789" height="30.0789" filterUnits="userSpaceOnUse" color-interpolation-filters="sRGB">
<feFlood flood-opacity="0" result="BackgroundImageFix"/>
<feColorMatrix in="SourceAlpha" type="matrix" values="0 0 0 0 0 0 0 0 0 0 0 0 0 0 0 0 0 0 127 0" result="hardAlpha"/>
<feOffset dy="4"/>
<feGaussianBlur stdDeviation="5.3"/>
<feComposite in2="hardAlpha" operator="out"/>
<feColorMatrix type="matrix" values="0 0 0 0 0.0784314 0 0 0 0 0.478431 0 0 0 0 0.309804 0 0 0 0.5 0"/>
<feBlend mode="normal" in2="BackgroundImageFix" result="effect1_dropShadow_1031_562"/>
<feBlend mode="normal" in="SourceGraphic" in2="effect1_dropShadow_1031_562" result="shape"/>
</filter>
<radialGradient id="paint0_angular_1031_562" cx="0" cy="0" r="1" gradientUnits="userSpaceOnUse" gradientTransform="translate(133.944 344.056) rotate(90) scale(175.358)">
<stop stop-color="#10A466"/>
<stop offset="0.22" stop-color="#BBFFE3"/>
<stop offset="0.35" stop-color="#10A466"/>
<stop offset="0.465" stop-color="#BBFFE3"/>
<stop offset="0.6" stop-color="#10A466"/>
<stop offset="0.72" stop-color="#55C999"/>
<stop offset="0.785" stop-color="#BBFFE3"/>
<stop offset="0.850372" stop-color="#41BE89"/>
<stop offset="0.924291" stop-color="#10A466"/>
<stop offset="1" stop-color="#10A466"/>
</radialGradient>
</defs>
</svg>
