<svg width="689" height="689" viewBox="0 0 689 689" fill="none" xmlns="http://www.w3.org/2000/svg">
<circle cx="344.5" cy="344.5" r="344.5" fill="#D9D9D9"/>
<circle cx="344.5" cy="344.5" r="250.384" fill="#C1EFDC"/>
<circle cx="344.944" cy="344.056" r="175.358" fill="url(#paint0_angular_1189_321)"/>
<g filter="url(#filter0_d_1189_321)">
<path d="M395.022 249.695C394.744 249.538 394.586 249.301 394.547 249.064C394.507 248.827 394.547 248.55 394.705 248.313L410.065 224.419C410.223 224.143 410.461 223.985 410.698 223.906C410.936 223.827 411.213 223.906 411.49 224.064L419.804 229.396C422.337 231.015 424.119 232.674 425.148 234.411C426.217 236.149 426.613 238.005 426.375 239.901C426.138 241.836 425.346 243.89 424 246.023C423.327 247.128 422.694 248.116 422.179 248.945C421.664 249.774 421.031 250.722 420.318 251.789C418.814 254 417.27 255.62 415.607 256.646C413.945 257.673 412.163 258.068 410.184 257.831C408.204 257.594 405.987 256.686 403.533 255.106L395.022 249.695ZM399.772 248.353L405.354 251.907C407.056 252.973 408.521 253.605 409.828 253.803C411.134 254 412.322 253.684 413.43 252.973C414.539 252.223 415.647 251.038 416.755 249.38C417.27 248.669 417.706 248.037 418.062 247.523C418.418 246.97 418.774 246.418 419.131 245.865C419.487 245.312 419.843 244.68 420.279 243.929C421.744 241.52 422.298 239.427 421.981 237.61C421.625 235.794 420.2 234.056 417.666 232.437L412.282 229.001L399.772 248.353Z" fill="white"/>
<path d="M418.973 266.678C418.775 266.441 418.656 266.204 418.696 265.927C418.736 265.69 418.815 265.453 419.052 265.256L439.955 246.022C440.192 245.825 440.43 245.707 440.707 245.707C440.945 245.707 441.182 245.825 441.42 246.062L453.613 259.253C453.811 259.49 453.929 259.727 453.89 260.003C453.85 260.24 453.732 260.477 453.494 260.714L452.267 261.82C452.029 262.018 451.792 262.136 451.554 262.136C451.317 262.136 451.079 262.018 450.842 261.781L440.826 250.92L433.819 257.357L443.201 267.507C443.399 267.744 443.518 267.981 443.478 268.258C443.439 268.495 443.32 268.731 443.082 268.968L441.895 270.074C441.697 270.272 441.459 270.351 441.182 270.351C440.945 270.351 440.707 270.232 440.47 269.995L431.087 259.845L423.803 266.52L434.056 277.657C434.254 277.894 434.373 278.131 434.373 278.368C434.373 278.605 434.254 278.842 434.017 279.079L432.75 280.224C432.552 280.422 432.314 280.501 432.037 280.501C431.8 280.501 431.562 280.382 431.325 280.145L418.973 266.678Z" fill="white"/>
<path d="M439.558 294.284C438.331 292.072 437.658 290.018 437.539 288.162C437.421 286.306 437.658 284.647 438.291 283.265C438.925 281.882 439.835 280.816 441.023 280.105C441.221 279.987 441.458 279.987 441.696 280.066C441.934 280.145 442.131 280.303 442.25 280.54L443.319 282.475C443.477 282.791 443.517 283.067 443.477 283.304C443.398 283.541 443.28 283.739 443.121 283.897C442.607 284.371 442.171 285.042 441.815 285.832C441.498 286.622 441.379 287.609 441.458 288.715C441.577 289.821 442.013 291.085 442.765 292.506C443.953 294.678 445.219 296.1 446.565 296.693C447.911 297.285 449.218 297.246 450.524 296.535C451.395 296.061 451.989 295.389 452.226 294.52C452.464 293.691 452.504 292.585 452.306 291.203C452.108 289.86 451.791 288.162 451.316 286.069C450.841 283.936 450.564 282.08 450.524 280.5C450.485 278.92 450.762 277.578 451.395 276.472C451.989 275.366 453.058 274.418 454.483 273.628C455.869 272.878 457.294 272.562 458.758 272.72C460.263 272.878 461.688 273.47 463.113 274.497C464.499 275.563 465.766 277.064 466.834 278.999C467.705 280.579 468.26 282.08 468.497 283.462C468.735 284.884 468.695 286.148 468.458 287.333C468.18 288.517 467.785 289.505 467.191 290.374C466.597 291.203 465.964 291.874 465.211 292.309C465.013 292.388 464.815 292.427 464.578 292.388C464.34 292.348 464.142 292.19 463.984 291.914L462.876 289.9C462.796 289.702 462.717 289.505 462.717 289.268C462.717 289.031 462.836 288.754 463.034 288.517C463.984 287.807 464.538 286.74 464.697 285.318C464.855 283.897 464.499 282.396 463.588 280.777C462.678 279.118 461.609 277.973 460.421 277.262C459.234 276.59 457.927 276.63 456.581 277.341C455.71 277.815 455.116 278.446 454.839 279.236C454.523 280.026 454.443 281.053 454.602 282.356C454.76 283.62 455.037 285.239 455.473 287.175C456.027 289.505 456.344 291.519 456.423 293.138C456.502 294.757 456.264 296.14 455.671 297.285C455.077 298.43 454.048 299.378 452.622 300.168C450.999 301.037 449.416 301.392 447.832 301.155C446.249 300.918 444.744 300.247 443.28 299.062C441.973 297.956 440.706 296.337 439.558 294.284Z" fill="white"/>
<path d="M447.595 310.002C447.516 309.686 447.555 309.449 447.674 309.212C447.832 309.015 448.03 308.857 448.307 308.778L475.9 301.906C476.217 301.827 476.494 301.866 476.692 301.985C476.93 302.103 477.088 302.34 477.128 302.617L479.543 312.174C480.255 315.057 480.413 317.506 479.978 319.481C479.543 321.455 478.592 323.075 477.088 324.338C475.584 325.563 473.604 326.511 471.15 327.182C469.883 327.537 468.775 327.814 467.824 328.051C466.874 328.288 465.766 328.564 464.539 328.841C461.926 329.433 459.669 329.552 457.769 329.157C455.869 328.801 454.285 327.853 453.018 326.313C451.752 324.812 450.762 322.601 450.049 319.757L447.595 310.002ZM451.989 312.293L453.612 318.691C454.087 320.626 454.76 322.127 455.592 323.114C456.423 324.101 457.492 324.773 458.798 324.97C460.105 325.207 461.728 325.089 463.707 324.615C464.578 324.457 465.33 324.299 465.964 324.141C466.597 323.983 467.231 323.825 467.864 323.667C468.497 323.509 469.21 323.312 470.002 323.035C472.733 322.285 474.594 321.139 475.584 319.599C476.573 318.019 476.732 315.808 475.98 312.885L474.436 306.685L451.989 312.293Z" fill="white"/>
<path d="M453.415 338.754C453.415 338.438 453.534 338.201 453.692 338.004C453.89 337.846 454.127 337.767 454.404 337.767L482.829 338.043C483.145 338.043 483.383 338.122 483.581 338.32C483.779 338.477 483.858 338.754 483.858 339.07L483.7 357C483.7 357.316 483.581 357.553 483.423 357.751C483.225 357.908 482.987 358.027 482.67 357.987H481.008C480.691 357.987 480.453 357.908 480.255 357.711C480.058 357.514 479.978 357.277 480.018 356.961L480.176 342.19L470.636 342.111L470.517 355.934C470.517 356.25 470.398 356.487 470.24 356.684C470.042 356.842 469.804 356.921 469.487 356.921H467.864C467.587 356.921 467.35 356.842 467.152 356.645C466.954 356.447 466.875 356.21 466.875 355.894L466.993 342.071L457.096 341.992L456.938 357.119C456.938 357.435 456.859 357.672 456.661 357.869C456.463 358.066 456.225 358.106 455.909 358.106H454.206C453.929 358.106 453.692 358.027 453.494 357.829C453.296 357.632 453.217 357.395 453.217 357.079L453.415 338.754Z" fill="white"/>
<path d="M450.089 373.903C450.208 373.627 450.367 373.43 450.604 373.311C450.842 373.193 451.119 373.193 451.396 373.311L452.702 373.785C452.94 373.864 453.177 374.022 453.454 374.298C453.692 374.535 453.929 374.93 454.127 375.483L459.63 387.292C460.303 389.109 460.897 390.57 461.451 391.676C462.005 392.782 462.56 393.65 463.233 394.243C463.866 394.875 464.618 395.309 465.41 395.625C466.954 396.178 468.34 396.217 469.606 395.665C470.834 395.112 471.784 394.006 472.378 392.268C472.773 391.162 472.892 390.175 472.734 389.188C472.575 388.24 472.18 387.41 471.546 386.699C470.913 385.989 470.161 385.357 469.25 384.843C468.933 384.646 468.735 384.409 468.656 384.132C468.617 383.856 468.617 383.619 468.696 383.421L469.488 381.289C469.567 381.052 469.725 380.854 469.923 380.775C470.121 380.696 470.359 380.657 470.556 380.736C471.586 381.131 472.536 381.723 473.446 382.513C474.357 383.303 475.07 384.251 475.663 385.357C476.218 386.462 476.574 387.726 476.653 389.069C476.732 390.451 476.495 391.913 475.901 393.492C475.109 395.625 474.08 397.244 472.813 398.35C471.546 399.456 470.121 400.088 468.617 400.285C467.112 400.483 465.568 400.285 464.064 399.732C462.876 399.298 461.847 398.706 460.976 397.916C460.145 397.126 459.393 396.217 458.72 395.072C458.047 393.966 457.453 392.663 456.899 391.162L451.792 380.42L447.081 393.216C446.962 393.532 446.804 393.729 446.566 393.848C446.329 393.966 446.091 393.966 445.774 393.848L444.112 393.255C443.834 393.137 443.637 392.979 443.518 392.742C443.399 392.505 443.399 392.229 443.518 391.913L450.089 373.903Z" fill="white"/>
<path d="M434.69 405.893C435.798 404.235 436.986 403.01 438.292 402.22C439.559 401.43 440.905 400.957 442.33 400.838C443.716 400.72 445.141 400.917 446.526 401.351C447.912 401.825 449.298 402.457 450.683 403.287C451.356 403.682 452.069 404.156 452.781 404.59C453.534 405.064 454.246 405.538 454.998 406.051C455.75 406.565 456.423 407.039 457.096 407.513C458.403 408.421 459.551 409.448 460.501 410.593C461.451 411.738 462.124 412.963 462.56 414.305C462.995 415.648 463.074 417.031 462.837 418.531C462.599 420.032 461.926 421.572 460.818 423.231C459.709 424.89 458.522 426.114 457.215 426.904C455.948 427.694 454.602 428.168 453.217 428.286C451.831 428.405 450.406 428.247 449.02 427.812C447.595 427.378 446.21 426.707 444.864 425.877C444.191 425.443 443.439 425.008 442.686 424.495C441.934 424.021 441.182 423.508 440.469 423.034C439.757 422.52 439.084 422.046 438.45 421.612C437.144 420.703 435.996 419.677 435.046 418.531C434.096 417.386 433.383 416.162 432.948 414.858C432.512 413.555 432.393 412.133 432.671 410.633C432.868 409.171 433.542 407.552 434.69 405.893ZM437.777 407.947C436.511 409.843 436.194 411.62 436.827 413.358C437.461 415.095 438.846 416.675 440.984 418.136C441.657 418.65 442.33 419.124 442.963 419.558C443.636 419.993 444.309 420.427 444.943 420.901C445.576 421.375 446.289 421.77 446.962 422.125C449.06 423.508 451.079 424.139 452.94 424.1C454.8 424.06 456.384 423.073 457.651 421.177C458.878 419.321 459.195 417.504 458.522 415.767C457.849 414.029 456.503 412.41 454.404 410.988C453.771 410.554 453.098 410.119 452.425 409.645C451.752 409.171 451.119 408.737 450.446 408.302C449.773 407.868 449.1 407.434 448.387 406.96C446.21 405.577 444.191 404.945 442.33 405.024C440.549 405.143 439.005 406.13 437.777 407.947Z" fill="white"/>
<path d="M418.498 425.482C418.696 425.285 418.933 425.167 419.211 425.167C419.488 425.167 419.725 425.285 419.923 425.482L436.906 442.939L438.213 433.934C438.252 433.658 438.371 433.421 438.609 433.263C438.807 433.105 439.044 433.026 439.361 433.105L441.182 433.342C441.499 433.421 441.736 433.539 441.855 433.776C442.013 433.974 442.053 434.25 442.013 434.527L440.271 446.375C440.232 446.612 440.153 446.809 440.034 446.967C439.915 447.125 439.796 447.244 439.678 447.402L438.094 448.942C437.896 449.139 437.659 449.258 437.381 449.218C437.104 449.218 436.867 449.1 436.669 448.902L416.835 428.484C416.637 428.287 416.519 428.05 416.519 427.773C416.519 427.497 416.637 427.26 416.835 427.062L418.498 425.482Z" fill="white"/>
<path d="M402.544 437.054C404.563 435.751 406.582 435.08 408.522 435.001C410.461 434.922 412.243 435.317 413.826 436.185C415.41 437.054 416.716 438.279 417.706 439.819C418.181 440.569 418.537 441.32 418.775 442.109C419.012 442.899 419.171 443.689 419.29 444.479C419.408 445.269 419.448 445.98 419.488 446.612C419.527 447.283 419.488 447.797 419.448 448.231L418.617 462.37C418.577 462.567 418.537 462.804 418.458 463.12C418.419 463.397 418.221 463.673 417.864 463.871L415.925 465.095C415.687 465.253 415.489 465.253 415.252 465.174C415.014 465.095 414.816 464.937 414.697 464.739C414.618 464.661 414.579 464.542 414.579 464.424C414.539 464.305 414.539 464.226 414.579 464.147L415.212 453.247C414.974 453.523 414.697 453.8 414.301 454.116C413.945 454.392 413.589 454.629 413.272 454.827C411.926 455.656 410.541 456.169 409.115 456.406C407.73 456.643 406.384 456.604 405.077 456.327C403.771 456.051 402.583 455.498 401.515 454.708C400.446 453.918 399.535 452.97 398.783 451.786C397.793 450.245 397.239 448.586 397.12 446.77C397.001 444.953 397.397 443.176 398.268 441.478C399.1 439.819 400.564 438.358 402.544 437.054ZM404.563 440.174C403.534 440.806 402.702 441.636 402.108 442.662C401.515 443.65 401.198 444.756 401.198 445.94C401.198 447.125 401.554 448.35 402.346 449.613C403.138 450.838 404.048 451.707 405.117 452.22C406.186 452.733 407.294 452.891 408.482 452.773C409.63 452.654 410.739 452.259 411.768 451.588C412.797 450.956 413.628 450.127 414.222 449.139C414.816 448.152 415.133 447.046 415.172 445.861C415.172 444.677 414.816 443.452 414.024 442.228C413.233 440.964 412.282 440.095 411.214 439.621C410.145 439.147 408.997 438.95 407.849 439.068C406.701 439.147 405.592 439.503 404.563 440.174Z" fill="white"/>
<path d="M290.667 440.016C290.945 440.214 291.063 440.411 291.103 440.688C291.143 440.925 291.063 441.201 290.905 441.438L274.476 464.582C274.278 464.858 274.08 465.016 273.803 465.056C273.565 465.095 273.288 465.056 273.051 464.858L264.975 459.131C262.52 457.394 260.818 455.656 259.868 453.879C258.878 452.102 258.562 450.245 258.918 448.31C259.235 446.414 260.145 444.4 261.61 442.307C262.322 441.241 262.995 440.293 263.55 439.463C264.104 438.674 264.777 437.765 265.569 436.738C267.152 434.606 268.815 433.065 270.478 432.118C272.18 431.17 274.001 430.854 275.941 431.17C277.881 431.486 280.058 432.513 282.473 434.211L290.667 440.016ZM285.838 441.162L280.454 437.331C278.831 436.185 277.366 435.475 276.059 435.238C274.753 435.001 273.565 435.238 272.417 435.909C271.269 436.58 270.121 437.726 268.934 439.345C268.379 440.016 267.904 440.609 267.548 441.162C267.152 441.675 266.796 442.228 266.4 442.741C266.004 443.255 265.608 443.887 265.173 444.598C263.589 446.928 262.916 449.021 263.193 450.838C263.47 452.654 264.816 454.471 267.271 456.209L272.497 459.882L285.838 441.162Z" fill="white"/>
<path d="M267.509 421.968C267.707 422.205 267.786 422.441 267.786 422.718C267.746 422.955 267.627 423.192 267.39 423.389L245.617 441.636C245.379 441.833 245.102 441.951 244.864 441.912C244.627 441.912 244.389 441.754 244.191 441.517L232.632 427.773C232.434 427.536 232.354 427.26 232.354 427.023C232.394 426.786 232.513 426.549 232.79 426.351L234.057 425.285C234.294 425.088 234.532 424.969 234.809 425.009C235.046 425.048 235.284 425.167 235.482 425.404L244.983 436.738L252.307 430.617L243.4 420.032C243.202 419.795 243.122 419.558 243.122 419.282C243.122 419.006 243.281 418.808 243.558 418.611L244.785 417.584C245.023 417.386 245.26 417.307 245.498 417.307C245.735 417.307 245.973 417.465 246.171 417.702L255.078 428.287L262.639 421.968L252.901 410.396C252.703 410.159 252.584 409.922 252.624 409.645C252.663 409.409 252.782 409.172 253.019 408.974L254.326 407.868C254.563 407.671 254.801 407.592 255.038 407.592C255.276 407.592 255.514 407.75 255.711 407.987L267.509 421.968Z" fill="white"/>
<path d="M248.229 393.453C249.338 395.704 249.932 397.797 249.971 399.653C250.011 401.549 249.694 403.168 248.982 404.511C248.269 405.854 247.319 406.881 246.131 407.513C245.933 407.631 245.696 407.631 245.458 407.552C245.221 407.473 245.023 407.315 244.904 407.078L243.914 405.104C243.756 404.788 243.716 404.511 243.796 404.274C243.875 404.037 243.994 403.84 244.191 403.682C244.746 403.208 245.181 402.576 245.577 401.786C245.933 400.996 246.092 400.048 246.052 398.903C246.013 397.797 245.617 396.494 244.904 395.033C243.796 392.781 242.608 391.36 241.302 390.688C239.995 390.017 238.649 390.017 237.343 390.649C236.432 391.083 235.838 391.755 235.561 392.584C235.284 393.413 235.205 394.519 235.324 395.862C235.443 397.205 235.68 398.942 236.076 401.036C236.472 403.208 236.63 405.064 236.591 406.644C236.551 408.224 236.195 409.527 235.522 410.633C234.849 411.699 233.78 412.607 232.315 413.358C230.89 414.029 229.465 414.266 228 414.069C226.535 413.871 225.11 413.2 223.764 412.094C222.418 410.988 221.23 409.408 220.241 407.434C219.449 405.814 218.974 404.314 218.816 402.892C218.657 401.47 218.736 400.167 219.053 399.021C219.37 397.876 219.845 396.889 220.478 396.059C221.112 395.23 221.785 394.638 222.576 394.203C222.774 394.124 222.972 394.085 223.21 394.124C223.447 394.164 223.645 394.322 223.764 394.638L224.793 396.691C224.872 396.889 224.912 397.086 224.912 397.323C224.912 397.56 224.793 397.797 224.556 398.074C223.566 398.745 222.972 399.772 222.735 401.194C222.497 402.576 222.814 404.116 223.645 405.775C224.477 407.473 225.466 408.658 226.654 409.408C227.842 410.159 229.108 410.159 230.494 409.487C231.365 409.053 231.998 408.461 232.355 407.671C232.711 406.881 232.83 405.854 232.751 404.59C232.671 403.326 232.473 401.668 232.117 399.732C231.682 397.363 231.444 395.388 231.405 393.729C231.405 392.11 231.721 390.728 232.355 389.622C232.988 388.516 234.057 387.608 235.522 386.897C237.145 386.107 238.768 385.831 240.351 386.146C241.935 386.423 243.4 387.213 244.785 388.437C245.973 389.661 247.161 391.36 248.229 393.453Z" fill="white"/>
<path d="M240.905 377.379C240.984 377.695 240.945 377.932 240.786 378.169C240.628 378.366 240.43 378.524 240.153 378.564L212.283 384.172C211.966 384.251 211.689 384.211 211.491 384.053C211.254 383.935 211.135 383.698 211.056 383.382L209.116 373.706C208.522 370.783 208.482 368.335 208.997 366.36C209.512 364.385 210.541 362.845 212.125 361.66C213.668 360.476 215.687 359.646 218.221 359.093C219.488 358.817 220.636 358.58 221.586 358.382C222.536 358.185 223.684 357.987 224.912 357.75C227.524 357.277 229.781 357.277 231.681 357.75C233.581 358.224 235.125 359.251 236.313 360.791C237.501 362.371 238.411 364.583 238.965 367.466L240.905 377.379ZM236.63 374.891L235.323 368.414C234.927 366.439 234.333 364.938 233.581 363.912C232.79 362.845 231.76 362.174 230.454 361.897C229.147 361.621 227.524 361.66 225.545 362.016C224.674 362.134 223.922 362.253 223.288 362.371C222.655 362.49 222.022 362.648 221.349 362.766C220.715 362.885 219.963 363.082 219.171 363.28C216.44 363.912 214.5 364.938 213.431 366.479C212.362 367.979 212.125 370.231 212.718 373.193L213.985 379.472L236.63 374.891Z" fill="white"/>
<path d="M236.432 348.39C236.432 348.706 236.313 348.943 236.115 349.101C235.917 349.259 235.68 349.338 235.403 349.338L207.018 347.758C206.701 347.758 206.464 347.64 206.266 347.442C206.068 347.245 205.989 347.008 206.028 346.692L207.018 328.762C207.018 328.446 207.137 328.209 207.335 328.051C207.533 327.893 207.81 327.814 208.127 327.814L209.789 327.893C210.106 327.893 210.344 328.011 210.502 328.209C210.66 328.406 210.739 328.643 210.739 328.959L209.908 343.691L219.449 344.204L220.241 330.421C220.241 330.105 220.359 329.868 220.557 329.71C220.755 329.552 221.032 329.473 221.349 329.473L222.972 329.552C223.249 329.552 223.487 329.67 223.685 329.868C223.883 330.065 223.962 330.302 223.922 330.618L223.131 344.401L232.909 344.994L233.74 329.907C233.74 329.591 233.859 329.354 234.057 329.196C234.255 329.038 234.492 328.959 234.809 328.959L236.511 329.038C236.788 329.038 237.026 329.157 237.224 329.354C237.422 329.552 237.501 329.789 237.461 330.105L236.432 348.39Z" fill="white"/>
<path d="M241.38 313.438C241.261 313.715 241.103 313.873 240.826 313.991C240.588 314.11 240.311 314.07 240.034 313.991L238.767 313.438C238.53 313.32 238.292 313.162 238.055 312.886C237.817 312.649 237.619 312.214 237.421 311.701L232.473 299.655C231.879 297.799 231.364 296.338 230.85 295.192C230.375 294.047 229.82 293.178 229.187 292.546C228.593 291.914 227.881 291.401 227.049 291.085C225.505 290.453 224.12 290.374 222.892 290.848C221.626 291.322 220.676 292.428 219.963 294.086C219.527 295.153 219.369 296.18 219.488 297.127C219.607 298.075 219.963 298.944 220.557 299.695C221.151 300.445 221.863 301.077 222.774 301.669C223.09 301.867 223.288 302.104 223.328 302.38C223.368 302.657 223.328 302.894 223.288 303.091L222.417 305.184C222.299 305.421 222.14 305.579 221.942 305.698C221.744 305.816 221.507 305.816 221.309 305.698C220.319 305.263 219.369 304.592 218.498 303.762C217.627 302.933 216.954 301.946 216.44 300.8C215.925 299.655 215.648 298.391 215.648 297.009C215.608 295.627 215.925 294.165 216.598 292.625C217.469 290.532 218.577 288.952 219.923 287.925C221.269 286.899 222.695 286.306 224.199 286.188C225.743 286.069 227.247 286.306 228.751 286.938C229.939 287.412 230.929 288.083 231.721 288.873C232.512 289.663 233.225 290.65 233.858 291.796C234.452 292.941 235.006 294.284 235.521 295.785L240.034 306.803L245.26 294.284C245.378 294.007 245.576 293.77 245.814 293.691C246.051 293.573 246.329 293.573 246.606 293.731L248.268 294.402C248.546 294.521 248.704 294.679 248.823 294.955C248.941 295.192 248.902 295.469 248.783 295.785L241.38 313.438Z" fill="white"/>
<path d="M258.245 282.199C257.057 283.818 255.791 284.963 254.484 285.714C253.178 286.464 251.792 286.859 250.407 286.899C249.021 286.938 247.596 286.701 246.25 286.188C244.864 285.674 243.518 284.963 242.212 284.055C241.578 283.621 240.866 283.147 240.193 282.633C239.48 282.12 238.768 281.607 238.055 281.054C237.342 280.501 236.669 279.987 236.036 279.474C234.769 278.526 233.7 277.42 232.79 276.235C231.879 275.051 231.286 273.787 230.89 272.444C230.533 271.101 230.494 269.679 230.81 268.218C231.127 266.757 231.879 265.217 233.027 263.637C234.215 262.018 235.482 260.872 236.788 260.122C238.095 259.371 239.48 258.977 240.866 258.937C242.251 258.898 243.637 259.095 245.062 259.608C246.448 260.122 247.794 260.833 249.1 261.741C249.773 262.215 250.486 262.689 251.198 263.202C251.95 263.716 252.663 264.229 253.336 264.782C254.009 265.296 254.682 265.809 255.315 266.283C256.582 267.27 257.651 268.337 258.562 269.521C259.472 270.706 260.106 271.97 260.462 273.313C260.858 274.656 260.858 276.077 260.541 277.539C260.185 279 259.433 280.58 258.245 282.199ZM255.197 279.987C256.543 278.171 256.939 276.393 256.384 274.616C255.83 272.878 254.524 271.22 252.465 269.679C251.832 269.126 251.198 268.613 250.525 268.139C249.892 267.665 249.259 267.191 248.586 266.717C247.952 266.243 247.279 265.809 246.606 265.375C244.548 263.913 242.608 263.163 240.707 263.123C238.847 263.084 237.224 263.992 235.878 265.809C234.571 267.586 234.175 269.403 234.769 271.18C235.363 272.957 236.63 274.616 238.649 276.156C239.282 276.63 239.916 277.104 240.549 277.578C241.183 278.052 241.816 278.526 242.489 279C243.122 279.474 243.795 279.948 244.468 280.422C246.567 281.922 248.546 282.633 250.407 282.633C252.307 282.633 253.89 281.764 255.197 279.987Z" fill="white"/>
<path d="M275.308 263.36C275.07 263.558 274.833 263.637 274.595 263.637C274.318 263.637 274.081 263.518 273.922 263.281L257.77 245.035L256.028 253.961C255.989 254.237 255.831 254.474 255.633 254.632C255.435 254.79 255.158 254.829 254.88 254.79L253.099 254.474C252.782 254.395 252.584 254.237 252.426 254C252.268 253.763 252.228 253.526 252.307 253.25L254.564 241.52C254.603 241.283 254.722 241.086 254.801 240.967C254.92 240.849 255.039 240.691 255.197 240.572L256.86 239.111C257.058 238.913 257.335 238.834 257.572 238.834C257.85 238.834 258.087 238.953 258.245 239.19L277.089 260.477C277.287 260.675 277.366 260.951 277.366 261.188C277.366 261.464 277.248 261.701 277.01 261.859L275.308 263.36Z" fill="white"/>
<path d="M291.776 252.499C289.678 253.684 287.659 254.276 285.719 254.276C283.779 254.276 282.038 253.802 280.454 252.855C278.91 251.907 277.683 250.643 276.733 249.024C276.297 248.273 275.981 247.483 275.783 246.694C275.585 245.904 275.426 245.114 275.387 244.324C275.308 243.534 275.308 242.823 275.308 242.152C275.308 241.48 275.347 240.967 275.387 240.533L276.852 226.433C276.891 226.236 276.97 225.999 277.049 225.722C277.129 225.446 277.327 225.169 277.683 224.972L279.702 223.827C279.939 223.708 280.177 223.669 280.375 223.748C280.612 223.827 280.771 223.985 280.929 224.222C280.969 224.34 281.008 224.419 281.048 224.538C281.087 224.656 281.087 224.735 281.048 224.814L279.939 235.635C280.177 235.359 280.494 235.082 280.89 234.806C281.285 234.529 281.642 234.293 281.958 234.135C283.344 233.384 284.769 232.91 286.155 232.752C287.58 232.594 288.926 232.673 290.193 233.029C291.46 233.384 292.647 233.977 293.676 234.806C294.706 235.635 295.577 236.662 296.289 237.847C297.2 239.427 297.675 241.125 297.714 242.942C297.754 244.758 297.279 246.496 296.329 248.194C295.339 249.893 293.835 251.314 291.776 252.499ZM289.916 249.34C290.985 248.747 291.816 247.957 292.489 246.97C293.122 245.983 293.479 244.916 293.558 243.732C293.637 242.547 293.281 241.322 292.568 240.019C291.855 238.755 290.945 237.847 289.916 237.294C288.847 236.741 287.738 236.504 286.59 236.583C285.403 236.662 284.294 237.018 283.225 237.61C282.156 238.202 281.325 238.992 280.652 239.94C279.979 240.888 279.623 241.954 279.544 243.179C279.464 244.363 279.781 245.588 280.533 246.852C281.285 248.115 282.156 249.063 283.225 249.577C284.294 250.09 285.403 250.367 286.59 250.288C287.738 250.248 288.847 249.932 289.916 249.34Z" fill="white"/>
</g>
<g filter="url(#filter1_d_1189_321)">
<circle cx="340.061" cy="223.748" r="4.43943" fill="white"/>
</g>
<g filter="url(#filter2_d_1189_321)">
<circle cx="340.061" cy="465.252" r="4.43943" fill="white"/>
</g>
<defs>
<filter id="filter0_d_1189_321" x="195.419" y="216.107" width="299.04" height="262.719" filterUnits="userSpaceOnUse" color-interpolation-filters="sRGB">
<feFlood flood-opacity="0" result="BackgroundImageFix"/>
<feColorMatrix in="SourceAlpha" type="matrix" values="0 0 0 0 0 0 0 0 0 0 0 0 0 0 0 0 0 0 127 0" result="hardAlpha"/>
<feOffset dy="3"/>
<feGaussianBlur stdDeviation="5.3"/>
<feComposite in2="hardAlpha" operator="out"/>
<feColorMatrix type="matrix" values="0 0 0 0 0.0778646 0 0 0 0 0.479167 0 0 0 0 0.310343 0 0 0 0.5 0"/>
<feBlend mode="normal" in2="BackgroundImageFix" result="effect1_dropShadow_1189_321"/>
<feBlend mode="normal" in="SourceGraphic" in2="effect1_dropShadow_1189_321" result="shape"/>
</filter>
<filter id="filter1_d_1189_321" x="325.021" y="212.708" width="30.0789" height="30.0789" filterUnits="userSpaceOnUse" color-interpolation-filters="sRGB">
<feFlood flood-opacity="0" result="BackgroundImageFix"/>
<feColorMatrix in="SourceAlpha" type="matrix" values="0 0 0 0 0 0 0 0 0 0 0 0 0 0 0 0 0 0 127 0" result="hardAlpha"/>
<feOffset dy="4"/>
<feGaussianBlur stdDeviation="5.3"/>
<feComposite in2="hardAlpha" operator="out"/>
<feColorMatrix type="matrix" values="0 0 0 0 0.0784314 0 0 0 0 0.478431 0 0 0 0 0.309804 0 0 0 0.5 0"/>
<feBlend mode="normal" in2="BackgroundImageFix" result="effect1_dropShadow_1189_321"/>
<feBlend mode="normal" in="SourceGraphic" in2="effect1_dropShadow_1189_321" result="shape"/>
</filter>
<filter id="filter2_d_1189_321" x="325.021" y="454.213" width="30.0789" height="30.0789" filterUnits="userSpaceOnUse" color-interpolation-filters="sRGB">
<feFlood flood-opacity="0" result="BackgroundImageFix"/>
<feColorMatrix in="SourceAlpha" type="matrix" values="0 0 0 0 0 0 0 0 0 0 0 0 0 0 0 0 0 0 127 0" result="hardAlpha"/>
<feOffset dy="4"/>
<feGaussianBlur stdDeviation="5.3"/>
<feComposite in2="hardAlpha" operator="out"/>
<feColorMatrix type="matrix" values="0 0 0 0 0.0784314 0 0 0 0 0.478431 0 0 0 0 0.309804 0 0 0 0.5 0"/>
<feBlend mode="normal" in2="BackgroundImageFix" result="effect1_dropShadow_1189_321"/>
<feBlend mode="normal" in="SourceGraphic" in2="effect1_dropShadow_1189_321" result="shape"/>
</filter>
<radialGradient id="paint0_angular_1189_321" cx="0" cy="0" r="1" gradientUnits="userSpaceOnUse" gradientTransform="translate(344.944 344.056) rotate(90) scale(175.358)">
<stop stop-color="#10A466"/>
<stop offset="0.22" stop-color="#BBFFE3"/>
<stop offset="0.35" stop-color="#10A466"/>
<stop offset="0.465" stop-color="#BBFFE3"/>
<stop offset="0.6" stop-color="#10A466"/>
<stop offset="0.72" stop-color="#55C999"/>
<stop offset="0.785" stop-color="#BBFFE3"/>
<stop offset="0.850372" stop-color="#41BE89"/>
<stop offset="0.924291" stop-color="#10A466"/>
<stop offset="1" stop-color="#10A466"/>
</radialGradient>
</defs>
</svg>
