<svg width="24" height="24" viewBox="0 0 24 24" fill="none" xmlns="http://www.w3.org/2000/svg">
<path d="M3.16064 4.46875C5.58459 2.0448 9.44667 1.9355 12.0003 4.14085C14.5523 1.9355 18.4144 2.0448 20.8383 4.46875C23.2579 6.88836 23.3711 10.741 21.178 13.2947L13.4137 21.0858C12.6681 21.8313 11.4804 21.8652 10.6947 21.1874L10.5853 21.0858L2.82092 13.2947C0.627794 10.741 0.741034 6.88836 3.16064 4.46875ZM4.57485 5.88296C2.8677 7.59011 2.81893 10.3276 4.42853 12.0937L4.57485 12.2469L11.9995 19.6715L17.3021 14.3675L13.7672 10.8327L12.7066 11.8934C11.535 13.0649 9.63551 13.0649 8.46394 11.8934C7.29237 10.7218 7.29237 8.8223 8.46394 7.65073L10.5651 5.54823C8.85243 4.17713 6.37027 4.23993 4.72811 5.73663L4.57485 5.88296ZM13.0601 8.71139C13.4506 8.32086 14.0838 8.32086 14.4743 8.71139L18.7163 12.9533L19.4241 12.2469C21.1814 10.4896 21.1814 7.64032 19.4241 5.88296C17.7169 4.17581 14.9794 4.12704 13.2134 5.73663L13.0601 5.88296L9.87815 9.06494C9.51552 9.42757 9.48962 9.99942 9.80045 10.3919L9.87815 10.4792C10.2408 10.8418 10.8126 10.8677 11.2051 10.5569L11.2924 10.4792L13.0601 8.71139Z" fill="#10A466"/>
</svg>
